<svg viewBox="0 0 630 93" fill="none" xmlns="http://www.w3.org/2000/svg">
<path d="M3.45 33.3V0.849998C3.45 0.45 3.15 0.149998 2.75 0.149998C2.3 0.149998 2 0.45 2 0.849998V33.3C2 33.7 2.3 34 2.75 34C3.15 34 3.45 33.7 3.45 33.3ZM12.409 9.35C12.359 9.3 12.359 9.2 12.359 9.15L10.509 0.749999C10.409 0.299999 10.109 0.049999 9.65898 0.149998C9.20898 0.249999 9.05898 0.599998 9.15898 1.1L10.709 8.1C9.95898 8.2 9.35898 8.85 9.35898 9.6C9.35898 10.45 10.059 11.15 10.859 11.15C11.709 11.15 12.409 10.45 12.409 9.6V9.35ZM43.8172 12.8C42.6172 10.15 40.5172 8.95 37.0172 8.95C33.1172 8.95 31.2672 10.25 29.9672 13.35C28.7172 10.4 26.9172 9 22.9672 9C19.9172 9 17.7672 9.95 16.5672 11.9V10C16.5672 9.6 16.2672 9.3 15.8672 9.3C15.4172 9.3 15.1172 9.6 15.1172 10V33.3C15.1172 33.7 15.4172 34 15.8172 34C16.2672 34 16.5672 33.7 16.5672 33.3V21.55C16.5672 18.4 16.5672 15.45 17.4172 13.45C18.2672 11.45 19.8172 10.45 22.9172 10.45C25.9172 10.45 27.5672 11.4 28.4672 13.4C29.3172 15.3 29.3172 18.05 29.3172 20.95V33.3C29.3172 33.7 29.6172 34 30.0672 34C30.4672 34 30.7672 33.7 30.7672 33.3V21.2C30.7672 18.05 30.7672 15.3 31.5172 13.35C32.3672 11.2 34.2672 10.45 37.0172 10.45C39.8672 10.45 41.5672 11.25 42.4672 13.35C43.3172 15.3 43.3672 18 43.3672 20.9V33.3C43.3672 33.7 43.6672 34 44.1172 34C44.5172 34 44.8172 33.7 44.8172 33.3V20.9C44.8172 17.85 44.8172 15 43.8172 12.8ZM83.2703 0.149998C82.9203 0.149998 82.6703 0.399997 82.5703 0.7L72.4203 31.5L62.2703 0.7C62.1703 0.399997 61.9203 0.149998 61.5703 0.149998C61.1203 0.149998 60.6703 0.549999 60.8703 1.05L71.2703 33.1C71.4703 33.6 71.8703 34 72.4203 34C72.9703 34 73.3703 33.6 73.5703 33.1L83.9703 1.05C84.1703 0.549999 83.7203 0.149998 83.2703 0.149998ZM91.5754 34C96.2254 34 99.1254 31.05 99.1254 26.2V17.05C99.1254 14.8 98.1254 12.35 96.9254 11.1C95.6254 9.75 93.6754 9 91.3754 9C89.0754 9 87.0754 9.75 85.7754 11.1C84.7254 12.2 83.7254 14.2 83.6254 15.65C83.5754 16.3 83.7754 16.6 84.2254 16.6C84.8254 16.6 84.9754 16.15 85.0754 15.75C85.8254 12.4 87.5254 10.4 91.3754 10.4C93.2754 10.4 94.9754 11 95.9254 12.1C97.0254 13.3 97.7254 15.4 97.7254 17.05V21.75C96.2254 19.6 93.8754 18.4 91.3254 18.4C86.9754 18.4 83.5254 21.85 83.5254 26.45C83.5254 30.9 86.7754 34 91.5754 34ZM91.4754 32.6C87.6754 32.6 84.9754 30.15 84.9754 26.45C84.9754 22.65 87.7754 19.8 91.3754 19.8C94.9254 19.8 97.7254 22.6 97.7254 26.5C97.7254 30.1 95.2754 32.6 91.4754 32.6ZM111.393 9C103.643 9 103.643 15.1 103.643 21.55C103.643 27.95 103.643 34 111.393 34C114.743 34 116.643 32.85 117.743 31.05L117.693 34C117.643 39.3 117.493 42.8 114.893 44.1C113.643 44.7 112.843 44.65 108.843 44.65C108.443 44.65 108.093 45 108.093 45.4C108.093 45.8 108.443 46.15 108.843 46.15H111.943C116.493 46.15 118.443 43.6 118.943 39.65C119.143 38.05 119.143 36.2 119.143 34V21.55C119.143 15.1 119.143 9 111.393 9ZM111.393 32.6C108.443 32.6 106.693 31.6 105.843 29.55C105.093 27.65 105.043 25.05 105.043 21.4C105.043 17.75 105.093 15.35 105.843 13.45C106.743 11.2 108.793 10.45 111.393 10.45C114.043 10.45 116.043 11.25 116.943 13.45C117.693 15.3 117.743 18 117.743 21.65C117.743 25.3 117.693 27.7 116.943 29.55C116.043 31.75 114.043 32.6 111.393 32.6ZM138.562 9.35C138.112 9.35 137.862 9.65 137.862 10.15V21.45C137.862 24.65 137.812 27.5 136.912 29.6C135.962 31.85 134.212 32.55 131.512 32.55C128.062 32.55 126.762 31.4 126.012 29.6C125.162 27.5 125.112 24.65 125.112 21.45V10.15C125.112 9.65 124.912 9.35 124.462 9.35C123.962 9.35 123.662 9.65 123.662 10.15V21.45C123.662 27.85 123.662 34 131.462 34C139.312 34 139.312 27.85 139.312 21.45V10.15C139.312 9.65 139.012 9.35 138.562 9.35ZM158.678 21.5C159.428 21.5 159.478 21.5 159.478 20.25C159.478 12.4 157.478 9 151.578 9C144.428 9 144.078 13.95 143.878 19.15C143.828 20 143.828 20.45 143.828 21.5C143.828 27.75 143.828 34 151.478 34C157.428 34 159.178 30.25 159.278 27.05C159.278 26.45 159.228 26.2 158.728 26.1C158.128 26 157.978 26.4 157.878 26.85C157.528 28.4 157.628 32.6 151.528 32.6C148.878 32.6 147.078 31.8 146.078 29.55C145.278 27.7 145.278 26.1 145.278 21.5H158.678ZM151.628 10.45C156.678 10.45 157.828 13.05 158.028 20.05H145.328C145.478 13 146.628 10.45 151.628 10.45ZM177.392 9C177.092 9 176.792 9.15 176.692 9.5L170.092 31.65L163.492 9.5C163.392 9.15 163.092 9 162.792 9C162.242 9 161.892 9.45 162.042 9.95L169.092 33.2C169.242 33.7 169.642 34 170.092 34C170.542 34 170.942 33.7 171.092 33.2L178.142 9.95C178.242 9.5 177.892 9 177.392 9ZM188.883 34C196.633 34 196.633 27.95 196.633 21.55C196.633 15.1 196.633 9 188.883 9C181.133 9 181.133 15.1 181.133 21.55C181.133 27.95 181.133 34 188.883 34ZM188.833 32.55C185.933 32.55 184.233 31.55 183.383 29.5C182.583 27.5 182.583 24.5 182.583 24.4C182.583 17.75 182.633 15.4 183.383 13.5C184.233 11.35 186.133 10.45 188.883 10.45C191.533 10.45 193.483 11.3 194.383 13.5C195.183 15.4 195.183 18.6 195.183 18.7C195.183 25.25 195.133 27.65 194.383 29.5C193.583 31.45 191.883 32.55 188.833 32.55ZM202.352 4C203.152 4 203.852 3.3 203.852 2.45C203.852 1.65 203.152 0.949999 202.352 0.949999C201.502 0.949999 200.802 1.65 200.802 2.45C200.802 3.3 201.502 4 202.352 4ZM202.202 34C202.652 34 202.902 33.7 202.902 33.2V9.8C202.902 9.3 202.652 9 202.202 9C201.702 9 201.452 9.3 201.452 9.8V33.2C201.452 33.7 201.702 34 202.202 34ZM223.182 0.149998C222.732 0.149998 222.432 0.45 222.432 0.849998V12.05C221.382 10.25 219.482 9 215.982 9C208.232 9 208.232 15.15 208.232 21.55C208.232 28 208.232 34 216.032 34C223.882 34 223.882 27.9 223.882 21.55V0.849998C223.882 0.45 223.582 0.149998 223.182 0.149998ZM221.482 29.5C220.582 31.7 218.632 32.55 215.982 32.55C213.032 32.55 211.332 31.55 210.482 29.5C209.732 27.6 209.682 25.05 209.682 21.4C209.682 17.75 209.732 15.4 210.482 13.5C211.332 11.35 213.232 10.45 215.982 10.45C218.632 10.45 220.582 11.3 221.482 13.5C222.232 15.4 222.282 17.9 222.282 21.6C222.282 25.3 222.232 27.65 221.482 29.5ZM232.798 32.45C232.798 31.65 232.098 30.95 231.298 30.95C230.448 30.95 229.748 31.65 229.748 32.45C229.748 33.05 230.098 33.6 230.648 33.85L229.698 35.9C229.498 36.4 229.898 36.75 230.348 36.75C230.598 36.75 230.698 36.65 230.798 36.5C231.398 35.55 232.298 33.9 232.548 33.25C232.698 33 232.798 32.75 232.798 32.45ZM254.417 34C259.067 34 261.967 31.05 261.967 26.2V17.05C261.967 14.8 260.967 12.35 259.767 11.1C258.467 9.75 256.517 9 254.217 9C251.917 9 249.917 9.75 248.617 11.1C247.567 12.2 246.567 14.2 246.467 15.65C246.417 16.3 246.617 16.6 247.067 16.6C247.667 16.6 247.817 16.15 247.917 15.75C248.667 12.4 250.367 10.4 254.217 10.4C256.117 10.4 257.817 11 258.767 12.1C259.867 13.3 260.567 15.4 260.567 17.05V21.75C259.067 19.6 256.717 18.4 254.167 18.4C249.817 18.4 246.367 21.85 246.367 26.45C246.367 30.9 249.617 34 254.417 34ZM254.317 32.6C250.517 32.6 247.817 30.15 247.817 26.45C247.817 22.65 250.617 19.8 254.217 19.8C257.767 19.8 260.567 22.6 260.567 26.5C260.567 30.1 258.117 32.6 254.317 32.6ZM278.708 34C279.158 34 279.458 33.7 279.458 33.3V21.55C279.458 18.4 279.458 15.45 280.308 13.45C281.158 11.45 282.708 10.45 285.808 10.45C288.808 10.45 290.458 11.4 291.358 13.4C292.208 15.3 292.208 18.05 292.208 20.95V33.3C292.208 33.7 292.508 34 292.958 34C293.358 34 293.658 33.7 293.658 33.3V21.2C293.658 17.9 293.708 15 292.658 12.8C291.558 10.25 289.308 9 285.858 9C282.808 9 280.658 9.95 279.458 11.9V10C279.458 9.6 279.158 9.3 278.758 9.3C278.308 9.3 278.008 9.6 278.008 10V33.3C278.008 33.7 278.308 34 278.708 34ZM313.024 21.5C313.774 21.5 313.824 21.5 313.824 20.25C313.824 12.4 311.824 9 305.924 9C298.774 9 298.424 13.95 298.224 19.15C298.174 20 298.174 20.45 298.174 21.5C298.174 27.75 298.174 34 305.824 34C311.774 34 313.524 30.25 313.624 27.05C313.624 26.45 313.574 26.2 313.074 26.1C312.474 26 312.324 26.4 312.224 26.85C311.874 28.4 311.974 32.6 305.874 32.6C303.224 32.6 301.424 31.8 300.424 29.55C299.624 27.7 299.624 26.1 299.624 21.5H313.024ZM305.974 10.45C311.024 10.45 312.174 13.05 312.374 20.05H299.674C299.824 13 300.974 10.45 305.974 10.45ZM344.188 9.05C343.688 8.9 343.438 9.15 343.288 9.6L337.288 31.15L331.338 9.7C331.238 9.3 331.088 9 330.638 9C330.188 9 329.938 9.25 329.838 9.65L323.838 31.1L317.788 9.6C317.638 9.15 317.438 8.9 316.938 9.05C316.438 9.2 316.288 9.55 316.438 10L322.788 32.9C322.988 33.45 323.088 33.95 323.788 34H323.888C324.588 33.95 324.688 33.45 324.888 32.9L330.638 12.65L336.238 32.9C336.438 33.45 336.538 33.95 337.238 34H337.338C338.038 33.95 338.138 33.45 338.338 32.9L344.688 10C344.838 9.55 344.688 9.2 344.188 9.05ZM389.618 12.8C388.418 10.15 386.318 8.95 382.818 8.95C378.918 8.95 377.068 10.25 375.768 13.35C374.518 10.4 372.718 9 368.768 9C365.718 9 363.568 9.95 362.368 11.9V10C362.368 9.6 362.068 9.3 361.668 9.3C361.218 9.3 360.918 9.6 360.918 10V33.3C360.918 33.7 361.218 34 361.618 34C362.068 34 362.368 33.7 362.368 33.3V21.55C362.368 18.4 362.368 15.45 363.218 13.45C364.068 11.45 365.618 10.45 368.718 10.45C371.718 10.45 373.368 11.4 374.268 13.4C375.118 15.3 375.118 18.05 375.118 20.95V33.3C375.118 33.7 375.418 34 375.868 34C376.268 34 376.568 33.7 376.568 33.3V21.2C376.568 18.05 376.568 15.3 377.318 13.35C378.168 11.2 380.068 10.45 382.818 10.45C385.668 10.45 387.368 11.25 388.268 13.35C389.118 15.3 389.168 18 389.168 20.9V33.3C389.168 33.7 389.468 34 389.918 34C390.318 34 390.618 33.7 390.618 33.3V20.9C390.618 17.85 390.618 15 389.618 12.8ZM409.998 9.35C409.548 9.35 409.298 9.65 409.298 10.15V21.45C409.298 24.65 409.248 27.5 408.348 29.6C407.398 31.85 405.648 32.55 402.948 32.55C399.498 32.55 398.198 31.4 397.448 29.6C396.598 27.5 396.548 24.65 396.548 21.45V10.15C396.548 9.65 396.348 9.35 395.898 9.35C395.398 9.35 395.098 9.65 395.098 10.15V21.45C395.098 27.85 395.098 34 402.898 34C410.748 34 410.748 27.85 410.748 21.45V10.15C410.748 9.65 410.448 9.35 409.998 9.35ZM420.464 32.55C418.314 32.35 417.614 31.35 417.264 30.65C416.764 29.5 416.714 27.9 416.714 26.15V0.949999C416.714 0.45 416.464 0.149998 416.014 0.149998C415.564 0.149998 415.264 0.45 415.264 0.949999V25.4C415.264 27.6 415.214 29.75 416.064 31.35C416.814 33 418.264 33.85 420.414 34C420.964 34.05 421.264 33.8 421.264 33.3C421.264 32.85 420.964 32.6 420.464 32.55ZM430.977 32.55C428.577 32.3 427.927 31.45 427.577 30.75C427.027 29.55 426.977 27.9 426.977 26.2V10.45H430.527C431.027 10.45 431.327 10.15 431.327 9.7C431.327 9.35 431.027 9 430.527 9H426.977V0.849998C426.977 0.45 426.677 0.149998 426.277 0.149998C425.827 0.149998 425.527 0.45 425.527 0.849998V9H423.077C422.577 9 422.277 9.35 422.277 9.7C422.277 10.15 422.577 10.45 423.077 10.45H425.527V25.55C425.527 27.85 425.477 29.85 426.227 31.55C426.877 33.05 429.127 34 430.927 34C431.477 34 431.777 33.8 431.777 33.4C431.777 32.85 431.477 32.6 430.977 32.55ZM437.46 4C438.26 4 438.96 3.3 438.96 2.45C438.96 1.65 438.26 0.949999 437.46 0.949999C436.61 0.949999 435.91 1.65 435.91 2.45C435.91 3.3 436.61 4 437.46 4ZM437.31 34C437.76 34 438.01 33.7 438.01 33.2V9.8C438.01 9.3 437.76 9 437.31 9C436.81 9 436.56 9.3 436.56 9.8V33.2C436.56 33.7 436.81 34 437.31 34ZM452.09 0.149998H450.49C445.64 0.149998 443.89 3.15 443.49 6.65C443.39 7.8 443.34 9.15 443.34 10.45V33C443.34 33.65 443.59 34 444.09 34C444.54 34 444.79 33.65 444.79 33V13.95V10.45H448.84C449.24 10.45 449.54 10.15 449.54 9.7C449.54 9.3 449.24 9 448.84 9H444.84C444.84 7.75 444.89 7.25 444.94 6.6C445.44 3.45 446.94 1.55 450.44 1.55H452.09C452.44 1.55 452.79 1.25 452.79 0.849998C452.79 0.45 452.44 0.149998 452.09 0.149998ZM460.277 34C464.927 34 467.827 31.05 467.827 26.2V17.05C467.827 14.8 466.827 12.35 465.627 11.1C464.327 9.75 462.377 9 460.077 9C457.777 9 455.777 9.75 454.477 11.1C453.427 12.2 452.427 14.2 452.327 15.65C452.277 16.3 452.477 16.6 452.927 16.6C453.527 16.6 453.677 16.15 453.777 15.75C454.527 12.4 456.227 10.4 460.077 10.4C461.977 10.4 463.677 11 464.627 12.1C465.727 13.3 466.427 15.4 466.427 17.05V21.75C464.927 19.6 462.577 18.4 460.027 18.4C455.677 18.4 452.227 21.85 452.227 26.45C452.227 30.9 455.477 34 460.277 34ZM460.177 32.6C456.377 32.6 453.677 30.15 453.677 26.45C453.677 22.65 456.477 19.8 460.077 19.8C463.627 19.8 466.427 22.6 466.427 26.5C466.427 30.1 463.977 32.6 460.177 32.6ZM485.317 29.5C484.867 29.5 484.617 29.7 484.367 30.1C483.367 31.8 481.867 32.55 479.567 32.6C476.367 32.7 474.517 31.7 473.567 29.55C472.767 27.65 472.767 24.45 472.767 21.55C472.767 18.4 472.767 15.4 473.567 13.45C474.417 11.5 476.117 10.4 479.417 10.45C481.917 10.5 483.517 11.3 484.367 12.9C484.567 13.25 484.817 13.5 485.167 13.5C485.767 13.5 486.067 13.1 485.817 12.55C484.817 10.35 482.567 8.85 478.617 9C471.367 9.25 471.367 15.25 471.367 21.55C471.367 27.8 471.367 33.75 478.617 34C478.667 34 478.767 34 478.817 34H479.617C483.067 33.85 484.817 32.5 485.817 30.45C486.067 29.9 485.817 29.5 485.317 29.5ZM504.528 21.5C505.278 21.5 505.328 21.5 505.328 20.25C505.328 12.4 503.328 9 497.428 9C490.278 9 489.928 13.95 489.728 19.15C489.678 20 489.678 20.45 489.678 21.5C489.678 27.75 489.678 34 497.328 34C503.278 34 505.028 30.25 505.128 27.05C505.128 26.45 505.078 26.2 504.578 26.1C503.978 26 503.828 26.4 503.728 26.85C503.378 28.4 503.478 32.6 497.378 32.6C494.728 32.6 492.928 31.8 491.928 29.55C491.128 27.7 491.128 26.1 491.128 21.5H504.528ZM497.478 10.45C502.528 10.45 503.678 13.05 503.878 20.05H491.178C491.328 13 492.478 10.45 497.478 10.45ZM516.817 32.55C514.417 32.3 513.767 31.45 513.417 30.75C512.867 29.55 512.817 27.9 512.817 26.2V10.45H516.367C516.867 10.45 517.167 10.15 517.167 9.7C517.167 9.35 516.867 9 516.367 9H512.817V0.849998C512.817 0.45 512.517 0.149998 512.117 0.149998C511.667 0.149998 511.367 0.45 511.367 0.849998V9H508.917C508.417 9 508.117 9.35 508.117 9.7C508.117 10.15 508.417 10.45 508.917 10.45H511.367V25.55C511.367 27.85 511.317 29.85 512.067 31.55C512.717 33.05 514.967 34 516.767 34C517.317 34 517.617 33.8 517.617 33.4C517.617 32.85 517.317 32.6 516.817 32.55ZM535.729 21.5C536.479 21.5 536.529 21.5 536.529 20.25C536.529 12.4 534.529 9 528.629 9C521.479 9 521.129 13.95 520.929 19.15C520.879 20 520.879 20.45 520.879 21.5C520.879 27.75 520.879 34 528.529 34C534.479 34 536.229 30.25 536.329 27.05C536.329 26.45 536.279 26.2 535.779 26.1C535.179 26 535.029 26.4 534.929 26.85C534.579 28.4 534.679 32.6 528.579 32.6C525.929 32.6 524.129 31.8 523.129 29.55C522.329 27.7 522.329 26.1 522.329 21.5H535.729ZM528.679 10.45C533.729 10.45 534.879 13.05 535.079 20.05H522.379C522.529 13 523.679 10.45 528.679 10.45ZM555.018 0.149998C554.568 0.149998 554.268 0.45 554.268 0.849998V12.05C553.218 10.25 551.318 9 547.818 9C540.068 9 540.068 15.15 540.068 21.55C540.068 28 540.068 34 547.868 34C555.718 34 555.718 27.9 555.718 21.55V0.849998C555.718 0.45 555.418 0.149998 555.018 0.149998ZM553.318 29.5C552.418 31.7 550.468 32.55 547.818 32.55C544.868 32.55 543.168 31.55 542.318 29.5C541.568 27.6 541.518 25.05 541.518 21.4C541.518 17.75 541.568 15.4 542.318 13.5C543.168 11.35 545.068 10.45 547.818 10.45C550.468 10.45 552.418 11.3 553.318 13.5C554.068 15.4 554.118 17.9 554.118 21.6C554.118 25.3 554.068 27.65 553.318 29.5ZM580.508 0.149998H578.908C574.058 0.149998 572.308 3.15 571.908 6.65C571.808 7.8 571.758 9.15 571.758 10.45V33C571.758 33.65 572.008 34 572.508 34C572.958 34 573.208 33.65 573.208 33V13.95V10.45H577.258C577.658 10.45 577.958 10.15 577.958 9.7C577.958 9.3 577.658 9 577.258 9H573.258C573.258 7.75 573.308 7.25 573.358 6.6C573.858 3.45 575.358 1.55 578.858 1.55H580.508C580.858 1.55 581.208 1.25 581.208 0.849998C581.208 0.45 580.858 0.149998 580.508 0.149998ZM588.395 34C596.145 34 596.145 27.95 596.145 21.55C596.145 15.1 596.145 9 588.395 9C580.645 9 580.645 15.1 580.645 21.55C580.645 27.95 580.645 34 588.395 34ZM588.345 32.55C585.445 32.55 583.745 31.55 582.895 29.5C582.095 27.5 582.095 24.5 582.095 24.4C582.095 17.75 582.145 15.4 582.895 13.5C583.745 11.35 585.645 10.45 588.395 10.45C591.045 10.45 592.995 11.3 593.895 13.5C594.695 15.4 594.695 18.6 594.695 18.7C594.695 25.25 594.645 27.65 593.895 29.5C593.095 31.45 591.395 32.55 588.345 32.55ZM601.364 34C601.814 34 602.114 33.7 602.114 33.3V21.55C602.114 18.4 602.114 15.45 602.964 13.45C603.814 11.45 605.364 10.45 608.464 10.45C611.464 10.45 613.114 11.4 614.014 13.4C614.864 15.3 614.864 18.05 614.864 20.95V33.3C614.864 33.7 615.164 34 615.614 34C616.014 34 616.314 33.7 616.314 33.3V21.2C616.314 17.9 616.364 15 615.314 12.8C614.214 10.25 611.964 9 608.514 9C605.464 9 603.314 9.95 602.114 11.9V10C602.114 9.6 601.814 9.3 601.414 9.3C600.964 9.3 600.664 9.6 600.664 10V33.3C600.664 33.7 600.964 34 601.364 34ZM628.78 32.55C626.38 32.3 625.73 31.45 625.38 30.75C624.83 29.55 624.78 27.9 624.78 26.2V10.45H628.33C628.83 10.45 629.13 10.15 629.13 9.7C629.13 9.35 628.83 9 628.33 9H624.78V0.849998C624.78 0.45 624.48 0.149998 624.08 0.149998C623.63 0.149998 623.33 0.45 623.33 0.849998V9H620.88C620.38 9 620.08 9.35 620.08 9.7C620.08 10.15 620.38 10.45 620.88 10.45H623.33V25.55C623.33 27.85 623.28 29.85 624.03 31.55C624.68 33.05 626.93 34 628.73 34C629.28 34 629.58 33.8 629.58 33.4C629.58 32.85 629.28 32.6 628.78 32.55ZM9.2 78.55C6.8 78.3 6.15 77.45 5.8 76.75C5.25 75.55 5.2 73.9 5.2 72.2V56.45H8.75C9.25 56.45 9.55 56.15 9.55 55.7C9.55 55.35 9.25 55 8.75 55H5.2V46.85C5.2 46.45 4.9 46.15 4.5 46.15C4.05 46.15 3.75 46.45 3.75 46.85V55H1.3C0.8 55 0.5 55.35 0.5 55.7C0.5 56.15 0.8 56.45 1.3 56.45H3.75V71.55C3.75 73.85 3.7 75.85 4.45 77.55C5.1 79.05 7.35 80 9.15 80C9.7 80 10 79.8 10 79.4C10 78.85 9.7 78.6 9.2 78.55ZM28.4 58.8C27.3 56.2 25.15 55 21.6 55C18.2 55 16.35 56.1 15.2 57.95V46.95C15.2 46.45 14.95 46.15 14.5 46.15C14 46.15 13.75 46.45 13.75 46.95V79.2C13.75 79.7 14 80 14.45 80C14.9 80 15.2 79.7 15.2 79.2V67.5C15.2 64.45 15.2 61.5 16.05 59.45C16.9 57.35 18.5 56.4 21.5 56.4C24.6 56.4 26.35 57.4 27.15 59.4C27.9 61.35 27.9 64.05 27.9 66.95V79.2C27.9 79.7 28.15 80 28.6 80C29.05 80 29.35 79.7 29.35 79.2V66.95C29.35 63.9 29.35 61.05 28.4 58.8ZM41.9172 80C46.5672 80 49.4672 77.05 49.4672 72.2V63.05C49.4672 60.8 48.4672 58.35 47.2672 57.1C45.9672 55.75 44.0172 55 41.7172 55C39.4172 55 37.4172 55.75 36.1172 57.1C35.0672 58.2 34.0672 60.2 33.9672 61.65C33.9172 62.3 34.1172 62.6 34.5672 62.6C35.1672 62.6 35.3172 62.15 35.4172 61.75C36.1672 58.4 37.8672 56.4 41.7172 56.4C43.6172 56.4 45.3172 57 46.2672 58.1C47.3672 59.3 48.0672 61.4 48.0672 63.05V67.75C46.5672 65.6 44.2172 64.4 41.6672 64.4C37.3172 64.4 33.8672 67.85 33.8672 72.45C33.8672 76.9 37.1172 80 41.9172 80ZM41.8172 78.6C38.0172 78.6 35.3172 76.15 35.3172 72.45C35.3172 68.65 38.1172 65.8 41.7172 65.8C45.2672 65.8 48.0672 68.6 48.0672 72.5C48.0672 76.1 45.6172 78.6 41.8172 78.6ZM61.4461 78.55C59.0461 78.3 58.3961 77.45 58.0461 76.75C57.4961 75.55 57.4461 73.9 57.4461 72.2V56.45H60.9961C61.4961 56.45 61.7961 56.15 61.7961 55.7C61.7961 55.35 61.4961 55 60.9961 55H57.4461V46.85C57.4461 46.45 57.1461 46.15 56.7461 46.15C56.2961 46.15 55.9961 46.45 55.9961 46.85V55H53.5461C53.0461 55 52.7461 55.35 52.7461 55.7C52.7461 56.15 53.0461 56.45 53.5461 56.45H55.9961V71.55C55.9961 73.85 55.9461 75.85 56.6961 77.55C57.3461 79.05 59.5961 80 61.3961 80C61.9461 80 62.2461 79.8 62.2461 79.4C62.2461 78.85 61.9461 78.6 61.4461 78.55ZM77.5195 55.8V67.45C77.5195 73.85 77.5195 80 85.3195 80C88.7695 80 90.6195 78.8 91.7195 76.95V79.7C91.7195 85.95 91.5695 90.3 86.0195 90.3H82.8695C82.4695 90.3 82.1195 90.65 82.1195 91.05C82.1195 91.45 82.4695 91.8 82.8695 91.8H85.9695C90.5195 91.8 92.4695 89.25 92.9695 85.3C93.1695 83.7 93.1695 81.85 93.1695 79.7V55.8C93.1695 55.3 92.9195 55 92.4695 55C91.9695 55 91.7195 55.3 91.7195 55.8V67.45C91.7195 70.65 91.7195 73.5 90.8195 75.6C90.0195 77.45 88.5695 78.55 85.2695 78.55C82.3695 78.55 80.6695 77.7 79.8195 75.6C78.9695 73.5 78.9695 70.65 78.9695 67.45V55.8C78.9695 55.3 78.7195 55 78.2695 55C77.7695 55 77.5195 55.3 77.5195 55.8ZM105.68 80C113.43 80 113.43 73.95 113.43 67.55C113.43 61.1 113.43 55 105.68 55C97.9297 55 97.9297 61.1 97.9297 67.55C97.9297 73.95 97.9297 80 105.68 80ZM105.63 78.55C102.73 78.55 101.03 77.55 100.18 75.5C99.3797 73.5 99.3797 70.5 99.3797 70.4C99.3797 63.75 99.4297 61.4 100.18 59.5C101.03 57.35 102.93 56.45 105.68 56.45C108.33 56.45 110.28 57.3 111.18 59.5C111.98 61.4 111.98 64.6 111.98 64.7C111.98 71.25 111.93 73.65 111.18 75.5C110.38 77.45 108.68 78.55 105.63 78.55ZM132.849 55.35C132.399 55.35 132.149 55.65 132.149 56.15V67.45C132.149 70.65 132.099 73.5 131.199 75.6C130.249 77.85 128.499 78.55 125.799 78.55C122.349 78.55 121.049 77.4 120.299 75.6C119.449 73.5 119.399 70.65 119.399 67.45V56.15C119.399 55.65 119.199 55.35 118.749 55.35C118.249 55.35 117.949 55.65 117.949 56.15V67.45C117.949 73.85 117.949 80 125.749 80C133.599 80 133.599 73.85 133.599 67.45V56.15C133.599 55.65 133.299 55.35 132.849 55.35ZM141.315 55.35C141.265 55.3 141.265 55.2 141.265 55.15L139.415 46.75C139.315 46.3 139.015 46.05 138.565 46.15C138.115 46.25 137.965 46.6 138.065 47.1L139.615 54.1C138.865 54.2 138.265 54.85 138.265 55.6C138.265 56.45 138.965 57.15 139.765 57.15C140.615 57.15 141.315 56.45 141.315 55.6V55.35ZM149.223 78.55C147.073 78.35 146.373 77.35 146.023 76.65C145.523 75.5 145.473 73.9 145.473 72.15V46.95C145.473 46.45 145.223 46.15 144.773 46.15C144.323 46.15 144.023 46.45 144.023 46.95V71.4C144.023 73.6 143.973 75.75 144.823 77.35C145.573 79 147.023 79.85 149.173 80C149.723 80.05 150.023 79.8 150.023 79.3C150.023 78.85 149.723 78.6 149.223 78.55ZM158.989 78.55C156.839 78.35 156.139 77.35 155.789 76.65C155.289 75.5 155.239 73.9 155.239 72.15V46.95C155.239 46.45 154.989 46.15 154.539 46.15C154.089 46.15 153.789 46.45 153.789 46.95V71.4C153.789 73.6 153.739 75.75 154.589 77.35C155.339 79 156.789 79.85 158.939 80C159.489 80.05 159.789 79.8 159.789 79.3C159.789 78.85 159.489 78.6 158.989 78.55ZM180.278 78.55C178.128 78.35 177.428 77.35 177.078 76.65C176.578 75.5 176.528 73.9 176.528 72.15V46.95C176.528 46.45 176.278 46.15 175.828 46.15C175.378 46.15 175.078 46.45 175.078 46.95V71.4C175.078 73.6 175.028 75.75 175.878 77.35C176.628 79 178.078 79.85 180.228 80C180.778 80.05 181.078 79.8 181.078 79.3C181.078 78.85 180.778 78.6 180.278 78.55ZM191.08 80C198.83 80 198.83 73.95 198.83 67.55C198.83 61.1 198.83 55 191.08 55C183.33 55 183.33 61.1 183.33 67.55C183.33 73.95 183.33 80 191.08 80ZM191.03 78.55C188.13 78.55 186.43 77.55 185.58 75.5C184.78 73.5 184.78 70.5 184.78 70.4C184.78 63.75 184.83 61.4 185.58 59.5C186.43 57.35 188.33 56.45 191.08 56.45C193.73 56.45 195.68 57.3 196.58 59.5C197.38 61.4 197.38 64.6 197.38 64.7C197.38 71.25 197.33 73.65 196.58 75.5C195.78 77.45 194.08 78.55 191.03 78.55ZM217.236 55C216.936 55 216.636 55.15 216.536 55.5L209.936 77.65L203.336 55.5C203.236 55.15 202.936 55 202.636 55C202.086 55 201.736 55.45 201.886 55.95L208.936 79.2C209.086 79.7 209.486 80 209.936 80C210.386 80 210.786 79.7 210.936 79.2L217.986 55.95C218.086 55.5 217.736 55 217.236 55ZM235.827 67.5C236.577 67.5 236.627 67.5 236.627 66.25C236.627 58.4 234.627 55 228.727 55C221.577 55 221.227 59.95 221.027 65.15C220.977 66 220.977 66.45 220.977 67.5C220.977 73.75 220.977 80 228.627 80C234.577 80 236.327 76.25 236.427 73.05C236.427 72.45 236.377 72.2 235.877 72.1C235.277 72 235.127 72.4 235.027 72.85C234.677 74.4 234.777 78.6 228.677 78.6C226.027 78.6 224.227 77.8 223.227 75.55C222.427 73.7 222.427 72.1 222.427 67.5H235.827ZM228.777 56.45C233.827 56.45 234.977 59.05 235.177 66.05H222.477C222.627 59 223.777 56.45 228.777 56.45ZM267.566 55.35C267.116 55.35 266.866 55.65 266.866 56.15V67.45C266.866 70.65 266.816 73.5 265.916 75.6C264.966 77.85 263.216 78.55 260.516 78.55C257.066 78.55 255.766 77.4 255.016 75.6C254.166 73.5 254.116 70.65 254.116 67.45V56.15C254.116 55.65 253.916 55.35 253.466 55.35C252.966 55.35 252.666 55.65 252.666 56.15V67.45C252.666 73.85 252.666 80 260.466 80C268.316 80 268.316 73.85 268.316 67.45V56.15C268.316 55.65 268.016 55.35 267.566 55.35ZM279.732 80C284.382 80 286.982 77.1 286.982 73.45C286.982 68.35 281.832 67.2 279.682 66.65C276.482 65.85 273.682 64.65 273.682 61.6C273.682 58.45 276.532 56.45 279.832 56.45C282.582 56.45 284.732 57.9 285.382 60.35C285.582 61.35 286.882 61.35 286.882 60.2C286.232 57.25 283.882 55 279.832 55C275.232 55 272.132 57.9 272.132 61.5C272.132 65.35 275.682 67.3 279.382 68C282.932 68.8 285.532 70.45 285.532 73.5C285.532 76.35 283.232 78.55 279.782 78.55C276.682 78.55 274.232 76.8 273.682 74.65C273.482 73.65 272.032 73.25 272.132 74.65C272.232 76.2 274.432 80 279.732 80ZM292.196 50C292.996 50 293.696 49.3 293.696 48.45C293.696 47.65 292.996 46.95 292.196 46.95C291.346 46.95 290.646 47.65 290.646 48.45C290.646 49.3 291.346 50 292.196 50ZM292.046 80C292.496 80 292.746 79.7 292.746 79.2V55.8C292.746 55.3 292.496 55 292.046 55C291.546 55 291.296 55.3 291.296 55.8V79.2C291.296 79.7 291.546 80 292.046 80ZM300.046 80C300.496 80 300.796 79.7 300.796 79.3V67.55C300.796 64.4 300.796 61.45 301.646 59.45C302.496 57.45 304.046 56.45 307.146 56.45C310.146 56.45 311.796 57.4 312.696 59.4C313.546 61.3 313.546 64.05 313.546 66.95V79.3C313.546 79.7 313.846 80 314.296 80C314.696 80 314.996 79.7 314.996 79.3V67.2C314.996 63.9 315.046 61 313.996 58.8C312.896 56.25 310.646 55 307.196 55C304.146 55 301.996 55.95 300.796 57.9V56C300.796 55.6 300.496 55.3 300.096 55.3C299.646 55.3 299.346 55.6 299.346 56V79.3C299.346 79.7 299.646 80 300.046 80ZM327.262 55C319.512 55 319.512 61.1 319.512 67.55C319.512 73.95 319.512 80 327.262 80C330.612 80 332.512 78.85 333.612 77.05L333.562 80C333.512 85.3 333.362 88.8 330.762 90.1C329.512 90.7 328.712 90.65 324.712 90.65C324.312 90.65 323.962 91 323.962 91.4C323.962 91.8 324.312 92.15 324.712 92.15H327.812C332.362 92.15 334.312 89.6 334.812 85.65C335.012 84.05 335.012 82.2 335.012 80V67.55C335.012 61.1 335.012 55 327.262 55ZM327.262 78.6C324.312 78.6 322.562 77.6 321.712 75.55C320.962 73.65 320.912 71.05 320.912 67.4C320.912 63.75 320.962 61.35 321.712 59.45C322.612 57.2 324.662 56.45 327.262 56.45C329.912 56.45 331.912 57.25 332.812 59.45C333.562 61.3 333.612 64 333.612 67.65C333.612 71.3 333.562 73.7 332.812 75.55C331.912 77.75 329.912 78.6 327.262 78.6ZM340.231 80C341.031 80 341.731 79.3 341.731 78.45C341.731 77.65 341.031 76.95 340.231 76.95C339.381 76.95 338.681 77.65 338.681 78.45C338.681 79.3 339.381 80 340.231 80Z" fill="currentColor"/>
</svg>
