<svg viewBox="0 0 32 45" fill="none" xmlns="http://www.w3.org/2000/svg">
<path d="M21.75 21.45L30.8 9.95C31.2 9.45 31.05 9 30.4 9H18.95H15.9V0.849998C15.9 0.45 15.6 0.149998 15.2 0.149998C14.75 0.149998 14.45 0.45 14.45 0.849998V12.05C13.4 10.25 11.5 9 8 9C0.25 9 0.25 15.15 0.25 21.55C0.25 28 0.25 34 8.05 34C15.9 34 15.9 27.9 15.9 21.55V10.45H17.05H28.6L19.55 21.95C19.15 22.45 19.3 22.9 19.95 22.9C26.45 22.7 27.75 22.95 29.05 25.9C29.85 27.85 29.85 30.85 29.85 34C29.85 35.4 29.85 38.3 29.05 40.3C28.15 42.35 26.45 43.35 23.5 43.35C20.85 43.35 19.15 42.5 18.25 40.85C18 40.45 17.75 40.25 17.3 40.25C16.8 40.25 16.55 40.65 16.8 41.2C17.85 43.35 19.75 44.75 23.5 44.75C31.25 44.75 31.25 38.7 31.25 34C31.25 23.95 30.05 21.15 21.75 21.45ZM13.5 29.5C12.6 31.7 10.65 32.55 8 32.55C5.05 32.55 3.35 31.55 2.5 29.5C1.75 27.6 1.7 25.05 1.7 21.4C1.7 17.75 1.75 15.4 2.5 13.5C3.35 11.35 5.25 10.45 8 10.45C10.65 10.45 12.6 11.3 13.5 13.5C14.25 15.4 14.3 17.9 14.3 21.6C14.3 25.3 14.25 27.65 13.5 29.5Z" fill="currentColor"/>
</svg>
