<svg  viewBox="0 0 158 38" fill="none" xmlns="http://www.w3.org/2000/svg">
<path d="M29.45 25.5C30.2 25.5 30.25 25.5 30.25 24.25C30.25 16.4 28.25 13 22.35 13C17.8 13 16 15 15.25 17.8C14.85 16.7 14.25 15.75 13.65 15.1C12.35 13.75 10.4 13 8.1 13C5.8 13 3.8 13.75 2.5 15.1C1.45 16.2 0.45 18.2 0.35 19.65C0.3 20.3 0.5 20.6 0.95 20.6C1.55 20.6 1.7 20.15 1.8 19.75C2.55 16.4 4.25 14.4 8.1 14.4C10 14.4 11.7 15 12.65 16.1C13.75 17.3 14.45 19.4 14.45 21.05V25.75C12.95 23.6 10.6 22.4 8.05 22.4C3.7 22.4 0.25 25.85 0.25 30.45C0.25 34.9 3.5 38 8.3 38C11.8 38 14.3 36.35 15.35 33.45C16.2 36.15 18.1 38 22.25 38C28.2 38 29.95 34.25 30.05 31.05C30.05 30.45 30 30.2 29.5 30.1C28.9 30 28.75 30.4 28.65 30.85C28.3 32.4 28.4 36.6 22.3 36.6C19.65 36.6 17.85 35.8 16.85 33.55C16.05 31.7 16.05 30.1 16.05 25.5H29.45ZM22.4 14.45C27.45 14.45 28.6 17.05 28.8 24.05H16.1C16.25 17 17.4 14.45 22.4 14.45ZM8.2 36.6C4.4 36.6 1.7 34.15 1.7 30.45C1.7 26.65 4.5 23.8 8.1 23.8C11.65 23.8 14.45 26.6 14.45 30.5C14.45 34.1 12 36.6 8.2 36.6ZM78.4449 25.5C79.1949 25.5 79.2449 25.5 79.2449 24.25C79.2449 16.4 77.2449 13 71.3449 13C66.6949 13 64.9449 15.1 64.1949 17.95C63.3949 15 61.4949 13 57.0449 13C49.2949 13 49.2949 19.1 49.2949 25.55C49.2949 31.95 49.2949 38 57.0449 38C61.4949 38 63.3949 36 64.1949 33.05C64.9949 35.95 66.8949 38 71.2449 38C77.1949 38 78.9449 34.25 79.0449 31.05C79.0449 30.45 78.9949 30.2 78.4949 30.1C77.8949 30 77.7449 30.4 77.6449 30.85C77.2949 32.4 77.3949 36.6 71.2949 36.6C68.6449 36.6 66.8449 35.8 65.8449 33.55C65.0449 31.7 65.0449 30.1 65.0449 25.5H78.4449ZM62.5449 33.5C61.7449 35.45 60.0449 36.55 56.9949 36.55C54.0949 36.55 52.3949 35.55 51.5449 33.5C50.7449 31.5 50.7449 28.5 50.7449 28.4C50.7449 21.75 50.7949 19.4 51.5449 17.5C52.3949 15.35 54.2949 14.45 57.0449 14.45C59.6949 14.45 61.6449 15.3 62.5449 17.5C63.3449 19.4 63.3449 22.6 63.3449 22.7C63.3449 29.25 63.2949 31.65 62.5449 33.5ZM71.3949 14.45C76.4449 14.45 77.5949 17.05 77.7949 24.05H65.0949C65.2449 17 66.3949 14.45 71.3949 14.45ZM101.841 8.6C102.241 8.8 102.641 8.65 102.891 8.25L106.241 2.3L109.541 8.25C109.791 8.65 110.191 8.8 110.591 8.6C110.941 8.35 111.041 7.95 110.791 7.5L106.891 0.549999L106.841 0.499997C106.791 0.399998 106.691 0.3 106.591 0.199998C106.441 0.149999 106.341 0.0999992 106.241 0.0999992C106.091 0.0999992 105.991 0.149999 105.841 0.199998C105.741 0.3 105.641 0.399998 105.591 0.499997L105.541 0.549999L101.641 7.5C101.391 7.95 101.491 8.35 101.841 8.6ZM111.691 15.1C110.391 13.75 108.441 13 106.141 13C103.841 13 101.841 13.75 100.541 15.1C99.491 16.2 98.491 18.2 98.391 19.65C98.341 20.3 98.541 20.6 98.991 20.6C99.591 20.6 99.741 20.15 99.841 19.75C100.591 16.4 102.291 14.4 106.141 14.4C108.041 14.4 109.741 15 110.691 16.1C111.791 17.3 112.491 19.4 112.491 21.05V25.75C110.991 23.6 108.641 22.4 106.091 22.4C101.741 22.4 98.291 25.85 98.291 30.45C98.291 34.9 101.541 38 106.341 38C110.991 38 113.891 35.05 113.891 30.2V21.05C113.891 18.8 112.891 16.35 111.691 15.1ZM106.241 36.6C102.441 36.6 99.741 34.15 99.741 30.45C99.741 26.65 102.541 23.8 106.141 23.8C109.691 23.8 112.491 26.6 112.491 30.5C112.491 34.1 110.041 36.6 106.241 36.6ZM157.282 36.55H138.832L138.882 17.75L144.282 14.55C144.532 14.4 144.632 14.2 144.632 13.95C144.632 13.55 144.332 13.2 143.932 13.2C143.782 13.2 143.682 13.25 143.582 13.3L138.882 16.1V4.85C138.882 4.45 138.532 4.15 138.132 4.15C137.732 4.15 137.432 4.45 137.432 4.85V17L133.282 19.45C133.082 19.6 132.932 19.8 132.932 20.05C132.932 20.45 133.232 20.75 133.632 20.75C133.732 20.75 133.882 20.7 133.982 20.65L137.432 18.6L137.382 36.85C137.382 37.65 137.732 38 138.532 38H157.282C157.682 38 157.982 37.7 157.982 37.25C157.982 36.85 157.682 36.55 157.282 36.55Z" fill="currentColor"/>
</svg>
