<svg  viewBox="0 0 29 41" fill="none" xmlns="http://www.w3.org/2000/svg">
<path d="M22.65 8.6L26.55 2.4C26.9 1.85 26.9 1.45 26.45 1.2C25.95 0.899998 25.55 1.15 25.2 1.75L21.45 7.8C19.35 6.6 16.9 5.95 14.2 5.9C6.05 6 0.3 11.8 0.3 20.45C0.3 25.75 2.45 30 6 32.5L1.75 39.3C1.45 39.8 1.5 40.15 1.95 40.4C2.3 40.6 2.7 40.45 2.95 40L7.2 33.25C9.2 34.35 11.6 34.95 14.2 35C22.35 34.9 28.1 29.1 28.1 20.45C28.1 15.3 26.05 11.15 22.65 8.6ZM1.85 20.45C1.85 13.3 6.5 7.35 14.2 7.35C16.7 7.35 18.85 7.95 20.65 9.05L6.8 31.2C3.65 28.85 1.85 24.85 1.85 20.45ZM14.2 33.55C11.8 33.55 9.75 33 8 32L21.85 9.9C24.85 12.3 26.55 16.15 26.55 20.45C26.55 27.6 21.9 33.55 14.2 33.55Z" fill="currentColor"/>
</svg>
