<svg viewBox="0 0 156 21" fill="none" xmlns="http://www.w3.org/2000/svg">
<path d="M4.572 1.38C3.756 0.816 3.264 0.875999 0.732 0.875999C0.612 0.875999 0.54 0.948 0.54 1.068V8.808C0.54 8.928 0.612 9 0.732 9C3.264 9 3.756 9.06 4.572 8.496C5.844 7.596 5.844 5.652 5.844 4.944C5.844 4.224 5.844 2.28 4.572 1.38ZM4.356 8.22C3.696 8.712 3.216 8.652 0.888 8.652V1.224C3.216 1.224 3.696 1.164 4.356 1.656C5.532 2.496 5.496 4.32 5.496 4.944C5.496 5.556 5.532 7.38 4.356 8.22ZM7.21472 1.8C7.40672 1.8 7.57472 1.632 7.57472 1.428C7.57472 1.236 7.40672 1.068 7.21472 1.068C7.01072 1.068 6.84272 1.236 6.84272 1.428C6.84272 1.632 7.01072 1.8 7.21472 1.8ZM7.17872 9C7.28672 9 7.34672 8.928 7.34672 8.808V3.192C7.34672 3.072 7.28672 3 7.17872 3C7.05872 3 6.99872 3.072 6.99872 3.192V8.808C6.99872 8.928 7.05872 9 7.17872 9ZM12.1899 6C12.3699 6 12.3819 6 12.3819 5.7C12.3819 3.816 11.9019 3 10.4859 3C8.76994 3 8.68594 4.188 8.63794 5.436C8.62594 5.64 8.62594 5.748 8.62594 6C8.62594 7.5 8.62594 9 10.4619 9C11.8899 9 12.3099 8.1 12.3339 7.332C12.3339 7.188 12.3219 7.128 12.2019 7.104C12.0579 7.08 12.0219 7.176 11.9979 7.284C11.9139 7.656 11.9379 8.664 10.4739 8.664C9.83794 8.664 9.40594 8.472 9.16594 7.932C8.97394 7.488 8.97394 7.104 8.97394 6H12.1899ZM10.4979 3.348C11.7099 3.348 11.9859 3.972 12.0339 5.652H8.98594C9.02194 3.96 9.29794 3.348 10.4979 3.348ZM21.3914 4.692H19.2314C19.1354 4.692 19.0634 4.764 19.0634 4.872C19.0634 4.968 19.1354 5.04 19.2314 5.04H21.2354C21.2354 5.4 21.2234 6.336 20.8994 7.188C20.5634 8.196 19.9154 8.652 18.8954 8.652C16.9154 8.652 16.5674 7.008 16.5674 4.764C16.5674 3.132 16.8194 1.224 18.8954 1.224C19.9274 1.224 20.5634 1.668 20.9114 2.628C20.9474 2.748 21.0314 2.796 21.1274 2.76C21.2234 2.724 21.2474 2.64 21.2114 2.52C20.8274 1.428 20.0594 0.875999 18.8954 0.875999C16.5674 0.875999 16.2314 2.964 16.2314 4.764C16.2314 6.924 16.5674 9 18.8954 9C20.0354 9 20.8394 8.472 21.2354 7.308C21.5474 6.432 21.5714 5.196 21.5714 5.04V4.848C21.5714 4.728 21.4994 4.692 21.3914 4.692ZM25.8573 3.528C25.7613 3.396 25.5093 3.216 25.2213 3.108C24.4053 2.808 23.3853 3.036 22.9893 3.72V3.204C22.9893 3.084 22.9293 3.012 22.8213 3.012C22.7133 3.012 22.6533 3.084 22.6533 3.204V8.808C22.6533 8.94 22.7013 9 22.8093 9C22.9173 9 23.0013 8.928 23.0013 8.808V6.012C23.0013 5.904 22.9773 5.064 23.0493 4.62C23.1573 3.96 23.3733 3.324 24.5133 3.324C24.9453 3.324 25.2453 3.456 25.5453 3.732C25.6293 3.816 25.7373 3.9 25.8453 3.816C25.9173 3.768 25.9533 3.66 25.8573 3.528ZM29.9673 6C30.1473 6 30.1593 6 30.1593 5.7C30.1593 3.816 29.6793 3 28.2633 3C26.5473 3 26.4633 4.188 26.4153 5.436C26.4033 5.64 26.4033 5.748 26.4033 6C26.4033 7.5 26.4033 9 28.2393 9C29.6673 9 30.0873 8.1 30.1113 7.332C30.1113 7.188 30.0993 7.128 29.9793 7.104C29.8353 7.08 29.7993 7.176 29.7753 7.284C29.6913 7.656 29.7153 8.664 28.2513 8.664C27.6153 8.664 27.1833 8.472 26.9433 7.932C26.7513 7.488 26.7513 7.104 26.7513 6H29.9673ZM28.2753 3.348C29.4873 3.348 29.7633 3.972 29.8113 5.652H26.7633C26.7993 3.96 27.0753 3.348 28.2753 3.348ZM31.4111 9C31.5191 9 31.5911 8.928 31.5911 8.832V6.012C31.5911 5.256 31.5911 4.548 31.7951 4.068C31.9991 3.588 32.3711 3.348 33.1151 3.348C33.8351 3.348 34.2311 3.576 34.4471 4.056C34.6511 4.512 34.6511 5.172 34.6511 5.868V8.832C34.6511 8.928 34.7231 9 34.8311 9C34.9271 9 34.9991 8.928 34.9991 8.832V5.928C34.9991 5.136 35.0111 4.44 34.7591 3.912C34.4951 3.3 33.9551 3 33.1271 3C32.3951 3 31.8791 3.228 31.5911 3.696V3.24C31.5911 3.144 31.5191 3.072 31.4231 3.072C31.3151 3.072 31.2431 3.144 31.2431 3.24V8.832C31.2431 8.928 31.3151 9 31.4111 9ZM36.227 9H39.503C39.623 9 39.695 8.94 39.695 8.82C39.695 8.712 39.623 8.652 39.503 8.652H36.563L39.851 3.228C39.935 3.096 39.875 3 39.719 3H36.455C36.335 3 36.263 3.06 36.263 3.156C36.263 3.276 36.335 3.348 36.455 3.348H39.383L36.107 8.772C36.023 8.904 36.083 9 36.227 9ZM44.2876 6C44.4676 6 44.4796 6 44.4796 5.7C44.4796 3.816 43.9996 3 42.5836 3C40.8676 3 40.7836 4.188 40.7356 5.436C40.7236 5.64 40.7236 5.748 40.7236 6C40.7236 7.5 40.7236 9 42.5596 9C43.9876 9 44.4076 8.1 44.4316 7.332C44.4316 7.188 44.4196 7.128 44.2996 7.104C44.1556 7.08 44.1196 7.176 44.0956 7.284C44.0116 7.656 44.0356 8.664 42.5716 8.664C41.9356 8.664 41.5036 8.472 41.2636 7.932C41.0716 7.488 41.0716 7.104 41.0716 6H44.2876ZM42.5956 3.348C43.8076 3.348 44.0836 3.972 44.1316 5.652H41.0836C41.1196 3.96 41.3956 3.348 42.5956 3.348ZM45.7314 9C45.8394 9 45.9114 8.928 45.9114 8.832V6.012C45.9114 5.256 45.9114 4.548 46.1154 4.068C46.3194 3.588 46.6914 3.348 47.4354 3.348C48.1554 3.348 48.5514 3.576 48.7674 4.056C48.9714 4.512 48.9714 5.172 48.9714 5.868V8.832C48.9714 8.928 49.0434 9 49.1514 9C49.2474 9 49.3194 8.928 49.3194 8.832V5.928C49.3194 5.136 49.3314 4.44 49.0794 3.912C48.8154 3.3 48.2754 3 47.4474 3C46.7154 3 46.1994 3.228 45.9114 3.696V3.24C45.9114 3.144 45.8394 3.072 45.7434 3.072C45.6354 3.072 45.5634 3.144 45.5634 3.24V8.832C45.5634 8.928 45.6354 9 45.7314 9ZM60.0569 3.912C59.7689 3.276 59.2649 2.988 58.4249 2.988C57.4889 2.988 57.0449 3.3 56.7329 4.044C56.4329 3.336 56.0009 3 55.0529 3C54.3209 3 53.8049 3.228 53.5169 3.696V3.24C53.5169 3.144 53.4449 3.072 53.3489 3.072C53.2409 3.072 53.1689 3.144 53.1689 3.24V8.832C53.1689 8.928 53.2409 9 53.3369 9C53.4449 9 53.5169 8.928 53.5169 8.832V6.012C53.5169 5.256 53.5169 4.548 53.7209 4.068C53.9249 3.588 54.2969 3.348 55.0409 3.348C55.7609 3.348 56.1569 3.576 56.3729 4.056C56.5769 4.512 56.5769 5.172 56.5769 5.868V8.832C56.5769 8.928 56.6489 9 56.7569 9C56.8529 9 56.9249 8.928 56.9249 8.832V5.928C56.9249 5.172 56.9249 4.512 57.1049 4.044C57.3089 3.528 57.7649 3.348 58.4249 3.348C59.1089 3.348 59.5169 3.54 59.7329 4.044C59.9369 4.512 59.9489 5.16 59.9489 5.856V8.832C59.9489 8.928 60.0209 9 60.1289 9C60.2249 9 60.2969 8.928 60.2969 8.832V5.856C60.2969 5.124 60.2969 4.44 60.0569 3.912ZM64.936 6C65.116 6 65.128 6 65.128 5.7C65.128 3.816 64.648 3 63.232 3C61.516 3 61.432 4.188 61.384 5.436C61.372 5.64 61.372 5.748 61.372 6C61.372 7.5 61.372 9 63.208 9C64.636 9 65.056 8.1 65.08 7.332C65.08 7.188 65.068 7.128 64.948 7.104C64.804 7.08 64.768 7.176 64.744 7.284C64.66 7.656 64.684 8.664 63.22 8.664C62.584 8.664 62.152 8.472 61.912 7.932C61.72 7.488 61.72 7.104 61.72 6H64.936ZM63.244 3.348C64.456 3.348 64.732 3.972 64.78 5.652H61.732C61.768 3.96 62.044 3.348 63.244 3.348ZM66.4999 1.8C66.6919 1.8 66.8599 1.632 66.8599 1.428C66.8599 1.236 66.6919 1.068 66.4999 1.068C66.2959 1.068 66.1279 1.236 66.1279 1.428C66.1279 1.632 66.2959 1.8 66.4999 1.8ZM66.4639 9C66.5719 9 66.6319 8.928 66.6319 8.808V3.192C66.6319 3.072 66.5719 3 66.4639 3C66.3439 3 66.2839 3.072 66.2839 3.192V8.808C66.2839 8.928 66.3439 9 66.4639 9ZM68.3838 9C68.4918 9 68.5638 8.928 68.5638 8.832V6.012C68.5638 5.256 68.5638 4.548 68.7678 4.068C68.9718 3.588 69.3438 3.348 70.0878 3.348C70.8078 3.348 71.2038 3.576 71.4198 4.056C71.6238 4.512 71.6238 5.172 71.6238 5.868V8.832C71.6238 8.928 71.6958 9 71.8038 9C71.8998 9 71.9718 8.928 71.9718 8.832V5.928C71.9718 5.136 71.9838 4.44 71.7318 3.912C71.4678 3.3 70.9278 3 70.0998 3C69.3678 3 68.8518 3.228 68.5638 3.696V3.24C68.5638 3.144 68.4918 3.072 68.3958 3.072C68.2878 3.072 68.2158 3.144 68.2158 3.24V8.832C68.2158 8.928 68.2878 9 68.3838 9ZM76.6196 6C76.7996 6 76.8116 6 76.8116 5.7C76.8116 3.816 76.3316 3 74.9156 3C73.1996 3 73.1156 4.188 73.0676 5.436C73.0556 5.64 73.0556 5.748 73.0556 6C73.0556 7.5 73.0556 9 74.8916 9C76.3196 9 76.7396 8.1 76.7636 7.332C76.7636 7.188 76.7516 7.128 76.6316 7.104C76.4876 7.08 76.4516 7.176 76.4276 7.284C76.3436 7.656 76.3676 8.664 74.9036 8.664C74.2676 8.664 73.8356 8.472 73.5956 7.932C73.4036 7.488 73.4036 7.104 73.4036 6H76.6196ZM74.9276 3.348C76.1396 3.348 76.4156 3.972 76.4636 5.652H73.4156C73.4516 3.96 73.7276 3.348 74.9276 3.348ZM81.0995 3.528C81.0035 3.396 80.7515 3.216 80.4635 3.108C79.6475 2.808 78.6275 3.036 78.2315 3.72V3.204C78.2315 3.084 78.1715 3.012 78.0635 3.012C77.9555 3.012 77.8955 3.084 77.8955 3.204V8.808C77.8955 8.94 77.9435 9 78.0515 9C78.1595 9 78.2435 8.928 78.2435 8.808V6.012C78.2435 5.904 78.2195 5.064 78.2915 4.62C78.3995 3.96 78.6155 3.324 79.7555 3.324C80.1875 3.324 80.4875 3.456 80.7875 3.732C80.8715 3.816 80.9795 3.9 81.0875 3.816C81.1595 3.768 81.1955 3.66 81.0995 3.528ZM86.3906 4.8C85.1546 4.44 84.2906 4.14 84.2666 3.048C84.2306 1.752 85.3946 1.188 86.5706 1.224C87.4226 1.26 88.0586 1.416 88.5266 2.22C88.5506 2.268 88.6106 2.316 88.6826 2.316C88.7786 2.316 88.8506 2.232 88.8506 2.136C88.8506 2.1 88.8386 2.088 88.8266 2.052C88.2986 1.152 87.5306 0.912 86.5826 0.875999C85.2026 0.827999 83.8706 1.56 83.9306 3.06C83.9786 4.368 84.9146 4.728 86.2826 5.136C87.6986 5.556 88.6226 5.736 88.5746 6.924C88.5386 8.004 87.6026 8.688 86.3066 8.64C85.5266 8.604 84.8306 8.244 84.4106 7.596C84.3866 7.548 84.3266 7.512 84.2666 7.512C84.1706 7.512 84.0986 7.596 84.0986 7.692C84.0986 7.716 84.1106 7.752 84.1226 7.776C84.5906 8.544 85.4066 8.964 86.2946 9C87.7826 9.048 88.8746 8.22 88.9226 6.936C88.9826 5.424 87.6266 5.16 86.3906 4.8ZM91.8849 3C90.0009 3 90.0009 4.464 90.0009 5.988V10.956C90.0009 11.052 90.0729 11.124 90.1689 11.124C90.2769 11.124 90.3489 11.052 90.3489 10.956V8.268C90.6009 8.7 91.0569 9 91.8969 9C93.7569 9 93.7569 7.524 93.7569 5.988C93.7569 4.44 93.7569 3 91.8849 3ZM93.2169 7.92C93.0129 8.436 92.5569 8.652 91.8969 8.652C91.2609 8.652 90.7929 8.448 90.5769 7.92C90.3969 7.464 90.3849 6.864 90.3849 5.976C90.3849 5.088 90.3969 4.524 90.5769 4.08C90.7929 3.552 91.2609 3.348 91.8969 3.348C92.6049 3.348 93.0129 3.588 93.2169 4.08C93.3969 4.536 93.4089 5.148 93.4089 6.024C93.4089 6.9 93.3969 7.464 93.2169 7.92ZM98.0448 3.528C97.9488 3.396 97.6968 3.216 97.4088 3.108C96.5928 2.808 95.5728 3.036 95.1768 3.72V3.204C95.1768 3.084 95.1168 3.012 95.0088 3.012C94.9008 3.012 94.8408 3.084 94.8408 3.204V8.808C94.8408 8.94 94.8888 9 94.9968 9C95.1048 9 95.1888 8.928 95.1888 8.808V6.012C95.1888 5.904 95.1648 5.064 95.2368 4.62C95.3448 3.96 95.5608 3.324 96.7008 3.324C97.1328 3.324 97.4328 3.456 97.7328 3.732C97.8168 3.816 97.9248 3.9 98.0328 3.816C98.1048 3.768 98.1408 3.66 98.0448 3.528ZM100.652 9C101.768 9 102.464 8.292 102.464 7.128V4.932C102.464 4.392 102.224 3.804 101.936 3.504C101.624 3.18 101.156 3 100.604 3C100.052 3 99.5717 3.18 99.2597 3.504C99.0077 3.768 98.7677 4.248 98.7437 4.596C98.7317 4.752 98.7797 4.824 98.8877 4.824C99.0317 4.824 99.0677 4.716 99.0917 4.62C99.2717 3.816 99.6797 3.336 100.604 3.336C101.06 3.336 101.468 3.48 101.696 3.744C101.96 4.032 102.128 4.536 102.128 4.932V6.06C101.768 5.544 101.204 5.256 100.592 5.256C99.5477 5.256 98.7197 6.084 98.7197 7.188C98.7197 8.256 99.4997 9 100.652 9ZM100.628 8.664C99.7157 8.664 99.0677 8.076 99.0677 7.188C99.0677 6.276 99.7397 5.592 100.604 5.592C101.456 5.592 102.128 6.264 102.128 7.2C102.128 8.064 101.54 8.664 100.628 8.664ZM106.661 7.92C106.553 7.92 106.493 7.968 106.433 8.064C106.193 8.472 105.833 8.652 105.281 8.664C104.513 8.688 104.069 8.448 103.841 7.932C103.649 7.476 103.649 6.708 103.649 6.012C103.649 5.256 103.649 4.536 103.841 4.068C104.045 3.6 104.453 3.336 105.245 3.348C105.845 3.36 106.229 3.552 106.433 3.936C106.481 4.02 106.541 4.08 106.625 4.08C106.769 4.08 106.841 3.984 106.781 3.852C106.541 3.324 106.001 2.964 105.053 3C103.313 3.06 103.313 4.5 103.313 6.012C103.313 7.512 103.313 8.94 105.053 9C105.065 9 105.089 9 105.101 9H105.293C106.121 8.964 106.541 8.64 106.781 8.148C106.841 8.016 106.781 7.92 106.661 7.92ZM111.458 3.912C111.194 3.288 110.678 3 109.826 3C109.01 3 108.566 3.264 108.29 3.708V1.068C108.29 0.948 108.23 0.875999 108.122 0.875999C108.002 0.875999 107.942 0.948 107.942 1.068V8.808C107.942 8.928 108.002 9 108.11 9C108.218 9 108.29 8.928 108.29 8.808V6C108.29 5.268 108.29 4.56 108.494 4.068C108.698 3.564 109.082 3.336 109.802 3.336C110.546 3.336 110.966 3.576 111.158 4.056C111.338 4.524 111.338 5.172 111.338 5.868V8.808C111.338 8.928 111.398 9 111.506 9C111.614 9 111.686 8.928 111.686 8.808V5.868C111.686 5.136 111.686 4.452 111.458 3.912ZM116.334 6C116.514 6 116.526 6 116.526 5.7C116.526 3.816 116.046 3 114.63 3C112.914 3 112.83 4.188 112.782 5.436C112.77 5.64 112.77 5.748 112.77 6C112.77 7.5 112.77 9 114.606 9C116.034 9 116.454 8.1 116.478 7.332C116.478 7.188 116.466 7.128 116.346 7.104C116.202 7.08 116.166 7.176 116.142 7.284C116.058 7.656 116.082 8.664 114.618 8.664C113.982 8.664 113.55 8.472 113.31 7.932C113.118 7.488 113.118 7.104 113.118 6H116.334ZM114.642 3.348C115.854 3.348 116.13 3.972 116.178 5.652H113.13C113.166 3.96 113.442 3.348 114.642 3.348ZM122.272 3C121.432 3 120.976 3.3 120.724 3.732V1.044C120.724 0.948 120.652 0.875999 120.544 0.875999C120.448 0.875999 120.376 0.948 120.376 1.044V6.012C120.376 7.536 120.376 9 122.26 9C124.132 9 124.132 7.56 124.132 6.012C124.132 4.476 124.132 3 122.272 3ZM123.592 7.92C123.388 8.412 122.98 8.652 122.272 8.652C121.636 8.652 121.168 8.448 120.952 7.92C120.772 7.476 120.76 6.912 120.76 6.024C120.76 5.136 120.772 4.536 120.952 4.08C121.168 3.552 121.636 3.348 122.272 3.348C122.932 3.348 123.388 3.564 123.592 4.08C123.772 4.536 123.784 5.1 123.784 5.976C123.784 6.852 123.772 7.464 123.592 7.92ZM128.78 6C128.96 6 128.972 6 128.972 5.7C128.972 3.816 128.492 3 127.076 3C125.36 3 125.276 4.188 125.228 5.436C125.216 5.64 125.216 5.748 125.216 6C125.216 7.5 125.216 9 127.052 9C128.48 9 128.9 8.1 128.924 7.332C128.924 7.188 128.912 7.128 128.792 7.104C128.648 7.08 128.612 7.176 128.588 7.284C128.504 7.656 128.528 8.664 127.064 8.664C126.428 8.664 125.996 8.472 125.756 7.932C125.564 7.488 125.564 7.104 125.564 6H128.78ZM127.088 3.348C128.3 3.348 128.576 3.972 128.624 5.652H125.576C125.612 3.96 125.888 3.348 127.088 3.348ZM133.409 0.875999C133.301 0.875999 133.229 0.948 133.229 1.044V3.732C132.977 3.3 132.521 3 131.681 3C129.821 3 129.821 4.476 129.821 6.012C129.821 7.56 129.821 9 131.693 9C133.577 9 133.577 7.536 133.577 6.012V1.044C133.577 0.948 133.505 0.875999 133.409 0.875999ZM133.001 7.92C132.785 8.448 132.317 8.652 131.681 8.652C130.973 8.652 130.565 8.412 130.361 7.92C130.181 7.464 130.169 6.852 130.169 5.976C130.169 5.1 130.181 4.536 130.361 4.08C130.565 3.564 131.021 3.348 131.681 3.348C132.317 3.348 132.785 3.552 133.001 4.08C133.181 4.536 133.193 5.136 133.193 6.024C133.193 6.912 133.181 7.476 133.001 7.92ZM138.225 6C138.405 6 138.417 6 138.417 5.7C138.417 3.816 137.937 3 136.521 3C134.805 3 134.721 4.188 134.673 5.436C134.661 5.64 134.661 5.748 134.661 6C134.661 7.5 134.661 9 136.497 9C137.925 9 138.345 8.1 138.369 7.332C138.369 7.188 138.357 7.128 138.237 7.104C138.093 7.08 138.057 7.176 138.033 7.284C137.949 7.656 137.973 8.664 136.509 8.664C135.873 8.664 135.441 8.472 135.201 7.932C135.009 7.488 135.009 7.104 135.009 6H138.225ZM136.533 3.348C137.745 3.348 138.021 3.972 138.069 5.652H135.021C135.057 3.96 135.333 3.348 136.533 3.348ZM143.077 3.084C142.969 3.084 142.909 3.156 142.909 3.276V5.988C142.909 6.756 142.897 7.44 142.681 7.944C142.453 8.484 142.033 8.652 141.385 8.652C140.557 8.652 140.245 8.376 140.065 7.944C139.861 7.44 139.849 6.756 139.849 5.988V3.276C139.849 3.156 139.801 3.084 139.693 3.084C139.573 3.084 139.501 3.156 139.501 3.276V5.988C139.501 7.524 139.501 9 141.373 9C143.257 9 143.257 7.524 143.257 5.988V3.276C143.257 3.156 143.185 3.084 143.077 3.084ZM146.249 8.652C145.673 8.592 145.517 8.388 145.433 8.22C145.301 7.932 145.289 7.536 145.289 7.128V3.348H146.141C146.261 3.348 146.333 3.276 146.333 3.168C146.333 3.084 146.261 3 146.141 3H145.289V1.044C145.289 0.948 145.217 0.875999 145.121 0.875999C145.013 0.875999 144.941 0.948 144.941 1.044V3H144.353C144.233 3 144.161 3.084 144.161 3.168C144.161 3.276 144.233 3.348 144.353 3.348H144.941V6.972C144.941 7.524 144.929 8.004 145.109 8.412C145.265 8.772 145.805 9 146.237 9C146.369 9 146.441 8.952 146.441 8.856C146.441 8.724 146.369 8.664 146.249 8.652ZM150.788 6C150.968 6 150.98 6 150.98 5.7C150.98 3.816 150.5 3 149.084 3C147.368 3 147.284 4.188 147.236 5.436C147.224 5.64 147.224 5.748 147.224 6C147.224 7.5 147.224 9 149.06 9C150.488 9 150.908 8.1 150.932 7.332C150.932 7.188 150.92 7.128 150.8 7.104C150.656 7.08 150.62 7.176 150.596 7.284C150.512 7.656 150.536 8.664 149.072 8.664C148.436 8.664 148.004 8.472 147.764 7.932C147.572 7.488 147.572 7.104 147.572 6H150.788ZM149.096 3.348C150.308 3.348 150.584 3.972 150.632 5.652H147.584C147.62 3.96 147.896 3.348 149.096 3.348ZM152.231 9C152.339 9 152.411 8.928 152.411 8.832V6.012C152.411 5.256 152.411 4.548 152.615 4.068C152.819 3.588 153.191 3.348 153.935 3.348C154.655 3.348 155.051 3.576 155.267 4.056C155.471 4.512 155.471 5.172 155.471 5.868V8.832C155.471 8.928 155.543 9 155.651 9C155.747 9 155.819 8.928 155.819 8.832V5.928C155.819 5.136 155.831 4.44 155.579 3.912C155.315 3.3 154.775 3 153.947 3C153.215 3 152.699 3.228 152.411 3.696V3.24C152.411 3.144 152.339 3.072 152.243 3.072C152.135 3.072 152.063 3.144 152.063 3.24V8.832C152.063 8.928 152.135 9 152.231 9ZM4.128 11.876C4.02 11.876 3.948 11.948 3.948 12.044V14.732C3.696 14.3 3.24 14 2.4 14C0.54 14 0.54 15.476 0.54 17.012C0.54 18.56 0.54 20 2.412 20C4.296 20 4.296 18.536 4.296 17.012V12.044C4.296 11.948 4.224 11.876 4.128 11.876ZM3.72 18.92C3.504 19.448 3.036 19.652 2.4 19.652C1.692 19.652 1.284 19.412 1.08 18.92C0.9 18.464 0.888 17.852 0.888 16.976C0.888 16.1 0.9 15.536 1.08 15.08C1.284 14.564 1.74 14.348 2.4 14.348C3.036 14.348 3.504 14.552 3.72 15.08C3.9 15.536 3.912 16.136 3.912 17.024C3.912 17.912 3.9 18.476 3.72 18.92ZM5.78503 12.8C5.97703 12.8 6.14503 12.632 6.14503 12.428C6.14503 12.236 5.97703 12.068 5.78503 12.068C5.58103 12.068 5.41303 12.236 5.41303 12.428C5.41303 12.632 5.58103 12.8 5.78503 12.8ZM5.74903 20C5.85703 20 5.91703 19.928 5.91703 19.808V14.192C5.91703 14.072 5.85703 14 5.74903 14C5.62903 14 5.56903 14.072 5.56903 14.192V19.808C5.56903 19.928 5.62903 20 5.74903 20ZM10.7603 17C10.9403 17 10.9523 17 10.9523 16.7C10.9523 14.816 10.4723 14 9.05625 14C7.34025 14 7.25625 15.188 7.20825 16.436C7.19625 16.64 7.19625 16.748 7.19625 17C7.19625 18.5 7.19625 20 9.03225 20C10.4603 20 10.8803 19.1 10.9043 18.332C10.9043 18.188 10.8923 18.128 10.7723 18.104C10.6283 18.08 10.5923 18.176 10.5683 18.284C10.4843 18.656 10.5083 19.664 9.04425 19.664C8.40825 19.664 7.97625 19.472 7.73625 18.932C7.54425 18.488 7.54425 18.104 7.54425 17H10.7603ZM9.06825 14.348C10.2803 14.348 10.5563 14.972 10.6043 16.652H7.55625C7.59225 14.96 7.86825 14.348 9.06825 14.348ZM19.9617 15.692H17.8017C17.7057 15.692 17.6337 15.764 17.6337 15.872C17.6337 15.968 17.7057 16.04 17.8017 16.04H19.8057C19.8057 16.4 19.7937 17.336 19.4697 18.188C19.1337 19.196 18.4857 19.652 17.4657 19.652C15.4857 19.652 15.1377 18.008 15.1377 15.764C15.1377 14.132 15.3897 12.224 17.4657 12.224C18.4977 12.224 19.1337 12.668 19.4817 13.628C19.5177 13.748 19.6017 13.796 19.6977 13.76C19.7937 13.724 19.8177 13.64 19.7817 13.52C19.3977 12.428 18.6297 11.876 17.4657 11.876C15.1377 11.876 14.8017 13.964 14.8017 15.764C14.8017 17.924 15.1377 20 17.4657 20C18.6057 20 19.4097 19.472 19.8057 18.308C20.1177 17.432 20.1417 16.196 20.1417 16.04V15.848C20.1417 15.728 20.0697 15.692 19.9617 15.692ZM24.4276 14.528C24.3316 14.396 24.0796 14.216 23.7916 14.108C22.9756 13.808 21.9556 14.036 21.5596 14.72V14.204C21.5596 14.084 21.4996 14.012 21.3916 14.012C21.2836 14.012 21.2236 14.084 21.2236 14.204V19.808C21.2236 19.94 21.2716 20 21.3796 20C21.4876 20 21.5716 19.928 21.5716 19.808V17.012C21.5716 16.904 21.5476 16.064 21.6196 15.62C21.7276 14.96 21.9436 14.324 23.0836 14.324C23.5156 14.324 23.8156 14.456 24.1156 14.732C24.1996 14.816 24.3076 14.9 24.4156 14.816C24.4876 14.768 24.5236 14.66 24.4276 14.528ZM28.5376 17C28.7176 17 28.7296 17 28.7296 16.7C28.7296 14.816 28.2496 14 26.8336 14C25.1176 14 25.0336 15.188 24.9856 16.436C24.9736 16.64 24.9736 16.748 24.9736 17C24.9736 18.5 24.9736 20 26.8096 20C28.2376 20 28.6576 19.1 28.6816 18.332C28.6816 18.188 28.6696 18.128 28.5496 18.104C28.4056 18.08 28.3696 18.176 28.3456 18.284C28.2616 18.656 28.2856 19.664 26.8216 19.664C26.1856 19.664 25.7536 19.472 25.5136 18.932C25.3216 18.488 25.3216 18.104 25.3216 17H28.5376ZM26.8456 14.348C28.0576 14.348 28.3336 14.972 28.3816 16.652H25.3336C25.3696 14.96 25.6456 14.348 26.8456 14.348ZM29.9814 20C30.0894 20 30.1614 19.928 30.1614 19.832V17.012C30.1614 16.256 30.1614 15.548 30.3654 15.068C30.5694 14.588 30.9414 14.348 31.6854 14.348C32.4054 14.348 32.8014 14.576 33.0174 15.056C33.2214 15.512 33.2214 16.172 33.2214 16.868V19.832C33.2214 19.928 33.2934 20 33.4014 20C33.4974 20 33.5694 19.928 33.5694 19.832V16.928C33.5694 16.136 33.5814 15.44 33.3294 14.912C33.0654 14.3 32.5254 14 31.6974 14C30.9654 14 30.4494 14.228 30.1614 14.696V14.24C30.1614 14.144 30.0894 14.072 29.9934 14.072C29.8854 14.072 29.8134 14.144 29.8134 14.24V19.832C29.8134 19.928 29.8854 20 29.9814 20ZM34.7973 20H38.0733C38.1933 20 38.2653 19.94 38.2653 19.82C38.2653 19.712 38.1933 19.652 38.0733 19.652H35.1333L38.4213 14.228C38.5053 14.096 38.4453 14 38.2893 14H35.0253C34.9053 14 34.8333 14.06 34.8333 14.156C34.8333 14.276 34.9053 14.348 35.0253 14.348H37.9533L34.6773 19.772C34.5933 19.904 34.6533 20 34.7973 20ZM42.8579 17C43.0379 17 43.0499 17 43.0499 16.7C43.0499 14.816 42.5699 14 41.1539 14C39.4379 14 39.3539 15.188 39.3059 16.436C39.2939 16.64 39.2939 16.748 39.2939 17C39.2939 18.5 39.2939 20 41.1299 20C42.5579 20 42.9779 19.1 43.0019 18.332C43.0019 18.188 42.9899 18.128 42.8699 18.104C42.7259 18.08 42.6899 18.176 42.6659 18.284C42.5819 18.656 42.6059 19.664 41.1419 19.664C40.5059 19.664 40.0739 19.472 39.8339 18.932C39.6419 18.488 39.6419 18.104 39.6419 17H42.8579ZM41.1659 14.348C42.3779 14.348 42.6539 14.972 42.7019 16.652H39.6539C39.6899 14.96 39.9659 14.348 41.1659 14.348ZM44.3018 20C44.4098 20 44.4818 19.928 44.4818 19.832V17.012C44.4818 16.256 44.4818 15.548 44.6858 15.068C44.8898 14.588 45.2618 14.348 46.0058 14.348C46.7258 14.348 47.1217 14.576 47.3378 15.056C47.5418 15.512 47.5418 16.172 47.5418 16.868V19.832C47.5418 19.928 47.6138 20 47.7218 20C47.8178 20 47.8898 19.928 47.8898 19.832V16.928C47.8898 16.136 47.9018 15.44 47.6498 14.912C47.3858 14.3 46.8458 14 46.0178 14C45.2858 14 44.7698 14.228 44.4818 14.696V14.24C44.4818 14.144 44.4098 14.072 44.3138 14.072C44.2058 14.072 44.1338 14.144 44.1338 14.24V19.832C44.1338 19.928 44.2058 20 44.3018 20ZM58.6272 14.912C58.3392 14.276 57.8352 13.988 56.9952 13.988C56.0592 13.988 55.6152 14.3 55.3032 15.044C55.0032 14.336 54.5712 14 53.6232 14C52.8912 14 52.3752 14.228 52.0872 14.696V14.24C52.0872 14.144 52.0152 14.072 51.9192 14.072C51.8112 14.072 51.7392 14.144 51.7392 14.24V19.832C51.7392 19.928 51.8112 20 51.9072 20C52.0152 20 52.0872 19.928 52.0872 19.832V17.012C52.0872 16.256 52.0872 15.548 52.2912 15.068C52.4952 14.588 52.8672 14.348 53.6112 14.348C54.3312 14.348 54.7272 14.576 54.9432 15.056C55.1472 15.512 55.1472 16.172 55.1472 16.868V19.832C55.1472 19.928 55.2192 20 55.3272 20C55.4232 20 55.4952 19.928 55.4952 19.832V16.928C55.4952 16.172 55.4952 15.512 55.6752 15.044C55.8792 14.528 56.3352 14.348 56.9952 14.348C57.6792 14.348 58.0872 14.54 58.3032 15.044C58.5072 15.512 58.5192 16.16 58.5192 16.856V19.832C58.5192 19.928 58.5912 20 58.6992 20C58.7952 20 58.8672 19.928 58.8672 19.832V16.856C58.8672 16.124 58.8672 15.44 58.6272 14.912ZM63.5063 17C63.6863 17 63.6983 17 63.6983 16.7C63.6983 14.816 63.2183 14 61.8023 14C60.0863 14 60.0023 15.188 59.9543 16.436C59.9423 16.64 59.9423 16.748 59.9423 17C59.9423 18.5 59.9423 20 61.7783 20C63.2063 20 63.6263 19.1 63.6503 18.332C63.6503 18.188 63.6383 18.128 63.5183 18.104C63.3743 18.08 63.3383 18.176 63.3143 18.284C63.2303 18.656 63.2543 19.664 61.7903 19.664C61.1543 19.664 60.7223 19.472 60.4823 18.932C60.2903 18.488 60.2903 18.104 60.2903 17H63.5063ZM61.8143 14.348C63.0263 14.348 63.3023 14.972 63.3503 16.652H60.3023C60.3383 14.96 60.6143 14.348 61.8143 14.348ZM65.0702 12.8C65.2622 12.8 65.4302 12.632 65.4302 12.428C65.4302 12.236 65.2622 12.068 65.0702 12.068C64.8662 12.068 64.6982 12.236 64.6982 12.428C64.6982 12.632 64.8662 12.8 65.0702 12.8ZM65.0342 20C65.1422 20 65.2022 19.928 65.2022 19.808V14.192C65.2022 14.072 65.1422 14 65.0342 14C64.9142 14 64.8542 14.072 64.8542 14.192V19.808C64.8542 19.928 64.9142 20 65.0342 20ZM66.9541 20C67.0621 20 67.1341 19.928 67.1341 19.832V17.012C67.1341 16.256 67.1341 15.548 67.3381 15.068C67.5421 14.588 67.9141 14.348 68.6581 14.348C69.3781 14.348 69.7741 14.576 69.9901 15.056C70.1941 15.512 70.1941 16.172 70.1941 16.868V19.832C70.1941 19.928 70.2661 20 70.3741 20C70.4701 20 70.5421 19.928 70.5421 19.832V16.928C70.5421 16.136 70.5541 15.44 70.3021 14.912C70.0381 14.3 69.4981 14 68.6701 14C67.9381 14 67.4221 14.228 67.1341 14.696V14.24C67.1341 14.144 67.0621 14.072 66.9661 14.072C66.8581 14.072 66.7861 14.144 66.7861 14.24V19.832C66.7861 19.928 66.8581 20 66.9541 20ZM75.1899 17C75.3699 17 75.3819 17 75.3819 16.7C75.3819 14.816 74.9019 14 73.4859 14C71.7699 14 71.6859 15.188 71.6379 16.436C71.6259 16.64 71.6259 16.748 71.6259 17C71.6259 18.5 71.6259 20 73.4619 20C74.8899 20 75.3099 19.1 75.3339 18.332C75.3339 18.188 75.3219 18.128 75.2019 18.104C75.0579 18.08 75.0219 18.176 74.9979 18.284C74.9139 18.656 74.9379 19.664 73.4739 19.664C72.8379 19.664 72.4059 19.472 72.1659 18.932C71.9739 18.488 71.9739 18.104 71.9739 17H75.1899ZM73.4979 14.348C74.7099 14.348 74.9859 14.972 75.0339 16.652H71.9859C72.0219 14.96 72.2979 14.348 73.4979 14.348ZM79.6698 14.528C79.5738 14.396 79.3218 14.216 79.0338 14.108C78.2178 13.808 77.1978 14.036 76.8018 14.72V14.204C76.8018 14.084 76.7418 14.012 76.6338 14.012C76.5258 14.012 76.4658 14.084 76.4658 14.204V19.808C76.4658 19.94 76.5138 20 76.6218 20C76.7298 20 76.8138 19.928 76.8138 19.808V17.012C76.8138 16.904 76.7898 16.064 76.8618 15.62C76.9698 14.96 77.1858 14.324 78.3258 14.324C78.7578 14.324 79.0578 14.456 79.3578 14.732C79.4418 14.816 79.5498 14.9 79.6578 14.816C79.7298 14.768 79.7658 14.66 79.6698 14.528ZM91.8974 12.008L89.7974 19.376L87.6974 14.012C87.6254 13.82 87.5294 13.82 87.4574 14.012L85.3814 19.376L83.2814 12.008C83.2574 11.936 83.1974 11.876 83.1134 11.876C83.0054 11.876 82.9094 11.984 82.9334 12.08L85.1174 19.808C85.1534 19.928 85.2374 20 85.3574 20C85.4654 20 85.5494 19.94 85.5854 19.844L87.5894 14.696L89.5934 19.844C89.6294 19.94 89.7134 20 89.8214 20C89.9414 20 90.0254 19.928 90.0614 19.808L92.2454 12.08C92.2814 11.972 92.1734 11.876 92.0654 11.876C91.9814 11.876 91.9214 11.936 91.8974 12.008ZM96.0142 17C96.1942 17 96.2062 17 96.2062 16.7C96.2062 14.816 95.7262 14 94.3102 14C92.5942 14 92.5102 15.188 92.4622 16.436C92.4502 16.64 92.4502 16.748 92.4502 17C92.4502 18.5 92.4502 20 94.2862 20C95.7142 20 96.1342 19.1 96.1582 18.332C96.1582 18.188 96.1462 18.128 96.0262 18.104C95.8822 18.08 95.8462 18.176 95.8222 18.284C95.7382 18.656 95.7622 19.664 94.2982 19.664C93.6622 19.664 93.2302 19.472 92.9902 18.932C92.7982 18.488 92.7982 18.104 92.7982 17H96.0142ZM94.3222 14.348C95.5342 14.348 95.8102 14.972 95.8582 16.652H92.8102C92.8462 14.96 93.1222 14.348 94.3222 14.348ZM98.538 19.652C98.022 19.604 97.854 19.364 97.77 19.196C97.65 18.92 97.638 18.536 97.638 18.116V12.068C97.638 11.948 97.578 11.876 97.47 11.876C97.362 11.876 97.29 11.948 97.29 12.068V17.936C97.29 18.464 97.278 18.98 97.482 19.364C97.662 19.76 98.01 19.964 98.526 20C98.658 20.012 98.73 19.952 98.73 19.832C98.73 19.724 98.658 19.664 98.538 19.652ZM101.061 19.652C100.485 19.592 100.329 19.388 100.245 19.22C100.113 18.932 100.101 18.536 100.101 18.128V14.348H100.953C101.073 14.348 101.145 14.276 101.145 14.168C101.145 14.084 101.073 14 100.953 14H100.101V12.044C100.101 11.948 100.029 11.876 99.9333 11.876C99.8253 11.876 99.7533 11.948 99.7533 12.044V14H99.1653C99.0453 14 98.9733 14.084 98.9733 14.168C98.9733 14.276 99.0453 14.348 99.1653 14.348H99.7533V17.972C99.7533 18.524 99.7413 19.004 99.9213 19.412C100.077 19.772 100.617 20 101.049 20C101.181 20 101.253 19.952 101.253 19.856C101.253 19.724 101.181 19.664 101.061 19.652ZM102.802 20C102.994 20 103.162 19.832 103.162 19.628C103.162 19.436 102.994 19.268 102.802 19.268C102.598 19.268 102.43 19.436 102.43 19.628C102.43 19.832 102.598 20 102.802 20Z" fill="currentColor"/>
</svg>
