<svg viewBox="0 0 152 24" fill="none" xmlns="http://www.w3.org/2000/svg">
<path d="M3.3242 5.42427C2.0882 5.06427 1.2242 4.76427 1.2002 3.67227C1.1642 2.37627 2.3282 1.81227 3.5042 1.84827C4.3562 1.88427 4.9922 2.04027 5.4602 2.84427C5.4842 2.89227 5.5442 2.94027 5.6162 2.94027C5.7122 2.94027 5.7842 2.85627 5.7842 2.76027C5.7842 2.72427 5.7722 2.71227 5.7602 2.67627C5.2322 1.77627 4.4642 1.53627 3.5162 1.50027C2.1362 1.45227 0.804196 2.18427 0.864196 3.68427C0.912196 4.99227 1.8482 5.35227 3.2162 5.76027C4.6322 6.18027 5.5562 6.36027 5.5082 7.54827C5.4722 8.62827 4.5362 9.31227 3.2402 9.26427C2.4602 9.22827 1.7642 8.86827 1.3442 8.22027C1.3202 8.17227 1.2602 8.13627 1.2002 8.13627C1.1042 8.13627 1.0322 8.22027 1.0322 8.31627C1.0322 8.34027 1.0442 8.37627 1.0562 8.40027C1.5242 9.16827 2.3402 9.58827 3.2282 9.62427C4.7162 9.67227 5.8082 8.84427 5.8562 7.56027C5.9162 6.04827 4.5602 5.78427 3.3242 5.42427ZM7.22251 2.42427C7.41451 2.42427 7.58251 2.25627 7.58251 2.05227C7.58251 1.86027 7.41451 1.69227 7.22251 1.69227C7.01851 1.69227 6.85051 1.86027 6.85051 2.05227C6.85051 2.25627 7.01851 2.42427 7.22251 2.42427ZM7.18651 9.62427C7.29451 9.62427 7.35451 9.55227 7.35451 9.43227V3.81627C7.35451 3.69627 7.29451 3.62427 7.18651 3.62427C7.06651 3.62427 7.00651 3.69627 7.00651 3.81627V9.43227C7.00651 9.55227 7.06651 9.62427 7.18651 9.62427ZM14.9634 6.62427C15.1434 6.62427 15.1554 6.62427 15.1554 6.32427C15.1554 4.44027 14.6754 3.62427 13.2594 3.62427C11.5434 3.62427 11.4594 4.81227 11.4114 6.06027C11.3994 6.26427 11.3994 6.37227 11.3994 6.62427C11.3994 8.12427 11.3994 9.62427 13.2354 9.62427C14.6634 9.62427 15.0834 8.72427 15.1074 7.95627C15.1074 7.81227 15.0954 7.75227 14.9754 7.72827C14.8314 7.70427 14.7954 7.80027 14.7714 7.90827C14.6874 8.28027 14.7114 9.28827 13.2474 9.28827C12.6114 9.28827 12.1794 9.09627 11.9394 8.55627C11.7474 8.11227 11.7474 7.72827 11.7474 6.62427H14.9634ZM13.2714 3.97227C14.4834 3.97227 14.7594 4.59627 14.8074 6.27627H11.7594C11.7954 4.58427 12.0714 3.97227 13.2714 3.97227ZM17.8952 9.62427C19.0112 9.62427 19.6352 8.92827 19.6352 8.05227C19.6352 6.82827 18.3992 6.55227 17.8832 6.42027C17.1152 6.22827 16.4432 5.94027 16.4432 5.20827C16.4432 4.45227 17.1272 3.97227 17.9192 3.97227C18.5792 3.97227 19.0952 4.32027 19.2512 4.90827C19.2992 5.14827 19.6112 5.14827 19.6112 4.87227C19.4552 4.16427 18.8912 3.62427 17.9192 3.62427C16.8152 3.62427 16.0712 4.32027 16.0712 5.18427C16.0712 6.10827 16.9232 6.57627 17.8112 6.74427C18.6632 6.93627 19.2872 7.33227 19.2872 8.06427C19.2872 8.74827 18.7352 9.27627 17.9072 9.27627C17.1632 9.27627 16.5752 8.85627 16.4432 8.34027C16.3952 8.10027 16.0472 8.00427 16.0712 8.34027C16.0952 8.71227 16.6232 9.62427 17.8952 9.62427ZM22.5066 9.27627C21.9306 9.21627 21.7746 9.01227 21.6906 8.84427C21.5586 8.55627 21.5466 8.16027 21.5466 7.75227V3.97227H22.3986C22.5186 3.97227 22.5906 3.90027 22.5906 3.79227C22.5906 3.70827 22.5186 3.62427 22.3986 3.62427H21.5466V1.66827C21.5466 1.57227 21.4746 1.50027 21.3786 1.50027C21.2706 1.50027 21.1986 1.57227 21.1986 1.66827V3.62427H20.6106C20.4906 3.62427 20.4186 3.70827 20.4186 3.79227C20.4186 3.90027 20.4906 3.97227 20.6106 3.97227H21.1986V7.59627C21.1986 8.14827 21.1866 8.62827 21.3666 9.03627C21.5226 9.39627 22.0626 9.62427 22.4946 9.62427C22.6266 9.62427 22.6986 9.57627 22.6986 9.48027C22.6986 9.34827 22.6266 9.28827 22.5066 9.27627ZM24.4626 0.840267C24.3786 0.900267 24.3546 0.996267 24.4146 1.10427L25.3506 2.77227C25.4106 2.86827 25.5066 2.90427 25.6026 2.85627C25.6866 2.79627 25.7106 2.70027 25.6506 2.59227L24.7146 0.924267C24.6546 0.828267 24.5586 0.792267 24.4626 0.840267ZM25.5306 9.62427C26.6466 9.62427 27.3426 8.91627 27.3426 7.75227V5.55627C27.3426 5.01627 27.1026 4.42827 26.8146 4.12827C26.5026 3.80427 26.0346 3.62427 25.4826 3.62427C24.9306 3.62427 24.4506 3.80427 24.1386 4.12827C23.8866 4.39227 23.6466 4.87227 23.6226 5.22027C23.6106 5.37627 23.6586 5.44827 23.7666 5.44827C23.9106 5.44827 23.9466 5.34027 23.9706 5.24427C24.1506 4.44027 24.5586 3.96027 25.4826 3.96027C25.9386 3.96027 26.3466 4.10427 26.5746 4.36827C26.8386 4.65627 27.0066 5.16027 27.0066 5.55627V6.68427C26.6466 6.16827 26.0826 5.88027 25.4706 5.88027C24.4266 5.88027 23.5986 6.70827 23.5986 7.81227C23.5986 8.88027 24.3786 9.62427 25.5306 9.62427ZM25.5066 9.28827C24.5946 9.28827 23.9466 8.70027 23.9466 7.81227C23.9466 6.90027 24.6186 6.21627 25.4826 6.21627C26.3346 6.21627 27.0066 6.88827 27.0066 7.82427C27.0066 8.68827 26.4186 9.28827 25.5066 9.28827ZM30.0827 9.62427C31.1987 9.62427 31.8227 8.92827 31.8227 8.05227C31.8227 6.82827 30.5867 6.55227 30.0707 6.42027C29.3027 6.22827 28.6307 5.94027 28.6307 5.20827C28.6307 4.45227 29.3147 3.97227 30.1067 3.97227C30.7667 3.97227 31.2827 4.32027 31.4387 4.90827C31.4867 5.14827 31.7987 5.14827 31.7987 4.87227C31.6427 4.16427 31.0787 3.62427 30.1067 3.62427C29.0027 3.62427 28.2587 4.32027 28.2587 5.18427C28.2587 6.10827 29.1107 6.57627 29.9987 6.74427C30.8507 6.93627 31.4747 7.33227 31.4747 8.06427C31.4747 8.74827 30.9227 9.27627 30.0947 9.27627C29.3507 9.27627 28.7627 8.85627 28.6307 8.34027C28.5827 8.10027 28.2347 8.00427 28.2587 8.34027C28.2827 8.71227 28.8107 9.62427 30.0827 9.62427ZM37.4357 3.62427C35.5517 3.62427 35.5517 5.08827 35.5517 6.61227V11.5803C35.5517 11.6763 35.6237 11.7483 35.7197 11.7483C35.8277 11.7483 35.8997 11.6763 35.8997 11.5803V8.89227C36.1517 9.32427 36.6077 9.62427 37.4477 9.62427C39.3077 9.62427 39.3077 8.14827 39.3077 6.61227C39.3077 5.06427 39.3077 3.62427 37.4357 3.62427ZM38.7677 8.54427C38.5637 9.06027 38.1077 9.27627 37.4477 9.27627C36.8117 9.27627 36.3437 9.07227 36.1277 8.54427C35.9477 8.08827 35.9357 7.48827 35.9357 6.60027C35.9357 5.71227 35.9477 5.14827 36.1277 4.70427C36.3437 4.17627 36.8117 3.97227 37.4477 3.97227C38.1557 3.97227 38.5637 4.21227 38.7677 4.70427C38.9477 5.16027 38.9597 5.77227 38.9597 6.64827C38.9597 7.52427 38.9477 8.08827 38.7677 8.54427ZM42.3235 9.62427C43.4395 9.62427 44.1355 8.91627 44.1355 7.75227V5.55627C44.1355 5.01627 43.8955 4.42827 43.6075 4.12827C43.2955 3.80427 42.8275 3.62427 42.2755 3.62427C41.7235 3.62427 41.2435 3.80427 40.9315 4.12827C40.6795 4.39227 40.4395 4.87227 40.4155 5.22027C40.4035 5.37627 40.4515 5.44827 40.5595 5.44827C40.7035 5.44827 40.7395 5.34027 40.7635 5.24427C40.9435 4.44027 41.3515 3.96027 42.2755 3.96027C42.7315 3.96027 43.1395 4.10427 43.3675 4.36827C43.6315 4.65627 43.7995 5.16027 43.7995 5.55627V6.68427C43.4395 6.16827 42.8755 5.88027 42.2635 5.88027C41.2195 5.88027 40.3915 6.70827 40.3915 7.81227C40.3915 8.88027 41.1715 9.62427 42.3235 9.62427ZM42.2995 9.28827C41.3875 9.28827 40.7395 8.70027 40.7395 7.81227C40.7395 6.90027 41.4115 6.21627 42.2755 6.21627C43.1275 6.21627 43.7995 6.88827 43.7995 7.82427C43.7995 8.68827 43.2115 9.28827 42.2995 9.28827ZM46.8757 9.62427C47.9917 9.62427 48.6157 8.92827 48.6157 8.05227C48.6157 6.82827 47.3797 6.55227 46.8637 6.42027C46.0957 6.22827 45.4237 5.94027 45.4237 5.20827C45.4237 4.45227 46.1077 3.97227 46.8997 3.97227C47.5597 3.97227 48.0757 4.32027 48.2317 4.90827C48.2797 5.14827 48.5917 5.14827 48.5917 4.87227C48.4357 4.16427 47.8717 3.62427 46.8997 3.62427C45.7957 3.62427 45.0517 4.32027 45.0517 5.18427C45.0517 6.10827 45.9037 6.57627 46.7917 6.74427C47.6437 6.93627 48.2677 7.33227 48.2677 8.06427C48.2677 8.74827 47.7157 9.27627 46.8877 9.27627C46.1437 9.27627 45.5557 8.85627 45.4237 8.34027C45.3757 8.10027 45.0277 8.00427 45.0517 8.34027C45.0757 8.71227 45.6037 9.62427 46.8757 9.62427ZM51.235 9.62427C52.351 9.62427 52.975 8.92827 52.975 8.05227C52.975 6.82827 51.739 6.55227 51.223 6.42027C50.455 6.22827 49.783 5.94027 49.783 5.20827C49.783 4.45227 50.467 3.97227 51.259 3.97227C51.919 3.97227 52.435 4.32027 52.591 4.90827C52.639 5.14827 52.951 5.14827 52.951 4.87227C52.795 4.16427 52.231 3.62427 51.259 3.62427C50.155 3.62427 49.411 4.32027 49.411 5.18427C49.411 6.10827 50.263 6.57627 51.151 6.74427C52.003 6.93627 52.627 7.33227 52.627 8.06427C52.627 8.74827 52.075 9.27627 51.247 9.27627C50.503 9.27627 49.915 8.85627 49.783 8.34027C49.735 8.10027 49.387 8.00427 49.411 8.34027C49.435 8.71227 49.963 9.62427 51.235 9.62427ZM55.8704 9.62427C56.9864 9.62427 57.6824 8.91627 57.6824 7.75227V5.55627C57.6824 5.01627 57.4424 4.42827 57.1544 4.12827C56.8424 3.80427 56.3744 3.62427 55.8224 3.62427C55.2704 3.62427 54.7904 3.80427 54.4784 4.12827C54.2264 4.39227 53.9864 4.87227 53.9624 5.22027C53.9504 5.37627 53.9984 5.44827 54.1064 5.44827C54.2504 5.44827 54.2864 5.34027 54.3104 5.24427C54.4904 4.44027 54.8984 3.96027 55.8224 3.96027C56.2784 3.96027 56.6864 4.10427 56.9144 4.36827C57.1784 4.65627 57.3464 5.16027 57.3464 5.55627V6.68427C56.9864 6.16827 56.4224 5.88027 55.8104 5.88027C54.7664 5.88027 53.9384 6.70827 53.9384 7.81227C53.9384 8.88027 54.7184 9.62427 55.8704 9.62427ZM55.8464 9.28827C54.9344 9.28827 54.2864 8.70027 54.2864 7.81227C54.2864 6.90027 54.9584 6.21627 55.8224 6.21627C56.6744 6.21627 57.3464 6.88827 57.3464 7.82427C57.3464 8.68827 56.7584 9.28827 55.8464 9.28827ZM58.9345 9.62427C59.0425 9.62427 59.1145 9.55227 59.1145 9.45627V6.63627C59.1145 5.88027 59.1145 5.17227 59.3185 4.69227C59.5225 4.21227 59.8945 3.97227 60.6385 3.97227C61.3585 3.97227 61.7545 4.20027 61.9705 4.68027C62.1745 5.13627 62.1745 5.79627 62.1745 6.49227V9.45627C62.1745 9.55227 62.2465 9.62427 62.3545 9.62427C62.4505 9.62427 62.5225 9.55227 62.5225 9.45627V6.55227C62.5225 5.76027 62.5345 5.06427 62.2825 4.53627C62.0185 3.92427 61.4785 3.62427 60.6505 3.62427C59.9185 3.62427 59.4025 3.85227 59.1145 4.32027V3.86427C59.1145 3.76827 59.0425 3.69627 58.9465 3.69627C58.8385 3.69627 58.7665 3.76827 58.7665 3.86427V9.45627C58.7665 9.55227 58.8385 9.62427 58.9345 9.62427ZM65.5144 9.27627C64.9384 9.21627 64.7824 9.01227 64.6984 8.84427C64.5664 8.55627 64.5544 8.16027 64.5544 7.75227V3.97227H65.4064C65.5264 3.97227 65.5984 3.90027 65.5984 3.79227C65.5984 3.70827 65.5264 3.62427 65.4064 3.62427H64.5544V1.66827C64.5544 1.57227 64.4824 1.50027 64.3864 1.50027C64.2784 1.50027 64.2064 1.57227 64.2064 1.66827V3.62427H63.6184C63.4984 3.62427 63.4264 3.70827 63.4264 3.79227C63.4264 3.90027 63.4984 3.97227 63.6184 3.97227H64.2064V7.59627C64.2064 8.14827 64.1944 8.62827 64.3744 9.03627C64.5304 9.39627 65.0704 9.62427 65.5024 9.62427C65.6344 9.62427 65.7064 9.57627 65.7064 9.48027C65.7064 9.34827 65.6344 9.28827 65.5144 9.27627ZM71.256 3.62427C69.372 3.62427 69.372 5.08827 69.372 6.61227V11.5803C69.372 11.6763 69.444 11.7483 69.54 11.7483C69.648 11.7483 69.72 11.6763 69.72 11.5803V8.89227C69.972 9.32427 70.428 9.62427 71.268 9.62427C73.128 9.62427 73.128 8.14827 73.128 6.61227C73.128 5.06427 73.128 3.62427 71.256 3.62427ZM72.588 8.54427C72.384 9.06027 71.928 9.27627 71.268 9.27627C70.632 9.27627 70.164 9.07227 69.948 8.54427C69.768 8.08827 69.756 7.48827 69.756 6.60027C69.756 5.71227 69.768 5.14827 69.948 4.70427C70.164 4.17627 70.632 3.97227 71.268 3.97227C71.976 3.97227 72.384 4.21227 72.588 4.70427C72.768 5.16027 72.78 5.77227 72.78 6.64827C72.78 7.52427 72.768 8.08827 72.588 8.54427ZM77.7759 6.62427C77.9559 6.62427 77.9679 6.62427 77.9679 6.32427C77.9679 4.44027 77.4879 3.62427 76.0719 3.62427C74.3559 3.62427 74.2719 4.81227 74.2239 6.06027C74.2119 6.26427 74.2119 6.37227 74.2119 6.62427C74.2119 8.12427 74.2119 9.62427 76.0479 9.62427C77.4759 9.62427 77.8959 8.72427 77.9199 7.95627C77.9199 7.81227 77.9079 7.75227 77.7879 7.72827C77.6439 7.70427 77.6079 7.80027 77.5839 7.90827C77.4999 8.28027 77.5239 9.28827 76.0599 9.28827C75.4239 9.28827 74.9919 9.09627 74.7519 8.55627C74.5599 8.11227 74.5599 7.72827 74.5599 6.62427H77.7759ZM76.0839 3.97227C77.2959 3.97227 77.5719 4.59627 77.6199 6.27627H74.5719C74.6079 4.58427 74.8839 3.97227 76.0839 3.97227ZM82.2557 4.15227C82.1597 4.02027 81.9077 3.84027 81.6197 3.73227C80.8037 3.43227 79.7837 3.66027 79.3877 4.34427V3.82827C79.3877 3.70827 79.3277 3.63627 79.2197 3.63627C79.1117 3.63627 79.0517 3.70827 79.0517 3.82827V9.43227C79.0517 9.56427 79.0997 9.62427 79.2077 9.62427C79.3157 9.62427 79.3997 9.55227 79.3997 9.43227V6.63627C79.3997 6.52827 79.3757 5.68827 79.4477 5.24427C79.5557 4.58427 79.7717 3.94827 80.9117 3.94827C81.3437 3.94827 81.6437 4.08027 81.9437 4.35627C82.0277 4.44027 82.1357 4.52427 82.2437 4.44027C82.3157 4.39227 82.3517 4.28427 82.2557 4.15227ZM89.1433 3.70827C89.0353 3.70827 88.9753 3.78027 88.9753 3.90027V6.61227C88.9753 7.38027 88.9633 8.06427 88.7473 8.56827C88.5193 9.10827 88.0993 9.27627 87.4513 9.27627C86.6233 9.27627 86.3113 9.00027 86.1313 8.56827C85.9273 8.06427 85.9153 7.38027 85.9153 6.61227V3.90027C85.9153 3.78027 85.8673 3.70827 85.7593 3.70827C85.6393 3.70827 85.5673 3.78027 85.5673 3.90027V6.61227C85.5673 8.14827 85.5673 9.62427 87.4393 9.62427C89.3233 9.62427 89.3233 8.14827 89.3233 6.61227V3.90027C89.3233 3.78027 89.2513 3.70827 89.1433 3.70827ZM90.5752 9.62427C90.6832 9.62427 90.7552 9.55227 90.7552 9.45627V6.63627C90.7552 5.88027 90.7552 5.17227 90.9592 4.69227C91.1632 4.21227 91.5352 3.97227 92.2792 3.97227C92.9992 3.97227 93.3952 4.20027 93.6112 4.68027C93.8152 5.13627 93.8152 5.79627 93.8152 6.49227V9.45627C93.8152 9.55227 93.8872 9.62427 93.9952 9.62427C94.0912 9.62427 94.1632 9.55227 94.1632 9.45627V6.55227C94.1632 5.76027 94.1752 5.06427 93.9232 4.53627C93.6592 3.92427 93.1192 3.62427 92.2912 3.62427C91.5592 3.62427 91.0432 3.85227 90.7552 4.32027V3.86427C90.7552 3.76827 90.6832 3.69627 90.5872 3.69627C90.4792 3.69627 90.4072 3.76827 90.4072 3.86427V9.45627C90.4072 9.55227 90.4792 9.62427 90.5752 9.62427ZM104.901 4.53627C104.613 3.90027 104.109 3.61227 103.269 3.61227C102.333 3.61227 101.889 3.92427 101.577 4.66827C101.277 3.96027 100.845 3.62427 99.8966 3.62427C99.1646 3.62427 98.6486 3.85227 98.3606 4.32027V3.86427C98.3606 3.76827 98.2886 3.69627 98.1926 3.69627C98.0846 3.69627 98.0126 3.76827 98.0126 3.86427V9.45627C98.0126 9.55227 98.0846 9.62427 98.1806 9.62427C98.2886 9.62427 98.3606 9.55227 98.3606 9.45627V6.63627C98.3606 5.88027 98.3606 5.17227 98.5646 4.69227C98.7686 4.21227 99.1406 3.97227 99.8846 3.97227C100.605 3.97227 101.001 4.20027 101.217 4.68027C101.421 5.13627 101.421 5.79627 101.421 6.49227V9.45627C101.421 9.55227 101.493 9.62427 101.601 9.62427C101.697 9.62427 101.769 9.55227 101.769 9.45627V6.55227C101.769 5.79627 101.769 5.13627 101.949 4.66827C102.153 4.15227 102.609 3.97227 103.269 3.97227C103.953 3.97227 104.361 4.16427 104.577 4.66827C104.781 5.13627 104.793 5.78427 104.793 6.48027V9.45627C104.793 9.55227 104.865 9.62427 104.973 9.62427C105.069 9.62427 105.141 9.55227 105.141 9.45627V6.48027C105.141 5.74827 105.141 5.06427 104.901 4.53627ZM108.148 9.62427C109.264 9.62427 109.96 8.91627 109.96 7.75227V5.55627C109.96 5.01627 109.72 4.42827 109.432 4.12827C109.12 3.80427 108.652 3.62427 108.1 3.62427C107.548 3.62427 107.068 3.80427 106.756 4.12827C106.504 4.39227 106.264 4.87227 106.24 5.22027C106.228 5.37627 106.276 5.44827 106.384 5.44827C106.528 5.44827 106.564 5.34027 106.588 5.24427C106.768 4.44027 107.176 3.96027 108.1 3.96027C108.556 3.96027 108.964 4.10427 109.192 4.36827C109.456 4.65627 109.624 5.16027 109.624 5.55627V6.68427C109.264 6.16827 108.7 5.88027 108.088 5.88027C107.044 5.88027 106.216 6.70827 106.216 7.81227C106.216 8.88027 106.996 9.62427 108.148 9.62427ZM108.124 9.28827C107.212 9.28827 106.564 8.70027 106.564 7.81227C106.564 6.90027 107.236 6.21627 108.1 6.21627C108.952 6.21627 109.624 6.88827 109.624 7.82427C109.624 8.68827 109.036 9.28827 108.124 9.28827ZM112.292 9.27627C111.776 9.22827 111.608 8.98827 111.524 8.82027C111.404 8.54427 111.392 8.16027 111.392 7.74027V1.69227C111.392 1.57227 111.332 1.50027 111.224 1.50027C111.116 1.50027 111.044 1.57227 111.044 1.69227V7.56027C111.044 8.08827 111.032 8.60427 111.236 8.98827C111.416 9.38427 111.764 9.58827 112.28 9.62427C112.412 9.63627 112.484 9.57627 112.484 9.45627C112.484 9.34827 112.412 9.28827 112.292 9.27627ZM123.041 4.53627C122.753 3.90027 122.249 3.61227 121.409 3.61227C120.473 3.61227 120.029 3.92427 119.717 4.66827C119.417 3.96027 118.985 3.62427 118.037 3.62427C117.305 3.62427 116.789 3.85227 116.501 4.32027V3.86427C116.501 3.76827 116.429 3.69627 116.333 3.69627C116.225 3.69627 116.153 3.76827 116.153 3.86427V9.45627C116.153 9.55227 116.225 9.62427 116.321 9.62427C116.429 9.62427 116.501 9.55227 116.501 9.45627V6.63627C116.501 5.88027 116.501 5.17227 116.705 4.69227C116.909 4.21227 117.281 3.97227 118.025 3.97227C118.745 3.97227 119.141 4.20027 119.357 4.68027C119.561 5.13627 119.561 5.79627 119.561 6.49227V9.45627C119.561 9.55227 119.633 9.62427 119.741 9.62427C119.837 9.62427 119.909 9.55227 119.909 9.45627V6.55227C119.909 5.79627 119.909 5.13627 120.089 4.66827C120.293 4.15227 120.749 3.97227 121.409 3.97227C122.093 3.97227 122.501 4.16427 122.717 4.66827C122.921 5.13627 122.933 5.78427 122.933 6.48027V9.45627C122.933 9.55227 123.005 9.62427 123.113 9.62427C123.209 9.62427 123.281 9.55227 123.281 9.45627V6.48027C123.281 5.74827 123.281 5.06427 123.041 4.53627ZM126.216 9.62427C128.076 9.62427 128.076 8.17227 128.076 6.63627C128.076 5.08827 128.076 3.62427 126.216 3.62427C124.356 3.62427 124.356 5.08827 124.356 6.63627C124.356 8.17227 124.356 9.62427 126.216 9.62427ZM126.204 9.27627C125.508 9.27627 125.1 9.03627 124.896 8.54427C124.704 8.06427 124.704 7.34427 124.704 7.32027C124.704 5.72427 124.716 5.16027 124.896 4.70427C125.1 4.18827 125.556 3.97227 126.216 3.97227C126.852 3.97227 127.32 4.17627 127.536 4.70427C127.728 5.16027 127.728 5.92827 127.728 5.95227C127.728 7.52427 127.716 8.10027 127.536 8.54427C127.344 9.01227 126.936 9.27627 126.204 9.27627ZM136.049 4.53627C135.761 3.90027 135.257 3.61227 134.417 3.61227C133.481 3.61227 133.037 3.92427 132.725 4.66827C132.425 3.96027 131.993 3.62427 131.045 3.62427C130.313 3.62427 129.797 3.85227 129.509 4.32027V3.86427C129.509 3.76827 129.437 3.69627 129.341 3.69627C129.233 3.69627 129.161 3.76827 129.161 3.86427V9.45627C129.161 9.55227 129.233 9.62427 129.329 9.62427C129.437 9.62427 129.509 9.55227 129.509 9.45627V6.63627C129.509 5.88027 129.509 5.17227 129.713 4.69227C129.917 4.21227 130.289 3.97227 131.033 3.97227C131.753 3.97227 132.149 4.20027 132.365 4.68027C132.569 5.13627 132.569 5.79627 132.569 6.49227V9.45627C132.569 9.55227 132.641 9.62427 132.749 9.62427C132.845 9.62427 132.917 9.55227 132.917 9.45627V6.55227C132.917 5.79627 132.917 5.13627 133.097 4.66827C133.301 4.15227 133.757 3.97227 134.417 3.97227C135.101 3.97227 135.509 4.16427 135.725 4.66827C135.929 5.13627 135.941 5.78427 135.941 6.48027V9.45627C135.941 9.55227 136.013 9.62427 136.121 9.62427C136.217 9.62427 136.289 9.55227 136.289 9.45627V6.48027C136.289 5.74827 136.289 5.06427 136.049 4.53627ZM140.928 6.62427C141.108 6.62427 141.12 6.62427 141.12 6.32427C141.12 4.44027 140.64 3.62427 139.224 3.62427C137.508 3.62427 137.424 4.81227 137.376 6.06027C137.364 6.26427 137.364 6.37227 137.364 6.62427C137.364 8.12427 137.364 9.62427 139.2 9.62427C140.628 9.62427 141.048 8.72427 141.072 7.95627C141.072 7.81227 141.06 7.75227 140.94 7.72827C140.796 7.70427 140.76 7.80027 140.736 7.90827C140.652 8.28027 140.676 9.28827 139.212 9.28827C138.576 9.28827 138.144 9.09627 137.904 8.55627C137.712 8.11227 137.712 7.72827 137.712 6.62427H140.928ZM139.236 3.97227C140.448 3.97227 140.724 4.59627 140.772 6.27627H137.724C137.76 4.58427 138.036 3.97227 139.236 3.97227ZM142.372 9.62427C142.48 9.62427 142.552 9.55227 142.552 9.45627V6.63627C142.552 5.88027 142.552 5.17227 142.756 4.69227C142.96 4.21227 143.332 3.97227 144.076 3.97227C144.796 3.97227 145.192 4.20027 145.408 4.68027C145.612 5.13627 145.612 5.79627 145.612 6.49227V9.45627C145.612 9.55227 145.684 9.62427 145.792 9.62427C145.888 9.62427 145.96 9.55227 145.96 9.45627V6.55227C145.96 5.76027 145.972 5.06427 145.72 4.53627C145.456 3.92427 144.916 3.62427 144.088 3.62427C143.356 3.62427 142.84 3.85227 142.552 4.32027V3.86427C142.552 3.76827 142.48 3.69627 142.384 3.69627C142.276 3.69627 142.204 3.76827 142.204 3.86427V9.45627C142.204 9.55227 142.276 9.62427 142.372 9.62427ZM148.952 9.27627C148.376 9.21627 148.22 9.01227 148.136 8.84427C148.004 8.55627 147.992 8.16027 147.992 7.75227V3.97227H148.844C148.964 3.97227 149.036 3.90027 149.036 3.79227C149.036 3.70827 148.964 3.62427 148.844 3.62427H147.992V1.66827C147.992 1.57227 147.92 1.50027 147.824 1.50027C147.716 1.50027 147.644 1.57227 147.644 1.66827V3.62427H147.056C146.936 3.62427 146.864 3.70827 146.864 3.79227C146.864 3.90027 146.936 3.97227 147.056 3.97227H147.644V7.59627C147.644 8.14827 147.632 8.62827 147.812 9.03627C147.968 9.39627 148.508 9.62427 148.94 9.62427C149.072 9.62427 149.144 9.57627 149.144 9.48027C149.144 9.34827 149.072 9.28827 148.952 9.27627ZM151.1 9.25227C151.1 9.06027 150.932 8.89227 150.74 8.89227C150.536 8.89227 150.368 9.06027 150.368 9.25227C150.368 9.39627 150.452 9.52827 150.584 9.58827L150.356 10.0803C150.308 10.2003 150.404 10.2843 150.512 10.2843C150.572 10.2843 150.596 10.2603 150.62 10.2243C150.764 9.99627 150.98 9.60027 151.04 9.44427C151.076 9.38427 151.1 9.32427 151.1 9.25227ZM2.5202 20.6243C3.6362 20.6243 4.2602 19.9283 4.2602 19.0523C4.2602 17.8283 3.0242 17.5523 2.5082 17.4203C1.7402 17.2283 1.0682 16.9403 1.0682 16.2083C1.0682 15.4523 1.7522 14.9723 2.5442 14.9723C3.2042 14.9723 3.7202 15.3203 3.8762 15.9083C3.9242 16.1483 4.2362 16.1483 4.2362 15.8723C4.0802 15.1643 3.5162 14.6243 2.5442 14.6243C1.4402 14.6243 0.696196 15.3203 0.696196 16.1843C0.696196 17.1083 1.5482 17.5763 2.4362 17.7443C3.2882 17.9363 3.9122 18.3323 3.9122 19.0643C3.9122 19.7483 3.3602 20.2763 2.5322 20.2763C1.7882 20.2763 1.2002 19.8563 1.0682 19.3403C1.0202 19.1003 0.672196 19.0043 0.696196 19.3403C0.720196 19.7123 1.2482 20.6243 2.5202 20.6243ZM8.78757 17.6243C8.96757 17.6243 8.97957 17.6243 8.97957 17.3243C8.97957 15.4403 8.49957 14.6243 7.08357 14.6243C5.36757 14.6243 5.28357 15.8123 5.23557 17.0603C5.22357 17.2643 5.22357 17.3723 5.22357 17.6243C5.22357 19.1243 5.22357 20.6243 7.05957 20.6243C8.48757 20.6243 8.90757 19.7243 8.93157 18.9563C8.93157 18.8123 8.91957 18.7523 8.79957 18.7283C8.65557 18.7043 8.61957 18.8003 8.59557 18.9083C8.51157 19.2803 8.53557 20.2883 7.07157 20.2883C6.43557 20.2883 6.00357 20.0963 5.76357 19.5563C5.57157 19.1123 5.57157 18.7283 5.57157 17.6243H8.78757ZM7.09557 14.9723C8.30757 14.9723 8.58357 15.5963 8.63157 17.2763H5.58357C5.61957 15.5843 5.89557 14.9723 7.09557 14.9723ZM11.689 14.6243C9.82904 14.6243 9.82904 16.0883 9.82904 17.6363C9.82904 19.1723 9.82904 20.6243 11.689 20.6243C12.493 20.6243 12.949 20.3483 13.213 19.9163L13.201 20.6243C13.189 21.8963 13.153 22.7363 12.529 23.0483C12.229 23.1923 12.037 23.1803 11.077 23.1803C10.981 23.1803 10.897 23.2643 10.897 23.3603C10.897 23.4563 10.981 23.5403 11.077 23.5403H11.821C12.913 23.5403 13.381 22.9283 13.501 21.9803C13.549 21.5963 13.549 21.1523 13.549 20.6243V17.6363C13.549 16.0883 13.549 14.6243 11.689 14.6243ZM11.689 20.2883C10.981 20.2883 10.561 20.0483 10.357 19.5563C10.177 19.1003 10.165 18.4763 10.165 17.6003C10.165 16.7243 10.177 16.1483 10.357 15.6923C10.573 15.1523 11.065 14.9723 11.689 14.9723C12.325 14.9723 12.805 15.1643 13.021 15.6923C13.201 16.1363 13.213 16.7843 13.213 17.6603C13.213 18.5363 13.201 19.1123 13.021 19.5563C12.805 20.0843 12.325 20.2883 11.689 20.2883ZM18.2097 14.7083C18.1017 14.7083 18.0417 14.7803 18.0417 14.9003V17.6123C18.0417 18.3803 18.0297 19.0643 17.8137 19.5683C17.5857 20.1083 17.1657 20.2763 16.5177 20.2763C15.6897 20.2763 15.3777 20.0003 15.1977 19.5683C14.9937 19.0643 14.9817 18.3803 14.9817 17.6123V14.9003C14.9817 14.7803 14.9337 14.7083 14.8257 14.7083C14.7057 14.7083 14.6337 14.7803 14.6337 14.9003V17.6123C14.6337 19.1483 14.6337 20.6243 16.5057 20.6243C18.3897 20.6243 18.3897 19.1483 18.3897 17.6123V14.9003C18.3897 14.7803 18.3177 14.7083 18.2097 14.7083ZM23.0376 17.6243C23.2176 17.6243 23.2296 17.6243 23.2296 17.3243C23.2296 15.4403 22.7496 14.6243 21.3336 14.6243C19.6176 14.6243 19.5336 15.8123 19.4856 17.0603C19.4736 17.2643 19.4736 17.3723 19.4736 17.6243C19.4736 19.1243 19.4736 20.6243 21.3096 20.6243C22.7376 20.6243 23.1576 19.7243 23.1816 18.9563C23.1816 18.8123 23.1696 18.7523 23.0496 18.7283C22.9056 18.7043 22.8696 18.8003 22.8456 18.9083C22.7616 19.2803 22.7856 20.2883 21.3216 20.2883C20.6856 20.2883 20.2536 20.0963 20.0136 19.5563C19.8216 19.1123 19.8216 18.7283 19.8216 17.6243H23.0376ZM21.3456 14.9723C22.5576 14.9723 22.8336 15.5963 22.8816 17.2763H19.8336C19.8696 15.5843 20.1456 14.9723 21.3456 14.9723ZM24.6014 13.4243C24.7934 13.4243 24.9614 13.2563 24.9614 13.0523C24.9614 12.8603 24.7934 12.6923 24.6014 12.6923C24.3974 12.6923 24.2294 12.8603 24.2294 13.0523C24.2294 13.2563 24.3974 13.4243 24.6014 13.4243ZM24.5654 20.6243C24.6734 20.6243 24.7334 20.5523 24.7334 20.4323V14.8163C24.7334 14.6963 24.6734 14.6243 24.5654 14.6243C24.4454 14.6243 24.3854 14.6963 24.3854 14.8163V20.4323C24.3854 20.5523 24.4454 20.6243 24.5654 20.6243ZM28.2086 17.6243L29.9366 14.8883C29.9486 14.8643 29.9726 14.8283 29.9726 14.7803C29.9726 14.6963 29.8886 14.6243 29.7806 14.6243C29.7206 14.6243 29.6846 14.6483 29.6486 14.6963L27.9926 17.3003L26.3366 14.6963C26.3006 14.6483 26.2646 14.6243 26.2046 14.6243C26.0966 14.6243 26.0126 14.6963 26.0126 14.7803C26.0126 14.8283 26.0366 14.8643 26.0486 14.8883L27.7766 17.6243L26.0486 20.3603C26.0366 20.3843 26.0126 20.4203 26.0126 20.4683C26.0126 20.5523 26.0966 20.6243 26.2046 20.6243C26.2646 20.6243 26.3006 20.6003 26.3366 20.5523L27.9926 17.9483L29.6486 20.5523C29.6846 20.6003 29.7206 20.6243 29.7806 20.6243C29.8886 20.6243 29.9726 20.5523 29.9726 20.4683C29.9726 20.4203 29.9486 20.3843 29.9366 20.3603L28.2086 17.6243ZM37.1653 19.5443C37.0573 19.5443 36.9973 19.5923 36.9373 19.6883C36.6973 20.0963 36.3373 20.2763 35.7853 20.2883C35.0173 20.3123 34.5733 20.0723 34.3453 19.5563C34.1533 19.1003 34.1533 18.3323 34.1533 17.6363C34.1533 16.8803 34.1533 16.1603 34.3453 15.6923C34.5493 15.2243 34.9573 14.9603 35.7493 14.9723C36.3493 14.9843 36.7333 15.1763 36.9373 15.5603C36.9853 15.6443 37.0453 15.7043 37.1293 15.7043C37.2733 15.7043 37.3453 15.6083 37.2853 15.4763C37.0453 14.9483 36.5053 14.5883 35.5573 14.6243C33.8173 14.6843 33.8173 16.1243 33.8173 17.6363C33.8173 19.1363 33.8173 20.5643 35.5573 20.6243C35.5693 20.6243 35.5933 20.6243 35.6053 20.6243H35.7973C36.6253 20.5883 37.0453 20.2643 37.2853 19.7723C37.3453 19.6403 37.2853 19.5443 37.1653 19.5443ZM40.1439 20.6243C41.2599 20.6243 41.9559 19.9163 41.9559 18.7523V16.5563C41.9559 16.0163 41.7159 15.4283 41.4279 15.1283C41.1159 14.8043 40.6479 14.6243 40.0959 14.6243C39.5439 14.6243 39.0639 14.8043 38.7519 15.1283C38.4999 15.3923 38.2599 15.8723 38.2359 16.2203C38.2239 16.3763 38.2719 16.4483 38.3799 16.4483C38.5239 16.4483 38.5599 16.3403 38.5839 16.2443C38.7639 15.4403 39.1719 14.9603 40.0959 14.9603C40.5519 14.9603 40.9599 15.1043 41.1879 15.3683C41.4519 15.6563 41.6199 16.1603 41.6199 16.5563V17.6843C41.2599 17.1683 40.6959 16.8803 40.0839 16.8803C39.0399 16.8803 38.2119 17.7083 38.2119 18.8123C38.2119 19.8803 38.9919 20.6243 40.1439 20.6243ZM40.1199 20.2883C39.2079 20.2883 38.5599 19.7003 38.5599 18.8123C38.5599 17.9003 39.2319 17.2163 40.0959 17.2163C40.9479 17.2163 41.6199 17.8883 41.6199 18.8243C41.6199 19.6883 41.0319 20.2883 40.1199 20.2883ZM49.928 15.5363C49.64 14.9003 49.136 14.6123 48.296 14.6123C47.36 14.6123 46.916 14.9243 46.604 15.6683C46.304 14.9603 45.872 14.6243 44.924 14.6243C44.192 14.6243 43.676 14.8523 43.388 15.3203V14.8643C43.388 14.7683 43.316 14.6963 43.22 14.6963C43.112 14.6963 43.04 14.7683 43.04 14.8643V20.4563C43.04 20.5523 43.112 20.6243 43.208 20.6243C43.316 20.6243 43.388 20.5523 43.388 20.4563V17.6363C43.388 16.8803 43.388 16.1723 43.592 15.6923C43.796 15.2123 44.168 14.9723 44.912 14.9723C45.632 14.9723 46.028 15.2003 46.244 15.6803C46.448 16.1363 46.448 16.7963 46.448 17.4923V20.4563C46.448 20.5523 46.52 20.6243 46.628 20.6243C46.724 20.6243 46.796 20.5523 46.796 20.4563V17.5523C46.796 16.7963 46.796 16.1363 46.976 15.6683C47.18 15.1523 47.636 14.9723 48.296 14.9723C48.98 14.9723 49.388 15.1643 49.604 15.6683C49.808 16.1363 49.82 16.7843 49.82 17.4803V20.4563C49.82 20.5523 49.892 20.6243 50 20.6243C50.096 20.6243 50.168 20.5523 50.168 20.4563V17.4803C50.168 16.7483 50.168 16.0643 49.928 15.5363ZM51.6483 13.4243C51.8403 13.4243 52.0083 13.2563 52.0083 13.0523C52.0083 12.8603 51.8403 12.6923 51.6483 12.6923C51.4443 12.6923 51.2763 12.8603 51.2763 13.0523C51.2763 13.2563 51.4443 13.4243 51.6483 13.4243ZM51.6123 20.6243C51.7203 20.6243 51.7803 20.5523 51.7803 20.4323V14.8163C51.7803 14.6963 51.7203 14.6243 51.6123 14.6243C51.4923 14.6243 51.4323 14.6963 51.4323 14.8163V20.4323C51.4323 20.5523 51.4923 20.6243 51.6123 20.6243ZM53.5322 20.6243C53.6402 20.6243 53.7122 20.5523 53.7122 20.4563V17.6363C53.7122 16.8803 53.7122 16.1723 53.9162 15.6923C54.1202 15.2123 54.4922 14.9723 55.2362 14.9723C55.9562 14.9723 56.3522 15.2003 56.5682 15.6803C56.7722 16.1363 56.7722 16.7963 56.7722 17.4923V20.4563C56.7722 20.5523 56.8442 20.6243 56.9522 20.6243C57.0482 20.6243 57.1202 20.5523 57.1202 20.4563V17.5523C57.1202 16.7603 57.1322 16.0643 56.8802 15.5363C56.6162 14.9243 56.0762 14.6243 55.2482 14.6243C54.5162 14.6243 54.0002 14.8523 53.7122 15.3203V14.8643C53.7122 14.7683 53.6402 14.6963 53.5442 14.6963C53.4362 14.6963 53.3642 14.7683 53.3642 14.8643V20.4563C53.3642 20.5523 53.4362 20.6243 53.5322 20.6243ZM60.136 20.6243C61.252 20.6243 61.948 19.9163 61.948 18.7523V16.5563C61.948 16.0163 61.708 15.4283 61.42 15.1283C61.108 14.8043 60.64 14.6243 60.088 14.6243C59.536 14.6243 59.056 14.8043 58.744 15.1283C58.492 15.3923 58.252 15.8723 58.228 16.2203C58.216 16.3763 58.264 16.4483 58.372 16.4483C58.516 16.4483 58.552 16.3403 58.576 16.2443C58.756 15.4403 59.164 14.9603 60.088 14.9603C60.544 14.9603 60.952 15.1043 61.18 15.3683C61.444 15.6563 61.612 16.1603 61.612 16.5563V17.6843C61.252 17.1683 60.688 16.8803 60.076 16.8803C59.032 16.8803 58.204 17.7083 58.204 18.8123C58.204 19.8803 58.984 20.6243 60.136 20.6243ZM60.112 20.2883C59.2 20.2883 58.552 19.7003 58.552 18.8123C58.552 17.9003 59.224 17.2163 60.088 17.2163C60.94 17.2163 61.612 17.8883 61.612 18.8243C61.612 19.6883 61.024 20.2883 60.112 20.2883ZM63.2002 20.6243C63.3082 20.6243 63.3802 20.5523 63.3802 20.4563V17.6363C63.3802 16.8803 63.3802 16.1723 63.5842 15.6923C63.7882 15.2123 64.1602 14.9723 64.9042 14.9723C65.6242 14.9723 66.0202 15.2003 66.2362 15.6803C66.4402 16.1363 66.4402 16.7963 66.4402 17.4923V20.4563C66.4402 20.5523 66.5122 20.6243 66.6202 20.6243C66.7162 20.6243 66.7882 20.5523 66.7882 20.4563V17.5523C66.7882 16.7603 66.8002 16.0643 66.5482 15.5363C66.2842 14.9243 65.7442 14.6243 64.9162 14.6243C64.1842 14.6243 63.6682 14.8523 63.3802 15.3203V14.8643C63.3802 14.7683 63.3082 14.6963 63.2122 14.6963C63.1042 14.6963 63.0322 14.7683 63.0322 14.8643V20.4563C63.0322 20.5523 63.1042 20.6243 63.2002 20.6243ZM69.78 20.2763C69.204 20.2163 69.048 20.0123 68.964 19.8443C68.832 19.5563 68.82 19.1603 68.82 18.7523V14.9723H69.672C69.792 14.9723 69.864 14.9003 69.864 14.7923C69.864 14.7083 69.792 14.6243 69.672 14.6243H68.82V12.6683C68.82 12.5723 68.748 12.5003 68.652 12.5003C68.544 12.5003 68.472 12.5723 68.472 12.6683V14.6243H67.884C67.764 14.6243 67.692 14.7083 67.692 14.7923C67.692 14.9003 67.764 14.9723 67.884 14.9723H68.472V18.5963C68.472 19.1483 68.46 19.6283 68.64 20.0363C68.796 20.3963 69.336 20.6243 69.768 20.6243C69.9 20.6243 69.972 20.5763 69.972 20.4803C69.972 20.3483 69.9 20.2883 69.78 20.2763ZM71.5205 20.6243C71.7125 20.6243 71.8805 20.4563 71.8805 20.2523C71.8805 20.0603 71.7125 19.8923 71.5205 19.8923C71.3165 19.8923 71.1485 20.0603 71.1485 20.2523C71.1485 20.4563 71.3165 20.6243 71.5205 20.6243Z" fill="currentColor"/>
</svg>
