<svg viewBox="0 0 156 23" fill="none" xmlns="http://www.w3.org/2000/svg">
<path d="M1.068 8.832V1.044C1.068 0.948 0.996 0.875999 0.9 0.875999C0.792 0.875999 0.72 0.948 0.72 1.044V8.832C0.72 8.928 0.792 9 0.9 9C0.996 9 1.068 8.928 1.068 8.832ZM3.69816 8.652C3.18216 8.604 3.01416 8.364 2.93016 8.196C2.81016 7.92 2.79816 7.536 2.79816 7.116V1.068C2.79816 0.948 2.73816 0.875999 2.63016 0.875999C2.52216 0.875999 2.45016 0.948 2.45016 1.068V6.936C2.45016 7.464 2.43816 7.98 2.64216 8.364C2.82216 8.76 3.17016 8.964 3.68616 9C3.81816 9.012 3.89016 8.952 3.89016 8.832C3.89016 8.724 3.81816 8.664 3.69816 8.652ZM11.2555 3C11.1835 3 11.1115 3.036 11.0875 3.12L9.50353 8.436L7.91953 3.12C7.89553 3.036 7.82353 3 7.75153 3C7.61953 3 7.53553 3.108 7.57153 3.228L9.26353 8.808C9.29953 8.928 9.39553 9 9.50353 9C9.61153 9 9.70753 8.928 9.74353 8.808L11.4355 3.228C11.4595 3.12 11.3755 3 11.2555 3ZM12.8046 1.8C12.9966 1.8 13.1646 1.632 13.1646 1.428C13.1646 1.236 12.9966 1.068 12.8046 1.068C12.6006 1.068 12.4326 1.236 12.4326 1.428C12.4326 1.632 12.6006 1.8 12.8046 1.8ZM12.7686 9C12.8766 9 12.9366 8.928 12.9366 8.808V3.192C12.9366 3.072 12.8766 3 12.7686 3C12.6486 3 12.5886 3.072 12.5886 3.192V8.808C12.5886 8.928 12.6486 9 12.7686 9ZM17.7798 6C17.9598 6 17.9718 6 17.9718 5.7C17.9718 3.816 17.4918 3 16.0758 3C14.3598 3 14.2758 4.188 14.2278 5.436C14.2158 5.64 14.2158 5.748 14.2158 6C14.2158 7.5 14.2158 9 16.0518 9C17.4798 9 17.8998 8.1 17.9238 7.332C17.9238 7.188 17.9118 7.128 17.7918 7.104C17.6478 7.08 17.6118 7.176 17.5878 7.284C17.5038 7.656 17.5278 8.664 16.0638 8.664C15.4278 8.664 14.9958 8.472 14.7558 7.932C14.5638 7.488 14.5638 7.104 14.5638 6H17.7798ZM16.0878 3.348C17.2998 3.348 17.5758 3.972 17.6238 5.652H14.5758C14.6118 3.96 14.8878 3.348 16.0878 3.348ZM19.2236 9C19.3316 9 19.4036 8.928 19.4036 8.832V6.012C19.4036 5.256 19.4036 4.548 19.6076 4.068C19.8116 3.588 20.1836 3.348 20.9276 3.348C21.6476 3.348 22.0436 3.576 22.2596 4.056C22.4636 4.512 22.4636 5.172 22.4636 5.868V8.832C22.4636 8.928 22.5356 9 22.6436 9C22.7396 9 22.8116 8.928 22.8116 8.832V5.928C22.8116 5.136 22.8236 4.44 22.5716 3.912C22.3076 3.3 21.7676 3 20.9396 3C20.2076 3 19.6916 3.228 19.4036 3.696V3.24C19.4036 3.144 19.3316 3.072 19.2356 3.072C19.1276 3.072 19.0556 3.144 19.0556 3.24V8.832C19.0556 8.928 19.1276 9 19.2236 9ZM25.8035 8.652C25.2275 8.592 25.0715 8.388 24.9875 8.22C24.8555 7.932 24.8435 7.536 24.8435 7.128V3.348H25.6955C25.8155 3.348 25.8875 3.276 25.8875 3.168C25.8875 3.084 25.8155 3 25.6955 3H24.8435V1.044C24.8435 0.948 24.7715 0.875999 24.6755 0.875999C24.5675 0.875999 24.4955 0.948 24.4955 1.044V3H23.9075C23.7875 3 23.7155 3.084 23.7155 3.168C23.7155 3.276 23.7875 3.348 23.9075 3.348H24.4955V6.972C24.4955 7.524 24.4835 8.004 24.6635 8.412C24.8195 8.772 25.3595 9 25.7915 9C25.9235 9 25.9955 8.952 25.9955 8.856C25.9955 8.724 25.9235 8.664 25.8035 8.652ZM33.2371 3.084C33.1291 3.084 33.0691 3.156 33.0691 3.276V5.988C33.0691 6.756 33.0571 7.44 32.8411 7.944C32.6131 8.484 32.1931 8.652 31.5451 8.652C30.7171 8.652 30.4051 8.376 30.2251 7.944C30.0211 7.44 30.0091 6.756 30.0091 5.988V3.276C30.0091 3.156 29.9611 3.084 29.8531 3.084C29.7331 3.084 29.6611 3.156 29.6611 3.276V5.988C29.6611 7.524 29.6611 9 31.5331 9C33.4171 9 33.4171 7.524 33.4171 5.988V3.276C33.4171 3.156 33.3451 3.084 33.2371 3.084ZM34.6689 9C34.7769 9 34.8489 8.928 34.8489 8.832V6.012C34.8489 5.256 34.8489 4.548 35.0529 4.068C35.2569 3.588 35.6289 3.348 36.3729 3.348C37.0929 3.348 37.4889 3.576 37.7049 4.056C37.9089 4.512 37.9089 5.172 37.9089 5.868V8.832C37.9089 8.928 37.9809 9 38.0889 9C38.1849 9 38.2569 8.928 38.2569 8.832V5.928C38.2569 5.136 38.2689 4.44 38.0169 3.912C37.7529 3.3 37.2129 3 36.3849 3C35.6529 3 35.1369 3.228 34.8489 3.696V3.24C34.8489 3.144 34.7769 3.072 34.6809 3.072C34.5729 3.072 34.5009 3.144 34.5009 3.24V8.832C34.5009 8.928 34.5729 9 34.6689 9ZM42.9048 6C43.0848 6 43.0968 6 43.0968 5.7C43.0968 3.816 42.6168 3 41.2008 3C39.4848 3 39.4008 4.188 39.3528 5.436C39.3408 5.64 39.3408 5.748 39.3408 6C39.3408 7.5 39.3408 9 41.1768 9C42.6048 9 43.0248 8.1 43.0488 7.332C43.0488 7.188 43.0368 7.128 42.9168 7.104C42.7728 7.08 42.7368 7.176 42.7128 7.284C42.6288 7.656 42.6528 8.664 41.1888 8.664C40.5528 8.664 40.1208 8.472 39.8808 7.932C39.6888 7.488 39.6888 7.104 39.6888 6H42.9048ZM41.2128 3.348C42.4248 3.348 42.7008 3.972 42.7488 5.652H39.7008C39.7368 3.96 40.0128 3.348 41.2128 3.348ZM50.4623 3.912C50.1983 3.288 49.6823 3 48.8303 3C48.0143 3 47.5703 3.264 47.2943 3.708V1.068C47.2943 0.948 47.2343 0.875999 47.1263 0.875999C47.0063 0.875999 46.9463 0.948 46.9463 1.068V8.808C46.9463 8.928 47.0063 9 47.1143 9C47.2223 9 47.2943 8.928 47.2943 8.808V6C47.2943 5.268 47.2943 4.56 47.4983 4.068C47.7023 3.564 48.0863 3.336 48.8063 3.336C49.5503 3.336 49.9703 3.576 50.1623 4.056C50.3423 4.524 50.3423 5.172 50.3423 5.868V8.808C50.3423 8.928 50.4023 9 50.5103 9C50.6183 9 50.6903 8.928 50.6903 8.808V5.868C50.6903 5.136 50.6903 4.452 50.4623 3.912ZM55.3384 6C55.5184 6 55.5304 6 55.5304 5.7C55.5304 3.816 55.0504 3 53.6344 3C51.9184 3 51.8344 4.188 51.7864 5.436C51.7744 5.64 51.7744 5.748 51.7744 6C51.7744 7.5 51.7744 9 53.6104 9C55.0384 9 55.4584 8.1 55.4824 7.332C55.4824 7.188 55.4704 7.128 55.3504 7.104C55.2064 7.08 55.1704 7.176 55.1464 7.284C55.0624 7.656 55.0864 8.664 53.6224 8.664C52.9864 8.664 52.5544 8.472 52.3144 7.932C52.1224 7.488 52.1224 7.104 52.1224 6H55.3384ZM53.6464 3.348C54.8584 3.348 55.1344 3.972 55.1824 5.652H52.1344C52.1704 3.96 52.4464 3.348 53.6464 3.348ZM60.1902 3.084C60.0822 3.084 60.0222 3.156 60.0222 3.276V5.988C60.0222 6.756 60.0102 7.44 59.7942 7.944C59.5662 8.484 59.1462 8.652 58.4982 8.652C57.6702 8.652 57.3582 8.376 57.1782 7.944C56.9742 7.44 56.9622 6.756 56.9622 5.988V3.276C56.9622 3.156 56.9142 3.084 56.8062 3.084C56.6862 3.084 56.6142 3.156 56.6142 3.276V5.988C56.6142 7.524 56.6142 9 58.4862 9C60.3702 9 60.3702 7.524 60.3702 5.988V3.276C60.3702 3.156 60.2982 3.084 60.1902 3.084ZM64.8924 3.528C64.7964 3.396 64.5444 3.216 64.2564 3.108C63.4404 2.808 62.4204 3.036 62.0244 3.72V3.204C62.0244 3.084 61.9644 3.012 61.8564 3.012C61.7484 3.012 61.6884 3.084 61.6884 3.204V8.808C61.6884 8.94 61.7364 9 61.8444 9C61.9524 9 62.0364 8.928 62.0364 8.808V6.012C62.0364 5.904 62.0124 5.064 62.0844 4.62C62.1924 3.96 62.4084 3.324 63.5484 3.324C63.9804 3.324 64.2804 3.456 64.5804 3.732C64.6644 3.816 64.7724 3.9 64.8804 3.816C64.9524 3.768 64.9884 3.66 64.8924 3.528ZM69.0024 6C69.1824 6 69.1944 6 69.1944 5.7C69.1944 3.816 68.7144 3 67.2984 3C65.5824 3 65.4984 4.188 65.4504 5.436C65.4384 5.64 65.4384 5.748 65.4384 6C65.4384 7.5 65.4384 9 67.2744 9C68.7024 9 69.1224 8.1 69.1464 7.332C69.1464 7.188 69.1344 7.128 69.0144 7.104C68.8704 7.08 68.8344 7.176 68.8104 7.284C68.7264 7.656 68.7504 8.664 67.2864 8.664C66.6504 8.664 66.2184 8.472 65.9784 7.932C65.7864 7.488 65.7864 7.104 65.7864 6H69.0024ZM67.3104 3.348C68.5224 3.348 68.7984 3.972 68.8464 5.652H65.7984C65.8344 3.96 66.1104 3.348 67.3104 3.348ZM74.9039 9C76.7639 9 76.7639 7.548 76.7639 6.012C76.7639 4.464 76.7639 3 74.9039 3C73.0439 3 73.0439 4.464 73.0439 6.012C73.0439 7.548 73.0439 9 74.9039 9ZM74.8919 8.652C74.1959 8.652 73.7879 8.412 73.5839 7.92C73.3919 7.44 73.3919 6.72 73.3919 6.696C73.3919 5.1 73.4039 4.536 73.5839 4.08C73.7879 3.564 74.2439 3.348 74.9039 3.348C75.5399 3.348 76.0079 3.552 76.2239 4.08C76.4159 4.536 76.4159 5.304 76.4159 5.328C76.4159 6.9 76.4039 7.476 76.2239 7.92C76.0319 8.388 75.6239 8.652 74.8919 8.652ZM78.7126 0.215999C78.6286 0.275999 78.6046 0.372 78.6646 0.48L79.6006 2.148C79.6606 2.244 79.7566 2.28 79.8526 2.232C79.9366 2.172 79.9606 2.076 79.9006 1.968L78.9646 0.3C78.9046 0.204 78.8086 0.167999 78.7126 0.215999ZM81.4246 3.084C81.3166 3.084 81.2566 3.156 81.2566 3.276V5.988C81.2566 6.756 81.2446 7.44 81.0286 7.944C80.8006 8.484 80.3806 8.652 79.7326 8.652C78.9046 8.652 78.5926 8.376 78.4126 7.944C78.2086 7.44 78.1966 6.756 78.1966 5.988V3.276C78.1966 3.156 78.1486 3.084 78.0406 3.084C77.9206 3.084 77.8486 3.156 77.8486 3.276V5.988C77.8486 7.524 77.8486 9 79.7206 9C81.6046 9 81.6046 7.524 81.6046 5.988V3.276C81.6046 3.156 81.5326 3.084 81.4246 3.084ZM87.3381 3C85.4541 3 85.4541 4.464 85.4541 5.988V10.956C85.4541 11.052 85.5261 11.124 85.6221 11.124C85.7301 11.124 85.8021 11.052 85.8021 10.956V8.268C86.0541 8.7 86.5101 9 87.3501 9C89.2101 9 89.2101 7.524 89.2101 5.988C89.2101 4.44 89.2101 3 87.3381 3ZM88.6701 7.92C88.4661 8.436 88.0101 8.652 87.3501 8.652C86.7141 8.652 86.2461 8.448 86.0301 7.92C85.8501 7.464 85.8381 6.864 85.8381 5.976C85.8381 5.088 85.8501 4.524 86.0301 4.08C86.2461 3.552 86.7141 3.348 87.3501 3.348C88.0581 3.348 88.4661 3.588 88.6701 4.08C88.8501 4.536 88.8621 5.148 88.8621 6.024C88.8621 6.9 88.8501 7.464 88.6701 7.92ZM93.4979 3.528C93.4019 3.396 93.1499 3.216 92.8619 3.108C92.0459 2.808 91.0259 3.036 90.6299 3.72V3.204C90.6299 3.084 90.5699 3.012 90.4619 3.012C90.3539 3.012 90.2939 3.084 90.2939 3.204V8.808C90.2939 8.94 90.3419 9 90.4499 9C90.5579 9 90.6419 8.928 90.6419 8.808V6.012C90.6419 5.904 90.6179 5.064 90.6899 4.62C90.7979 3.96 91.0139 3.324 92.1539 3.324C92.5859 3.324 92.8859 3.456 93.1859 3.732C93.2699 3.816 93.3779 3.9 93.4859 3.816C93.5579 3.768 93.5939 3.66 93.4979 3.528ZM95.9039 9C97.7639 9 97.7639 7.548 97.7639 6.012C97.7639 4.464 97.7639 3 95.9039 3C94.0439 3 94.0439 4.464 94.0439 6.012C94.0439 7.548 94.0439 9 95.9039 9ZM95.8919 8.652C95.1959 8.652 94.7879 8.412 94.5839 7.92C94.3919 7.44 94.3919 6.72 94.3919 6.696C94.3919 5.1 94.4039 4.536 94.5839 4.08C94.7879 3.564 95.2439 3.348 95.9039 3.348C96.5399 3.348 97.0079 3.552 97.2239 4.08C97.4159 4.536 97.4159 5.304 97.4159 5.328C97.4159 6.9 97.4039 7.476 97.2239 7.92C97.0319 8.388 96.6239 8.652 95.8919 8.652ZM100.522 8.652C99.9462 8.592 99.7902 8.388 99.7062 8.22C99.5742 7.932 99.5622 7.536 99.5622 7.128V3.348H100.414C100.534 3.348 100.606 3.276 100.606 3.168C100.606 3.084 100.534 3 100.414 3H99.5622V1.044C99.5622 0.948 99.4902 0.875999 99.3942 0.875999C99.2862 0.875999 99.2142 0.948 99.2142 1.044V3H98.6262C98.5062 3 98.4342 3.084 98.4342 3.168C98.4342 3.276 98.5062 3.348 98.6262 3.348H99.2142V6.972C99.2142 7.524 99.2022 8.004 99.3822 8.412C99.5382 8.772 100.078 9 100.51 9C100.642 9 100.714 8.952 100.714 8.856C100.714 8.724 100.642 8.664 100.522 8.652ZM105.061 6C105.241 6 105.253 6 105.253 5.7C105.253 3.816 104.773 3 103.357 3C101.641 3 101.557 4.188 101.509 5.436C101.497 5.64 101.497 5.748 101.497 6C101.497 7.5 101.497 9 103.333 9C104.761 9 105.181 8.1 105.205 7.332C105.205 7.188 105.193 7.128 105.073 7.104C104.929 7.08 104.893 7.176 104.869 7.284C104.785 7.656 104.809 8.664 103.345 8.664C102.709 8.664 102.277 8.472 102.037 7.932C101.845 7.488 101.845 7.104 101.845 6H105.061ZM103.369 3.348C104.581 3.348 104.857 3.972 104.905 5.652H101.857C101.893 3.96 102.169 3.348 103.369 3.348ZM107.993 9C109.109 9 109.733 8.304 109.733 7.428C109.733 6.204 108.497 5.928 107.981 5.796C107.213 5.604 106.541 5.316 106.541 4.584C106.541 3.828 107.225 3.348 108.017 3.348C108.677 3.348 109.193 3.696 109.349 4.284C109.397 4.524 109.709 4.524 109.709 4.248C109.553 3.54 108.989 3 108.017 3C106.913 3 106.169 3.696 106.169 4.56C106.169 5.484 107.021 5.952 107.909 6.12C108.761 6.312 109.385 6.708 109.385 7.44C109.385 8.124 108.833 8.652 108.005 8.652C107.261 8.652 106.673 8.232 106.541 7.716C106.493 7.476 106.145 7.38 106.169 7.716C106.193 8.088 106.721 9 107.993 9ZM112.604 8.652C112.028 8.592 111.872 8.388 111.788 8.22C111.656 7.932 111.644 7.536 111.644 7.128V3.348H112.496C112.616 3.348 112.688 3.276 112.688 3.168C112.688 3.084 112.616 3 112.496 3H111.644V1.044C111.644 0.948 111.572 0.875999 111.476 0.875999C111.368 0.875999 111.296 0.948 111.296 1.044V3H110.708C110.588 3 110.516 3.084 110.516 3.168C110.516 3.276 110.588 3.348 110.708 3.348H111.296V6.972C111.296 7.524 111.284 8.004 111.464 8.412C111.62 8.772 112.16 9 112.592 9C112.724 9 112.796 8.952 112.796 8.856C112.796 8.724 112.724 8.664 112.604 8.652ZM117.143 6C117.323 6 117.335 6 117.335 5.7C117.335 3.816 116.855 3 115.439 3C113.723 3 113.639 4.188 113.591 5.436C113.579 5.64 113.579 5.748 113.579 6C113.579 7.5 113.579 9 115.415 9C116.843 9 117.263 8.1 117.287 7.332C117.287 7.188 117.275 7.128 117.155 7.104C117.011 7.08 116.975 7.176 116.951 7.284C116.867 7.656 116.891 8.664 115.427 8.664C114.791 8.664 114.359 8.472 114.119 7.932C113.927 7.488 113.927 7.104 113.927 6H117.143ZM115.451 3.348C116.663 3.348 116.939 3.972 116.987 5.652H113.939C113.975 3.96 114.251 3.348 115.451 3.348ZM121.623 3.528C121.527 3.396 121.275 3.216 120.987 3.108C120.171 2.808 119.151 3.036 118.755 3.72V3.204C118.755 3.084 118.695 3.012 118.587 3.012C118.479 3.012 118.419 3.084 118.419 3.204V8.808C118.419 8.94 118.467 9 118.575 9C118.683 9 118.767 8.928 118.767 8.808V6.012C118.767 5.904 118.743 5.064 118.815 4.62C118.923 3.96 119.139 3.324 120.279 3.324C120.711 3.324 121.011 3.456 121.311 3.732C121.395 3.816 121.503 3.9 121.611 3.816C121.683 3.768 121.719 3.66 121.623 3.528ZM125.103 9C125.211 9 125.283 8.928 125.283 8.832V6.012C125.283 5.256 125.283 4.548 125.487 4.068C125.691 3.588 126.063 3.348 126.807 3.348C127.527 3.348 127.923 3.576 128.139 4.056C128.343 4.512 128.343 5.172 128.343 5.868V8.832C128.343 8.928 128.415 9 128.523 9C128.619 9 128.691 8.928 128.691 8.832V5.928C128.691 5.136 128.703 4.44 128.451 3.912C128.187 3.3 127.647 3 126.819 3C126.087 3 125.571 3.228 125.283 3.696V3.24C125.283 3.144 125.211 3.072 125.115 3.072C125.007 3.072 124.935 3.144 124.935 3.24V8.832C124.935 8.928 125.007 9 125.103 9ZM133.338 6C133.518 6 133.53 6 133.53 5.7C133.53 3.816 133.05 3 131.634 3C129.918 3 129.834 4.188 129.786 5.436C129.774 5.64 129.774 5.748 129.774 6C129.774 7.5 129.774 9 131.61 9C133.038 9 133.458 8.1 133.482 7.332C133.482 7.188 133.47 7.128 133.35 7.104C133.206 7.08 133.17 7.176 133.146 7.284C133.062 7.656 133.086 8.664 131.622 8.664C130.986 8.664 130.554 8.472 130.314 7.932C130.122 7.488 130.122 7.104 130.122 6H133.338ZM131.646 3.348C132.858 3.348 133.134 3.972 133.182 5.652H130.134C130.17 3.96 130.446 3.348 131.646 3.348ZM139.036 9C140.152 9 140.776 8.304 140.776 7.428C140.776 6.204 139.54 5.928 139.024 5.796C138.256 5.604 137.584 5.316 137.584 4.584C137.584 3.828 138.268 3.348 139.06 3.348C139.72 3.348 140.236 3.696 140.392 4.284C140.44 4.524 140.752 4.524 140.752 4.248C140.596 3.54 140.032 3 139.06 3C137.956 3 137.212 3.696 137.212 4.56C137.212 5.484 138.064 5.952 138.952 6.12C139.804 6.312 140.428 6.708 140.428 7.44C140.428 8.124 139.876 8.652 139.048 8.652C138.304 8.652 137.716 8.232 137.584 7.716C137.536 7.476 137.188 7.38 137.212 7.716C137.236 8.088 137.764 9 139.036 9ZM145.315 3.084C145.207 3.084 145.147 3.156 145.147 3.276V5.988C145.147 6.756 145.135 7.44 144.919 7.944C144.691 8.484 144.271 8.652 143.623 8.652C142.795 8.652 142.483 8.376 142.303 7.944C142.099 7.44 142.087 6.756 142.087 5.988V3.276C142.087 3.156 142.039 3.084 141.931 3.084C141.811 3.084 141.739 3.156 141.739 3.276V5.988C141.739 7.524 141.739 9 143.611 9C145.495 9 145.495 7.524 145.495 5.988V3.276C145.495 3.156 145.423 3.084 145.315 3.084ZM148.679 0.875999H148.295C147.131 0.875999 146.711 1.596 146.615 2.436C146.591 2.712 146.579 3.036 146.579 3.348V8.76C146.579 8.916 146.639 9 146.759 9C146.867 9 146.927 8.916 146.927 8.76V4.188V3.348H147.899C147.995 3.348 148.067 3.276 148.067 3.168C148.067 3.072 147.995 3 147.899 3H146.939C146.939 2.7 146.951 2.58 146.963 2.424C147.083 1.668 147.443 1.212 148.283 1.212H148.679C148.763 1.212 148.847 1.14 148.847 1.044C148.847 0.948 148.763 0.875999 148.679 0.875999ZM152.327 3C152.327 3 152.327 3 152.315 3H149.435C149.435 2.7 149.447 2.58 149.459 2.424C149.579 1.668 149.939 1.212 150.779 1.212H151.175C151.259 1.212 151.343 1.14 151.343 1.044C151.343 0.948 151.259 0.875999 151.175 0.875999H150.791C149.627 0.875999 149.207 1.596 149.111 2.436C149.087 2.712 149.075 3.036 149.075 3.348V8.76C149.075 8.916 149.135 9 149.255 9C149.363 9 149.423 8.916 149.423 8.76V4.188V3.348H152.147V8.808C152.147 8.928 152.207 9 152.327 9C152.435 9 152.495 8.928 152.495 8.808V3.192C152.495 3.072 152.435 3 152.327 3ZM152.363 1.068C152.159 1.068 151.991 1.236 151.991 1.428C151.991 1.632 152.159 1.8 152.363 1.8C152.555 1.8 152.723 1.632 152.723 1.428C152.723 1.236 152.555 1.068 152.363 1.068ZM155.706 8.652C155.13 8.592 154.974 8.388 154.89 8.22C154.758 7.932 154.746 7.536 154.746 7.128V3.348H155.598C155.718 3.348 155.79 3.276 155.79 3.168C155.79 3.084 155.718 3 155.598 3H154.746V1.044C154.746 0.948 154.674 0.875999 154.578 0.875999C154.47 0.875999 154.398 0.948 154.398 1.044V3H153.81C153.69 3 153.618 3.084 153.618 3.168C153.618 3.276 153.69 3.348 153.81 3.348H154.398V6.972C154.398 7.524 154.386 8.004 154.566 8.412C154.722 8.772 155.262 9 155.694 9C155.826 9 155.898 8.952 155.898 8.856C155.898 8.724 155.826 8.664 155.706 8.652ZM2.424 14C0.54 14 0.54 15.464 0.54 16.988V21.956C0.54 22.052 0.612 22.124 0.708 22.124C0.816 22.124 0.888 22.052 0.888 21.956V19.268C1.14 19.7 1.596 20 2.436 20C4.296 20 4.296 18.524 4.296 16.988C4.296 15.44 4.296 14 2.424 14ZM3.756 18.92C3.552 19.436 3.096 19.652 2.436 19.652C1.8 19.652 1.332 19.448 1.116 18.92C0.936 18.464 0.924 17.864 0.924 16.976C0.924 16.088 0.936 15.524 1.116 15.08C1.332 14.552 1.8 14.348 2.436 14.348C3.144 14.348 3.552 14.588 3.756 15.08C3.936 15.536 3.948 16.148 3.948 17.024C3.948 17.9 3.936 18.464 3.756 18.92ZM6.68644 19.652C6.17044 19.604 6.00244 19.364 5.91844 19.196C5.79844 18.92 5.78644 18.536 5.78644 18.116V12.068C5.78644 11.948 5.72644 11.876 5.61844 11.876C5.51044 11.876 5.43844 11.948 5.43844 12.068V17.936C5.43844 18.464 5.42644 18.98 5.63044 19.364C5.81044 19.76 6.15844 19.964 6.67444 20C6.80644 20.012 6.87844 19.952 6.87844 19.832C6.87844 19.724 6.80644 19.664 6.68644 19.652ZM10.9949 14.084C10.8869 14.084 10.8269 14.156 10.8269 14.276V16.988C10.8269 17.756 10.8149 18.44 10.5989 18.944C10.3709 19.484 9.95091 19.652 9.30291 19.652C8.47491 19.652 8.16291 19.376 7.98291 18.944C7.77891 18.44 7.76691 17.756 7.76691 16.988V14.276C7.76691 14.156 7.71891 14.084 7.61091 14.084C7.49091 14.084 7.41891 14.156 7.41891 14.276V16.988C7.41891 18.524 7.41891 20 9.29091 20C11.1749 20 11.1749 18.524 11.1749 16.988V14.276C11.1749 14.156 11.1029 14.084 10.9949 14.084ZM13.9148 20C15.0308 20 15.6548 19.304 15.6548 18.428C15.6548 17.204 14.4188 16.928 13.9028 16.796C13.1348 16.604 12.4628 16.316 12.4628 15.584C12.4628 14.828 13.1468 14.348 13.9388 14.348C14.5988 14.348 15.1148 14.696 15.2708 15.284C15.3188 15.524 15.6308 15.524 15.6308 15.248C15.4748 14.54 14.9108 14 13.9388 14C12.8348 14 12.0908 14.696 12.0908 15.56C12.0908 16.484 12.9428 16.952 13.8308 17.12C14.6828 17.312 15.3068 17.708 15.3068 18.44C15.3068 19.124 14.7548 19.652 13.9268 19.652C13.1828 19.652 12.5948 19.232 12.4628 18.716C12.4148 18.476 12.0668 18.38 12.0908 18.716C12.1147 19.088 12.6428 20 13.9148 20ZM17.6741 19.628C17.6741 19.436 17.5061 19.268 17.3141 19.268C17.1101 19.268 16.9421 19.436 16.9421 19.628C16.9421 19.772 17.0261 19.904 17.1581 19.964L16.9301 20.456C16.8821 20.576 16.9781 20.66 17.0861 20.66C17.1461 20.66 17.1701 20.636 17.1941 20.6C17.3381 20.372 17.5541 19.976 17.6141 19.82C17.6501 19.76 17.6741 19.7 17.6741 19.628ZM22.8626 20C23.9786 20 24.6746 19.292 24.6746 18.128V15.932C24.6746 15.392 24.4346 14.804 24.1466 14.504C23.8346 14.18 23.3666 14 22.8146 14C22.2626 14 21.7826 14.18 21.4706 14.504C21.2186 14.768 20.9786 15.248 20.9546 15.596C20.9426 15.752 20.9906 15.824 21.0986 15.824C21.2426 15.824 21.2786 15.716 21.3026 15.62C21.4826 14.816 21.8906 14.336 22.8146 14.336C23.2706 14.336 23.6786 14.48 23.9066 14.744C24.1706 15.032 24.3386 15.536 24.3386 15.932V17.06C23.9786 16.544 23.4146 16.256 22.8026 16.256C21.7586 16.256 20.9306 17.084 20.9306 18.188C20.9306 19.256 21.7106 20 22.8626 20ZM22.8386 19.664C21.9266 19.664 21.2786 19.076 21.2786 18.188C21.2786 17.276 21.9506 16.592 22.8146 16.592C23.6666 16.592 24.3386 17.264 24.3386 18.2C24.3386 19.064 23.7506 19.664 22.8386 19.664ZM27.4084 14C25.5244 14 25.5244 15.464 25.5244 16.988V21.956C25.5244 22.052 25.5964 22.124 25.6924 22.124C25.8004 22.124 25.8724 22.052 25.8724 21.956V19.268C26.1244 19.7 26.5804 20 27.4204 20C29.2804 20 29.2804 18.524 29.2804 16.988C29.2804 15.44 29.2804 14 27.4084 14ZM28.7404 18.92C28.5364 19.436 28.0804 19.652 27.4204 19.652C26.7844 19.652 26.3164 19.448 26.1004 18.92C25.9204 18.464 25.9084 17.864 25.9084 16.976C25.9084 16.088 25.9204 15.524 26.1004 15.08C26.3164 14.552 26.7844 14.348 27.4204 14.348C28.1284 14.348 28.5364 14.588 28.7404 15.08C28.9204 15.536 28.9324 16.148 28.9324 17.024C28.9324 17.9 28.9204 18.464 28.7404 18.92ZM33.5682 14.528C33.4722 14.396 33.2202 14.216 32.9322 14.108C32.1162 13.808 31.0962 14.036 30.7002 14.72V14.204C30.7002 14.084 30.6402 14.012 30.5322 14.012C30.4242 14.012 30.3642 14.084 30.3642 14.204V19.808C30.3642 19.94 30.4122 20 30.5202 20C30.6282 20 30.7122 19.928 30.7122 19.808V17.012C30.7122 16.904 30.6882 16.064 30.7602 15.62C30.8682 14.96 31.0842 14.324 32.2242 14.324C32.6562 14.324 32.9562 14.456 33.2562 14.732C33.3402 14.816 33.4482 14.9 33.5562 14.816C33.6282 14.768 33.6642 14.66 33.5682 14.528ZM35.8662 13.148C35.9262 13.244 36.0222 13.28 36.1182 13.232C36.2022 13.172 36.2262 13.076 36.1662 12.968L35.2302 11.3C35.1702 11.204 35.0742 11.168 34.9782 11.216C34.8942 11.276 34.8702 11.372 34.9302 11.48L35.8662 13.148ZM37.6782 17C37.8582 17 37.8702 17 37.8702 16.7C37.8702 14.816 37.3902 14 35.9742 14C34.2582 14 34.1742 15.188 34.1262 16.436C34.1142 16.64 34.1142 16.748 34.1142 17C34.1142 18.5 34.1142 20 35.9502 20C37.3782 20 37.7982 19.1 37.8222 18.332C37.8222 18.188 37.8102 18.128 37.6902 18.104C37.5462 18.08 37.5102 18.176 37.4862 18.284C37.4022 18.656 37.4262 19.664 35.9622 19.664C35.3262 19.664 34.8942 19.472 34.6542 18.932C34.4622 18.488 34.4622 18.104 34.4622 17H37.6782ZM35.9862 14.348C37.1982 14.348 37.4742 14.972 37.5222 16.652H34.4742C34.5102 14.96 34.7862 14.348 35.9862 14.348ZM40.6101 20C41.7261 20 42.3501 19.304 42.3501 18.428C42.3501 17.204 41.1141 16.928 40.5981 16.796C39.8301 16.604 39.1581 16.316 39.1581 15.584C39.1581 14.828 39.8421 14.348 40.6341 14.348C41.2941 14.348 41.8101 14.696 41.9661 15.284C42.0141 15.524 42.3261 15.524 42.3261 15.248C42.1701 14.54 41.6061 14 40.6341 14C39.5301 14 38.7861 14.696 38.7861 15.56C38.7861 16.484 39.6381 16.952 40.5261 17.12C41.3781 17.312 42.0021 17.708 42.0021 18.44C42.0021 19.124 41.4501 19.652 40.6221 19.652C39.8781 19.652 39.2901 19.232 39.1581 18.716C39.1101 18.476 38.7621 18.38 38.7861 18.716C38.8101 19.088 39.3381 20 40.6101 20ZM47.3271 19.652C46.8111 19.604 46.6431 19.364 46.5591 19.196C46.4391 18.92 46.4271 18.536 46.4271 18.116V12.068C46.4271 11.948 46.3671 11.876 46.2591 11.876C46.1511 11.876 46.0791 11.948 46.0791 12.068V17.936C46.0791 18.464 46.0671 18.98 46.2711 19.364C46.4511 19.76 46.7991 19.964 47.3151 20C47.4471 20.012 47.5191 19.952 47.5191 19.832C47.5191 19.724 47.4471 19.664 47.3271 19.652ZM49.9915 20C51.1075 20 51.8035 19.292 51.8035 18.128V15.932C51.8035 15.392 51.5635 14.804 51.2755 14.504C50.9635 14.18 50.4955 14 49.9435 14C49.3915 14 48.9115 14.18 48.5995 14.504C48.3475 14.768 48.1075 15.248 48.0835 15.596C48.0715 15.752 48.1195 15.824 48.2275 15.824C48.3715 15.824 48.4075 15.716 48.4315 15.62C48.6115 14.816 49.0195 14.336 49.9435 14.336C50.3995 14.336 50.8075 14.48 51.0355 14.744C51.2995 15.032 51.4675 15.536 51.4675 15.932V17.06C51.1075 16.544 50.5435 16.256 49.9315 16.256C48.8875 16.256 48.0595 17.084 48.0595 18.188C48.0595 19.256 48.8395 20 49.9915 20ZM49.9675 19.664C49.0555 19.664 48.4075 19.076 48.4075 18.188C48.4075 17.276 49.0795 16.592 49.9435 16.592C50.7955 16.592 51.4675 17.264 51.4675 18.2C51.4675 19.064 50.8795 19.664 49.9675 19.664ZM57.5373 14C55.6533 14 55.6533 15.464 55.6533 16.988V21.956C55.6533 22.052 55.7253 22.124 55.8213 22.124C55.9293 22.124 56.0013 22.052 56.0013 21.956V19.268C56.2533 19.7 56.7093 20 57.5493 20C59.4093 20 59.4093 18.524 59.4093 16.988C59.4093 15.44 59.4093 14 57.5373 14ZM58.8693 18.92C58.6653 19.436 58.2093 19.652 57.5493 19.652C56.9133 19.652 56.4453 19.448 56.2293 18.92C56.0493 18.464 56.0373 17.864 56.0373 16.976C56.0373 16.088 56.0493 15.524 56.2293 15.08C56.4453 14.552 56.9133 14.348 57.5493 14.348C58.2573 14.348 58.6653 14.588 58.8693 15.08C59.0493 15.536 59.0613 16.148 59.0613 17.024C59.0613 17.9 59.0493 18.464 58.8693 18.92ZM64.0091 14.912C63.7451 14.288 63.2291 14 62.3771 14C61.5611 14 61.1171 14.264 60.8411 14.708V12.068C60.8411 11.948 60.7811 11.876 60.6731 11.876C60.5531 11.876 60.4931 11.948 60.4931 12.068V19.808C60.4931 19.928 60.5531 20 60.6611 20C60.7691 20 60.8411 19.928 60.8411 19.808V17C60.8411 16.268 60.8411 15.56 61.0451 15.068C61.2491 14.564 61.6331 14.336 62.3531 14.336C63.0971 14.336 63.5171 14.576 63.7091 15.056C63.8891 15.524 63.8891 16.172 63.8891 16.868V19.808C63.8891 19.928 63.9491 20 64.0571 20C64.1651 20 64.2371 19.928 64.2371 19.808V16.868C64.2371 16.136 64.2371 15.452 64.0091 14.912ZM65.6093 12.8C65.8013 12.8 65.9693 12.632 65.9693 12.428C65.9693 12.236 65.8013 12.068 65.6093 12.068C65.4053 12.068 65.2373 12.236 65.2373 12.428C65.2373 12.632 65.4053 12.8 65.6093 12.8ZM65.5732 20C65.6813 20 65.7413 19.928 65.7413 19.808V14.192C65.7413 14.072 65.6813 14 65.5732 14C65.4533 14 65.3933 14.072 65.3933 14.192V19.808C65.3933 19.928 65.4533 20 65.5732 20ZM68.4091 19.652C67.8931 19.604 67.7251 19.364 67.6411 19.196C67.5211 18.92 67.5091 18.536 67.5091 18.116V12.068C67.5091 11.948 67.4491 11.876 67.3411 11.876C67.2331 11.876 67.1611 11.948 67.1611 12.068V17.936C67.1611 18.464 67.1491 18.98 67.3531 19.364C67.5331 19.76 67.8811 19.964 68.3971 20C68.5291 20.012 68.6011 19.952 68.6011 19.832C68.6011 19.724 68.5291 19.664 68.4091 19.652ZM71.0016 20C72.8616 20 72.8616 18.548 72.8616 17.012C72.8616 15.464 72.8616 14 71.0016 14C69.1416 14 69.1416 15.464 69.1416 17.012C69.1416 18.548 69.1416 20 71.0016 20ZM70.9896 19.652C70.2936 19.652 69.8856 19.412 69.6816 18.92C69.4896 18.44 69.4896 17.72 69.4896 17.696C69.4896 16.1 69.5016 15.536 69.6816 15.08C69.8856 14.564 70.3416 14.348 71.0016 14.348C71.6376 14.348 72.1056 14.552 72.3216 15.08C72.5136 15.536 72.5136 16.304 72.5136 16.328C72.5136 17.9 72.5016 18.476 72.3216 18.92C72.1296 19.388 71.7216 19.652 70.9896 19.652ZM75.6023 20C76.7183 20 77.3423 19.304 77.3423 18.428C77.3423 17.204 76.1063 16.928 75.5903 16.796C74.8223 16.604 74.1503 16.316 74.1503 15.584C74.1503 14.828 74.8343 14.348 75.6263 14.348C76.2863 14.348 76.8023 14.696 76.9583 15.284C77.0063 15.524 77.3183 15.524 77.3183 15.248C77.1623 14.54 76.5983 14 75.6263 14C74.5223 14 73.7783 14.696 73.7783 15.56C73.7783 16.484 74.6303 16.952 75.5183 17.12C76.3703 17.312 76.9943 17.708 76.9943 18.44C76.9943 19.124 76.4423 19.652 75.6143 19.652C74.8703 19.652 74.2823 19.232 74.1503 18.716C74.1023 18.476 73.7543 18.38 73.7783 18.716C73.8022 19.088 74.3303 20 75.6023 20ZM80.1656 20C82.0256 20 82.0256 18.548 82.0256 17.012C82.0256 15.464 82.0256 14 80.1656 14C78.3056 14 78.3056 15.464 78.3056 17.012C78.3056 18.548 78.3056 20 80.1656 20ZM80.1536 19.652C79.4576 19.652 79.0496 19.412 78.8456 18.92C78.6536 18.44 78.6536 17.72 78.6536 17.696C78.6536 16.1 78.6656 15.536 78.8456 15.08C79.0496 14.564 79.5056 14.348 80.1656 14.348C80.8016 14.348 81.2696 14.552 81.4856 15.08C81.6776 15.536 81.6776 16.304 81.6776 16.328C81.6776 17.9 81.6656 18.476 81.4856 18.92C81.2936 19.388 80.8856 19.652 80.1536 19.652ZM84.7599 14C82.8759 14 82.8759 15.464 82.8759 16.988V21.956C82.8759 22.052 82.9479 22.124 83.0439 22.124C83.1519 22.124 83.2239 22.052 83.2239 21.956V19.268C83.4759 19.7 83.9319 20 84.7719 20C86.6319 20 86.6319 18.524 86.6319 16.988C86.6319 15.44 86.6319 14 84.7599 14ZM86.0919 18.92C85.8879 19.436 85.4319 19.652 84.7719 19.652C84.1359 19.652 83.6679 19.448 83.4519 18.92C83.2719 18.464 83.2599 17.864 83.2599 16.976C83.2599 16.088 83.2719 15.524 83.4519 15.08C83.6679 14.552 84.1359 14.348 84.7719 14.348C85.4799 14.348 85.8879 14.588 86.0919 15.08C86.2719 15.536 86.2839 16.148 86.2839 17.024C86.2839 17.9 86.2719 18.464 86.0919 18.92ZM91.2318 14.912C90.9678 14.288 90.4518 14 89.5998 14C88.7838 14 88.3398 14.264 88.0638 14.708V12.068C88.0638 11.948 88.0038 11.876 87.8958 11.876C87.7758 11.876 87.7158 11.948 87.7158 12.068V19.808C87.7158 19.928 87.7758 20 87.8838 20C87.9918 20 88.0638 19.928 88.0638 19.808V17C88.0638 16.268 88.0638 15.56 88.2678 15.068C88.4718 14.564 88.8558 14.336 89.5758 14.336C90.3198 14.336 90.7398 14.576 90.9318 15.056C91.1118 15.524 91.1118 16.172 91.1118 16.868V19.808C91.1118 19.928 91.1718 20 91.2798 20C91.3878 20 91.4598 19.928 91.4598 19.808V16.868C91.4598 16.136 91.4598 15.452 91.2318 14.912ZM92.8319 12.8C93.0239 12.8 93.1919 12.632 93.1919 12.428C93.1919 12.236 93.0239 12.068 92.8319 12.068C92.6279 12.068 92.4599 12.236 92.4599 12.428C92.4599 12.632 92.6279 12.8 92.8319 12.8ZM92.7959 20C92.9039 20 92.9639 19.928 92.9639 19.808V14.192C92.9639 14.072 92.9039 14 92.7959 14C92.6759 14 92.6159 14.072 92.6159 14.192V19.808C92.6159 19.928 92.6759 20 92.7959 20ZM97.8071 17C97.9871 17 97.9991 17 97.9991 16.7C97.9991 14.816 97.5191 14 96.1031 14C94.3871 14 94.3031 15.188 94.2551 16.436C94.2431 16.64 94.2431 16.748 94.2431 17C94.2431 18.5 94.2431 20 96.0791 20C97.5071 20 97.9271 19.1 97.9511 18.332C97.9511 18.188 97.9391 18.128 97.8191 18.104C97.6751 18.08 97.6391 18.176 97.6151 18.284C97.5311 18.656 97.5551 19.664 96.0911 19.664C95.4551 19.664 95.0231 19.472 94.7831 18.932C94.5911 18.488 94.5911 18.104 94.5911 17H97.8071ZM96.1151 14.348C97.3271 14.348 97.6031 14.972 97.6511 16.652H94.6031C94.6391 14.96 94.9151 14.348 96.1151 14.348ZM100.139 19.628C100.139 19.436 99.971 19.268 99.779 19.268C99.575 19.268 99.407 19.436 99.407 19.628C99.407 19.772 99.491 19.904 99.623 19.964L99.395 20.456C99.347 20.576 99.443 20.66 99.551 20.66C99.611 20.66 99.635 20.636 99.659 20.6C99.803 20.372 100.019 19.976 100.079 19.82C100.115 19.76 100.139 19.7 100.139 19.628ZM103.683 12.8C103.875 12.8 104.043 12.632 104.043 12.428C104.043 12.236 103.875 12.068 103.683 12.068C103.479 12.068 103.311 12.236 103.311 12.428C103.311 12.632 103.479 12.8 103.683 12.8ZM103.647 20C103.755 20 103.815 19.928 103.815 19.808V14.192C103.815 14.072 103.755 14 103.647 14C103.527 14 103.467 14.072 103.467 14.192V19.808C103.467 19.928 103.527 20 103.647 20ZM106.483 19.652C105.967 19.604 105.799 19.364 105.715 19.196C105.595 18.92 105.583 18.536 105.583 18.116V12.068C105.583 11.948 105.523 11.876 105.415 11.876C105.307 11.876 105.235 11.948 105.235 12.068V17.936C105.235 18.464 105.223 18.98 105.427 19.364C105.607 19.76 105.955 19.964 106.471 20C106.603 20.012 106.675 19.952 106.675 19.832C106.675 19.724 106.603 19.664 106.483 19.652ZM112.445 11.876H112.061C110.897 11.876 110.477 12.596 110.381 13.436C110.357 13.712 110.345 14.036 110.345 14.348V19.76C110.345 19.916 110.405 20 110.525 20C110.633 20 110.693 19.916 110.693 19.76V15.188V14.348H111.665C111.761 14.348 111.833 14.276 111.833 14.168C111.833 14.072 111.761 14 111.665 14H110.705C110.705 13.7 110.717 13.58 110.729 13.424C110.849 12.668 111.209 12.212 112.049 12.212H112.445C112.529 12.212 112.613 12.14 112.613 12.044C112.613 11.948 112.529 11.876 112.445 11.876ZM114.41 20C115.526 20 116.222 19.292 116.222 18.128V15.932C116.222 15.392 115.982 14.804 115.694 14.504C115.382 14.18 114.914 14 114.362 14C113.81 14 113.33 14.18 113.018 14.504C112.766 14.768 112.526 15.248 112.502 15.596C112.49 15.752 112.538 15.824 112.646 15.824C112.79 15.824 112.826 15.716 112.85 15.62C113.03 14.816 113.438 14.336 114.362 14.336C114.818 14.336 115.226 14.48 115.454 14.744C115.718 15.032 115.886 15.536 115.886 15.932V17.06C115.526 16.544 114.962 16.256 114.35 16.256C113.306 16.256 112.478 17.084 112.478 18.188C112.478 19.256 113.258 20 114.41 20ZM114.386 19.664C113.474 19.664 112.826 19.076 112.826 18.188C112.826 17.276 113.498 16.592 114.362 16.592C115.214 16.592 115.886 17.264 115.886 18.2C115.886 19.064 115.298 19.664 114.386 19.664ZM120.882 14.084C120.774 14.084 120.714 14.156 120.714 14.276V16.988C120.714 17.756 120.702 18.44 120.486 18.944C120.258 19.484 119.838 19.652 119.19 19.652C118.362 19.652 118.05 19.376 117.87 18.944C117.666 18.44 117.654 17.756 117.654 16.988V14.276C117.654 14.156 117.606 14.084 117.498 14.084C117.378 14.084 117.306 14.156 117.306 14.276V16.988C117.306 18.524 117.306 20 119.178 20C121.062 20 121.062 18.524 121.062 16.988V14.276C121.062 14.156 120.99 14.084 120.882 14.084ZM124.053 19.652C123.477 19.592 123.321 19.388 123.237 19.22C123.105 18.932 123.093 18.536 123.093 18.128V14.348H123.945C124.065 14.348 124.137 14.276 124.137 14.168C124.137 14.084 124.065 14 123.945 14H123.093V12.044C123.093 11.948 123.021 11.876 122.925 11.876C122.817 11.876 122.745 11.948 122.745 12.044V14H122.157C122.037 14 121.965 14.084 121.965 14.168C121.965 14.276 122.037 14.348 122.157 14.348H122.745V17.972C122.745 18.524 122.733 19.004 122.913 19.412C123.069 19.772 123.609 20 124.041 20C124.173 20 124.245 19.952 124.245 19.856C124.245 19.724 124.173 19.664 124.053 19.652ZM129.159 19.652C128.643 19.604 128.475 19.364 128.391 19.196C128.271 18.92 128.259 18.536 128.259 18.116V12.068C128.259 11.948 128.199 11.876 128.091 11.876C127.983 11.876 127.911 11.948 127.911 12.068V17.936C127.911 18.464 127.899 18.98 128.103 19.364C128.283 19.76 128.631 19.964 129.147 20C129.279 20.012 129.351 19.952 129.351 19.832C129.351 19.724 129.279 19.664 129.159 19.652ZM131.023 14.084C131.011 14.072 131.011 14.048 131.011 14.036L130.567 12.02C130.543 11.912 130.471 11.852 130.363 11.876C130.255 11.9 130.219 11.984 130.243 12.104L130.615 13.784C130.435 13.808 130.291 13.964 130.291 14.144C130.291 14.348 130.459 14.516 130.651 14.516C130.855 14.516 131.023 14.348 131.023 14.144V14.084ZM133.605 20C134.721 20 135.417 19.292 135.417 18.128V15.932C135.417 15.392 135.177 14.804 134.889 14.504C134.577 14.18 134.109 14 133.557 14C133.005 14 132.525 14.18 132.213 14.504C131.961 14.768 131.721 15.248 131.697 15.596C131.685 15.752 131.733 15.824 131.841 15.824C131.985 15.824 132.021 15.716 132.045 15.62C132.225 14.816 132.633 14.336 133.557 14.336C134.013 14.336 134.421 14.48 134.649 14.744C134.913 15.032 135.081 15.536 135.081 15.932V17.06C134.721 16.544 134.157 16.256 133.545 16.256C132.501 16.256 131.673 17.084 131.673 18.188C131.673 19.256 132.453 20 133.605 20ZM133.581 19.664C132.669 19.664 132.021 19.076 132.021 18.188C132.021 17.276 132.693 16.592 133.557 16.592C134.409 16.592 135.081 17.264 135.081 18.2C135.081 19.064 134.493 19.664 133.581 19.664ZM139.615 18.92C139.507 18.92 139.447 18.968 139.387 19.064C139.147 19.472 138.787 19.652 138.235 19.664C137.467 19.688 137.023 19.448 136.795 18.932C136.603 18.476 136.603 17.708 136.603 17.012C136.603 16.256 136.603 15.536 136.795 15.068C136.999 14.6 137.407 14.336 138.199 14.348C138.799 14.36 139.183 14.552 139.387 14.936C139.435 15.02 139.495 15.08 139.579 15.08C139.723 15.08 139.795 14.984 139.735 14.852C139.495 14.324 138.955 13.964 138.007 14C136.267 14.06 136.267 15.5 136.267 17.012C136.267 18.512 136.267 19.94 138.007 20C138.019 20 138.043 20 138.055 20H138.247C139.075 19.964 139.495 19.64 139.735 19.148C139.795 19.016 139.735 18.92 139.615 18.92ZM142.569 19.652C141.993 19.592 141.837 19.388 141.753 19.22C141.621 18.932 141.609 18.536 141.609 18.128V14.348H142.461C142.581 14.348 142.653 14.276 142.653 14.168C142.653 14.084 142.581 14 142.461 14H141.609V12.044C141.609 11.948 141.537 11.876 141.441 11.876C141.333 11.876 141.261 11.948 141.261 12.044V14H140.673C140.553 14 140.481 14.084 140.481 14.168C140.481 14.276 140.553 14.348 140.673 14.348H141.261V17.972C141.261 18.524 141.249 19.004 141.429 19.412C141.585 19.772 142.125 20 142.557 20C142.689 20 142.761 19.952 142.761 19.856C142.761 19.724 142.689 19.664 142.569 19.652ZM144.125 12.8C144.317 12.8 144.485 12.632 144.485 12.428C144.485 12.236 144.317 12.068 144.125 12.068C143.921 12.068 143.753 12.236 143.753 12.428C143.753 12.632 143.921 12.8 144.125 12.8ZM144.089 20C144.197 20 144.257 19.928 144.257 19.808V14.192C144.257 14.072 144.197 14 144.089 14C143.969 14 143.909 14.072 143.909 14.192V19.808C143.909 19.928 143.969 20 144.089 20ZM147.396 20C149.256 20 149.256 18.548 149.256 17.012C149.256 15.464 149.256 14 147.396 14C145.536 14 145.536 15.464 145.536 17.012C145.536 18.548 145.536 20 147.396 20ZM147.384 19.652C146.688 19.652 146.28 19.412 146.076 18.92C145.884 18.44 145.884 17.72 145.884 17.696C145.884 16.1 145.896 15.536 146.076 15.08C146.28 14.564 146.736 14.348 147.396 14.348C148.032 14.348 148.5 14.552 148.716 15.08C148.908 15.536 148.908 16.304 148.908 16.328C148.908 17.9 148.896 18.476 148.716 18.92C148.524 19.388 148.116 19.652 147.384 19.652ZM150.509 20C150.617 20 150.689 19.928 150.689 19.832V17.012C150.689 16.256 150.689 15.548 150.893 15.068C151.097 14.588 151.469 14.348 152.213 14.348C152.933 14.348 153.329 14.576 153.545 15.056C153.749 15.512 153.749 16.172 153.749 16.868V19.832C153.749 19.928 153.821 20 153.929 20C154.025 20 154.097 19.928 154.097 19.832V16.928C154.097 16.136 154.109 15.44 153.857 14.912C153.593 14.3 153.053 14 152.225 14C151.493 14 150.977 14.228 150.689 14.696V14.24C150.689 14.144 150.617 14.072 150.521 14.072C150.413 14.072 150.341 14.144 150.341 14.24V19.832C150.341 19.928 150.413 20 150.509 20Z" fill="currentColor"/>
</svg>
