<svg  viewBox="0 0 397 91" fill="none" xmlns="http://www.w3.org/2000/svg">
<path d="M8.3 34C12.95 34 15.85 31.05 15.85 26.2V17.05C15.85 14.8 14.85 12.35 13.65 11.1C12.35 9.75 10.4 9 8.1 9C5.8 9 3.8 9.75 2.5 11.1C1.45 12.2 0.45 14.2 0.35 15.65C0.3 16.3 0.5 16.6 0.95 16.6C1.55 16.6 1.7 16.15 1.8 15.75C2.55 12.4 4.25 10.4 8.1 10.4C10 10.4 11.7 11 12.65 12.1C13.75 13.3 14.45 15.4 14.45 17.05V21.75C12.95 19.6 10.6 18.4 8.05 18.4C3.7 18.4 0.25 21.85 0.25 26.45C0.25 30.9 3.5 34 8.3 34ZM8.2 32.6C4.4 32.6 1.7 30.15 1.7 26.45C1.7 22.65 4.5 19.8 8.1 19.8C11.65 19.8 14.45 22.6 14.45 26.5C14.45 30.1 12 32.6 8.2 32.6ZM42.7906 9C39.2906 9 37.3906 10.25 36.3406 12.05V0.849998C36.3406 0.45 36.0406 0.149998 35.5906 0.149998C35.1906 0.149998 34.8906 0.45 34.8906 0.849998V21.55C34.8906 27.9 34.8906 34 42.7406 34C50.5406 34 50.5406 28 50.5406 21.55C50.5406 15.15 50.5406 9 42.7906 9ZM48.2906 29.5C47.4406 31.55 45.7406 32.55 42.7906 32.55C40.1406 32.55 38.1906 31.7 37.2906 29.5C36.5406 27.65 36.4906 25.3 36.4906 21.6C36.4906 17.9 36.5406 15.4 37.2906 13.5C38.1906 11.3 40.1406 10.45 42.7906 10.45C45.5406 10.45 47.4406 11.35 48.2906 13.5C49.0406 15.4 49.0906 17.75 49.0906 21.4C49.0906 25.05 49.0406 27.6 48.2906 29.5ZM83.5301 29.5C83.0801 29.5 82.8301 29.7 82.5801 30.1C81.5801 31.8 80.0801 32.55 77.7801 32.6C74.5801 32.7 72.7301 31.7 71.7801 29.55C70.9801 27.65 70.9801 24.45 70.9801 21.55C70.9801 18.4 70.9801 15.4 71.7801 13.45C72.6301 11.5 74.3301 10.4 77.6301 10.45C80.1301 10.5 81.7301 11.3 82.5801 12.9C82.7801 13.25 83.0301 13.5 83.3801 13.5C83.9801 13.5 84.2801 13.1 84.0301 12.55C83.0301 10.35 80.7801 8.85 76.8301 9C69.5801 9.25 69.5801 15.25 69.5801 21.55C69.5801 27.8 69.5801 33.75 76.8301 34C76.8801 34 76.9801 34 77.0301 34H77.8301C81.2801 33.85 83.0301 32.5 84.0301 30.45C84.2801 29.9 84.0301 29.5 83.5301 29.5ZM118.341 0.149998C117.891 0.149998 117.591 0.45 117.591 0.849998V12.05C116.541 10.25 114.641 9 111.141 9C103.391 9 103.391 15.15 103.391 21.55C103.391 28 103.391 34 111.191 34C119.041 34 119.041 27.9 119.041 21.55V0.849998C119.041 0.45 118.741 0.149998 118.341 0.149998ZM116.641 29.5C115.741 31.7 113.791 32.55 111.141 32.55C108.191 32.55 106.491 31.55 105.641 29.5C104.891 27.6 104.841 25.05 104.841 21.4C104.841 17.75 104.891 15.4 105.641 13.5C106.491 11.35 108.391 10.45 111.141 10.45C113.791 10.45 115.741 11.3 116.641 13.5C117.391 15.4 117.441 17.9 117.441 21.6C117.441 25.3 117.391 27.65 116.641 29.5ZM152.93 21.5C153.68 21.5 153.73 21.5 153.73 20.25C153.73 12.4 151.73 9 145.83 9C138.68 9 138.33 13.95 138.13 19.15C138.08 20 138.08 20.45 138.08 21.5C138.08 27.75 138.08 34 145.73 34C151.68 34 153.43 30.25 153.53 27.05C153.53 26.45 153.48 26.2 152.98 26.1C152.38 26 152.23 26.4 152.13 26.85C151.78 28.4 151.88 32.6 145.78 32.6C143.13 32.6 141.33 31.8 140.33 29.55C139.53 27.7 139.53 26.1 139.53 21.5H152.93ZM145.88 10.45C150.93 10.45 152.08 13.05 152.28 20.05H139.58C139.73 13 140.88 10.45 145.88 10.45ZM181.52 0.149998H179.92C175.07 0.149998 173.32 3.15 172.92 6.65C172.82 7.8 172.77 9.15 172.77 10.45V33C172.77 33.65 173.02 34 173.52 34C173.97 34 174.22 33.65 174.22 33V13.95V10.45H178.27C178.67 10.45 178.97 10.15 178.97 9.7C178.97 9.3 178.67 9 178.27 9H174.27C174.27 7.75 174.32 7.25 174.37 6.6C174.87 3.45 176.37 1.55 179.87 1.55H181.52C181.87 1.55 182.22 1.25 182.22 0.849998C182.22 0.45 181.87 0.149998 181.52 0.149998ZM205.443 9C197.693 9 197.693 15.1 197.693 21.55C197.693 27.95 197.693 34 205.443 34C208.793 34 210.693 32.85 211.793 31.05L211.743 34C211.693 39.3 211.543 42.8 208.943 44.1C207.693 44.7 206.893 44.65 202.893 44.65C202.493 44.65 202.143 45 202.143 45.4C202.143 45.8 202.493 46.15 202.893 46.15H205.993C210.543 46.15 212.493 43.6 212.993 39.65C213.193 38.05 213.193 36.2 213.193 34V21.55C213.193 15.1 213.193 9 205.443 9ZM205.443 32.6C202.493 32.6 200.743 31.6 199.893 29.55C199.143 27.65 199.093 25.05 199.093 21.4C199.093 17.75 199.143 15.35 199.893 13.45C200.793 11.2 202.843 10.45 205.443 10.45C208.093 10.45 210.093 11.25 210.993 13.45C211.743 15.3 211.793 18 211.793 21.65C211.793 25.3 211.743 27.7 210.993 29.55C210.093 31.75 208.093 32.6 205.443 32.6ZM246.886 12.8C245.786 10.2 243.636 9 240.086 9C236.686 9 234.836 10.1 233.686 11.95V0.949999C233.686 0.45 233.436 0.149998 232.986 0.149998C232.486 0.149998 232.236 0.45 232.236 0.949999V33.2C232.236 33.7 232.486 34 232.936 34C233.386 34 233.686 33.7 233.686 33.2V21.5C233.686 18.45 233.686 15.5 234.536 13.45C235.386 11.35 236.986 10.4 239.986 10.4C243.086 10.4 244.836 11.4 245.636 13.4C246.386 15.35 246.386 18.05 246.386 20.95V33.2C246.386 33.7 246.636 34 247.086 34C247.536 34 247.836 33.7 247.836 33.2V20.95C247.836 17.9 247.836 15.05 246.886 12.8ZM268.077 4C268.877 4 269.577 3.3 269.577 2.45C269.577 1.65 268.877 0.949999 268.077 0.949999C267.227 0.949999 266.527 1.65 266.527 2.45C266.527 3.3 267.227 4 268.077 4ZM267.927 34C268.377 34 268.627 33.7 268.627 33.2V9.8C268.627 9.3 268.377 9 267.927 9C267.427 9 267.177 9.3 267.177 9.8V33.2C267.177 33.7 267.427 34 267.927 34ZM289.15 3.95C289.95 3.95 290.65 3.25 290.65 2.4C290.65 1.6 289.95 0.899997 289.15 0.899997C288.3 0.899997 287.6 1.6 287.6 2.4C287.6 3.25 288.3 3.95 289.15 3.95ZM284.4 46.15C287.75 45.7 289.35 43.05 289.75 39.75C289.95 38.25 289.95 36.5 289.95 34.5V9.85C289.95 9.35 289.7 9.05 289.25 9.05C288.75 9.05 288.5 9.35 288.5 9.85V33.65C288.5 39.6 288.45 43.95 284.15 44.65C283.8 44.7 283.5 45.05 283.5 45.4C283.5 45.85 284 46.2 284.4 46.15ZM324.843 33L312.593 19.3L322.343 10.25C322.843 9.8 322.943 9.3 322.593 9C322.243 8.7 321.843 8.75 321.343 9.2L311.093 18.75V0.949999C311.093 0.45 310.843 0.149998 310.393 0.149998C309.943 0.149998 309.693 0.45 309.693 0.949999V33.2C309.693 33.7 309.893 34 310.343 34C310.793 34 311.093 33.7 311.093 33.2V20.8L311.643 20.25L323.543 33.55C323.843 33.9 324.093 34 324.393 34C325.043 34 325.293 33.55 324.843 33ZM347.581 32.55C345.431 32.35 344.731 31.35 344.381 30.65C343.881 29.5 343.831 27.9 343.831 26.15V0.949999C343.831 0.45 343.581 0.149998 343.131 0.149998C342.681 0.149998 342.381 0.45 342.381 0.949999V25.4C342.381 27.6 342.331 29.75 343.181 31.35C343.931 33 345.381 33.85 347.531 34C348.081 34.05 348.381 33.8 348.381 33.3C348.381 32.85 348.081 32.6 347.581 32.55ZM395.37 12.8C394.17 10.15 392.07 8.95 388.57 8.95C384.67 8.95 382.82 10.25 381.52 13.35C380.27 10.4 378.47 9 374.52 9C371.47 9 369.32 9.95 368.12 11.9V10C368.12 9.6 367.82 9.3 367.42 9.3C366.97 9.3 366.67 9.6 366.67 10V33.3C366.67 33.7 366.97 34 367.37 34C367.82 34 368.12 33.7 368.12 33.3V21.55C368.12 18.4 368.12 15.45 368.97 13.45C369.82 11.45 371.37 10.45 374.47 10.45C377.47 10.45 379.12 11.4 380.02 13.4C380.87 15.3 380.87 18.05 380.87 20.95V33.3C380.87 33.7 381.17 34 381.62 34C382.02 34 382.32 33.7 382.32 33.3V21.2C382.32 18.05 382.32 15.3 383.07 13.35C383.92 11.2 385.82 10.45 388.57 10.45C391.42 10.45 393.12 11.25 394.02 13.35C394.87 15.3 394.92 18 394.92 20.9V33.3C394.92 33.7 395.22 34 395.67 34C396.07 34 396.37 33.7 396.37 33.3V20.9C396.37 17.85 396.37 15 395.37 12.8ZM0.95 79C1.4 79 1.7 78.7 1.7 78.3V66.55C1.7 63.4 1.7 60.45 2.55 58.45C3.4 56.45 4.95 55.45 8.05 55.45C11.05 55.45 12.7 56.4 13.6 58.4C14.45 60.3 14.45 63.05 14.45 65.95V78.3C14.45 78.7 14.75 79 15.2 79C15.6 79 15.9 78.7 15.9 78.3V66.2C15.9 62.9 15.95 60 14.9 57.8C13.8 55.25 11.55 54 8.1 54C5.05 54 2.9 54.95 1.7 56.9V55C1.7 54.6 1.4 54.3 1 54.3C0.55 54.3 0.25 54.6 0.25 55V78.3C0.25 78.7 0.55 79 0.95 79ZM39.6895 79C47.4395 79 47.4395 72.95 47.4395 66.55C47.4395 60.1 47.4395 54 39.6895 54C31.9395 54 31.9395 60.1 31.9395 66.55C31.9395 72.95 31.9395 79 39.6895 79ZM39.6395 77.55C36.7395 77.55 35.0395 76.55 34.1895 74.5C33.3895 72.5 33.3895 69.5 33.3895 69.4C33.3895 62.75 33.4395 60.4 34.1895 58.5C35.0395 56.35 36.9395 55.45 39.6895 55.45C42.3395 55.45 44.2895 56.3 45.1895 58.5C45.9895 60.4 45.9895 63.6 45.9895 63.7C45.9895 70.25 45.9395 72.65 45.1895 74.5C44.3895 76.45 42.6895 77.55 39.6395 77.55ZM71.3324 54C63.4824 54 63.4824 60.1 63.4824 66.45V87.15C63.4824 87.55 63.7824 87.85 64.1824 87.85C64.6324 87.85 64.9324 87.55 64.9324 87.15V75.95C65.9824 77.75 67.8824 79 71.3824 79C79.1324 79 79.1324 72.85 79.1324 66.45C79.1324 60 79.1324 54 71.3324 54ZM76.8824 74.5C76.0324 76.65 74.1324 77.55 71.3824 77.55C68.7324 77.55 66.7824 76.7 65.8824 74.5C65.1324 72.6 65.0824 70.1 65.0824 66.4C65.0824 62.7 65.1324 60.35 65.8824 58.5C66.7824 56.3 68.7324 55.45 71.3824 55.45C74.3324 55.45 76.0324 56.45 76.8824 58.5C77.6324 60.4 77.6824 62.95 77.6824 66.6C77.6824 70.25 77.6324 72.6 76.8824 74.5ZM102.972 54C95.1719 54 95.1719 60 95.1719 66.45C95.1719 72.85 95.1719 79 102.922 79C106.422 79 108.322 77.75 109.372 75.95V87.15C109.372 87.55 109.672 87.85 110.122 87.85C110.522 87.85 110.822 87.55 110.822 87.15V66.45C110.822 60.1 110.822 54 102.972 54ZM108.422 74.5C107.522 76.7 105.572 77.55 102.922 77.55C100.172 77.55 98.2719 76.65 97.4219 74.5C96.6719 72.6 96.6219 70.25 96.6219 66.6C96.6219 62.95 96.6719 60.4 97.4219 58.5C98.2719 56.45 99.9719 55.45 102.922 55.45C105.572 55.45 107.522 56.3 108.422 58.5C109.172 60.35 109.222 62.7 109.222 66.4C109.222 70.1 109.172 72.6 108.422 74.5ZM140.211 56.2C139.811 55.65 138.761 54.9 137.561 54.45C134.161 53.2 129.911 54.15 128.261 57V54.85C128.261 54.35 128.011 54.05 127.561 54.05C127.111 54.05 126.861 54.35 126.861 54.85V78.2C126.861 78.75 127.061 79 127.511 79C127.961 79 128.311 78.7 128.311 78.2V66.55C128.311 66.1 128.211 62.6 128.511 60.75C128.961 58 129.861 55.35 134.611 55.35C136.411 55.35 137.661 55.9 138.911 57.05C139.261 57.4 139.711 57.75 140.161 57.4C140.461 57.2 140.611 56.75 140.211 56.2ZM160.91 79C165.56 79 168.16 76.1 168.16 72.45C168.16 67.35 163.01 66.2 160.86 65.65C157.66 64.85 154.86 63.65 154.86 60.6C154.86 57.45 157.71 55.45 161.01 55.45C163.76 55.45 165.91 56.9 166.56 59.35C166.76 60.35 168.06 60.35 168.06 59.2C167.41 56.25 165.06 54 161.01 54C156.41 54 153.31 56.9 153.31 60.5C153.31 64.35 156.86 66.3 160.56 67C164.11 67.8 166.71 69.45 166.71 72.5C166.71 75.35 164.41 77.55 160.96 77.55C157.86 77.55 155.41 75.8 154.86 73.65C154.66 72.65 153.21 72.25 153.31 73.65C153.41 75.2 155.61 79 160.91 79ZM191.647 77.55C189.247 77.3 188.597 76.45 188.247 75.75C187.697 74.55 187.647 72.9 187.647 71.2V55.45H191.197C191.697 55.45 191.997 55.15 191.997 54.7C191.997 54.35 191.697 54 191.197 54H187.647V45.85C187.647 45.45 187.347 45.15 186.947 45.15C186.497 45.15 186.197 45.45 186.197 45.85V54H183.747C183.247 54 182.947 54.35 182.947 54.7C182.947 55.15 183.247 55.45 183.747 55.45H186.197V70.55C186.197 72.85 186.147 74.85 186.897 76.55C187.547 78.05 189.797 79 191.597 79C192.147 79 192.447 78.8 192.447 78.4C192.447 77.85 192.147 77.6 191.647 77.55ZM222.621 54.35C222.171 54.35 221.921 54.65 221.921 55.15V66.45C221.921 69.65 221.871 72.5 220.971 74.6C220.021 76.85 218.271 77.55 215.571 77.55C212.121 77.55 210.821 76.4 210.071 74.6C209.221 72.5 209.171 69.65 209.171 66.45V55.15C209.171 54.65 208.971 54.35 208.521 54.35C208.021 54.35 207.721 54.65 207.721 55.15V66.45C207.721 72.85 207.721 79 215.521 79C223.371 79 223.371 72.85 223.371 66.45V55.15C223.371 54.65 223.071 54.35 222.621 54.35ZM254.81 54C254.51 54 254.21 54.15 254.11 54.5L247.51 76.65L240.91 54.5C240.81 54.15 240.51 54 240.21 54C239.66 54 239.31 54.45 239.46 54.95L246.51 78.2C246.66 78.7 247.06 79 247.51 79C247.96 79 248.36 78.7 248.51 78.2L255.56 54.95C255.66 54.5 255.31 54 254.81 54ZM299.438 54.05C298.938 53.9 298.688 54.15 298.538 54.6L292.538 76.15L286.588 54.7C286.488 54.3 286.338 54 285.888 54C285.438 54 285.188 54.25 285.088 54.65L279.088 76.1L273.038 54.6C272.888 54.15 272.688 53.9 272.188 54.05C271.688 54.2 271.538 54.55 271.688 55L278.038 77.9C278.238 78.45 278.338 78.95 279.038 79H279.138C279.838 78.95 279.938 78.45 280.138 77.9L285.888 57.65L291.488 77.9C291.688 78.45 291.788 78.95 292.488 79H292.588C293.288 78.95 293.388 78.45 293.588 77.9L299.938 55C300.088 54.55 299.938 54.2 299.438 54.05ZM325.318 66.5L332.518 55.1C332.568 55 332.668 54.85 332.668 54.65C332.668 54.3 332.318 54 331.868 54C331.618 54 331.468 54.1 331.318 54.3L324.418 65.15L317.518 54.3C317.368 54.1 317.218 54 316.968 54C316.518 54 316.168 54.3 316.168 54.65C316.168 54.85 316.268 55 316.318 55.1L323.518 66.5L316.318 77.9C316.268 78 316.168 78.15 316.168 78.35C316.168 78.7 316.518 79 316.968 79C317.218 79 317.368 78.9 317.518 78.7L324.418 67.85L331.318 78.7C331.468 78.9 331.618 79 331.868 79C332.318 79 332.668 78.7 332.668 78.35C332.668 78.15 332.568 78 332.518 77.9L325.318 66.5ZM348.688 54.8V66.45C348.688 72.85 348.688 79 356.488 79C359.938 79 361.788 77.8 362.888 75.95V78.7C362.888 84.95 362.738 89.3 357.188 89.3H354.038C353.638 89.3 353.288 89.65 353.288 90.05C353.288 90.45 353.638 90.8 354.038 90.8H357.138C361.688 90.8 363.638 88.25 364.138 84.3C364.338 82.7 364.338 80.85 364.338 78.7V54.8C364.338 54.3 364.088 54 363.638 54C363.138 54 362.888 54.3 362.888 54.8V66.45C362.888 69.65 362.888 72.5 361.988 74.6C361.188 76.45 359.738 77.55 356.438 77.55C353.538 77.55 351.838 76.7 350.988 74.6C350.138 72.5 350.138 69.65 350.138 66.45V54.8C350.138 54.3 349.888 54 349.438 54C348.938 54 348.688 54.3 348.688 54.8ZM381.221 79H394.871C395.371 79 395.671 78.75 395.671 78.25C395.671 77.8 395.371 77.55 394.871 77.55H382.621L396.321 54.95C396.671 54.4 396.421 54 395.771 54H382.171C381.671 54 381.371 54.25 381.371 54.65C381.371 55.15 381.671 55.45 382.171 55.45H394.371L380.721 78.05C380.371 78.6 380.621 79 381.221 79Z" fill="currentColor"/>
</svg>
