<svg viewBox="0 0 489 88" fill="none" xmlns="http://www.w3.org/2000/svg">
<path d="M23.85 34.15L12.9 1.8C12.8 1.35 12.45 1.15 12.1 1.15C11.75 1.15 11.4 1.35 11.3 1.8L0.35 34.15C0.1 34.95 1.45 35.4 1.75 34.5L5.8 22.5H18.4L22.45 34.5C22.75 35.4 24.1 34.95 23.85 34.15ZM6.3 21.05L12.1 3.85L17.9 21.05H6.3ZM56.7102 18.1C60.3102 17.15 62.3602 14.95 62.3602 10C62.3602 0.649998 55.1102 1 43.8102 1.2C43.1602 1.2 42.8102 1.45 42.8102 1.9V10V18.15V34.3C42.8102 34.75 43.1602 35 43.8102 35C55.1102 35.2 62.3602 35.55 62.3602 26.2C62.3602 21.25 60.3102 19.05 56.7102 18.1ZM44.2602 2.6C50.4602 2.6 56.0102 2.2 58.9102 4.45C60.2602 5.5 60.8602 7.45 60.9102 10C60.8602 12.55 60.2602 14.5 58.9102 15.55C56.0102 17.8 50.4602 17.4 44.2602 17.4V2.6ZM58.9102 31.75C56.0102 34 50.4602 33.6 44.2602 33.6V18.8C45.7602 18.8 47.2102 18.8 48.6102 18.75H49.5102C53.5102 18.8 56.8602 19.05 58.9102 20.65C60.2602 21.7 60.8602 23.65 60.9102 26.2C60.8602 28.75 60.2602 30.7 58.9102 31.75ZM101.556 31.25C99.7559 32.65 97.1059 33.45 94.0559 33.45C85.7559 33.45 83.5059 27.95 83.5059 18.2C83.5059 8.5 85.5059 2.7 94.0559 2.7C97.1059 2.7 99.7559 3.5 101.556 4.9C101.906 5.2 102.256 5.2 102.556 4.85C102.856 4.45 102.856 4.05 102.456 3.75C100.606 2.1 97.9559 1.15 94.0559 1.15C81.8059 1.15 81.8059 11.95 81.8059 18.1C81.8059 24.2 81.8059 35 94.0559 35C97.9559 35 100.606 34.05 102.456 32.4C102.856 32.1 102.856 31.7 102.556 31.3C102.256 30.95 101.906 30.95 101.556 31.25ZM138.969 3.25C135.569 0.899998 133.519 1.15 122.969 1.15C122.469 1.15 122.169 1.45 122.169 1.95V34.2C122.169 34.7 122.469 35 122.969 35C133.519 35 135.569 35.25 138.969 32.9C144.269 29.15 144.269 21.05 144.269 18.1C144.269 15.1 144.269 7 138.969 3.25ZM138.069 31.75C135.319 33.8 133.319 33.55 123.619 33.55V2.6C133.319 2.6 135.319 2.35 138.069 4.4C142.969 7.9 142.819 15.5 142.819 18.1C142.819 20.65 142.969 28.25 138.069 31.75ZM183.554 33.55H165.154V18.5H177.754C178.154 18.5 178.454 18.2 178.454 17.75C178.454 17.35 178.154 17.05 177.754 17.05H165.204V2.6H183.554C183.954 2.6 184.254 2.3 184.254 1.85C184.254 1.45 183.954 1.15 183.554 1.15H164.554C164.104 1.15 163.754 1.5 163.754 1.95L163.704 34.2C163.704 34.65 164.054 35 164.504 35H183.554C183.954 35 184.254 34.7 184.254 34.25C184.254 33.85 183.954 33.55 183.554 33.55ZM223.676 1.15H204.476C203.976 1.15 203.676 1.45 203.676 1.95V34.35C203.676 34.75 203.976 35.05 204.376 35.05C204.826 35.05 205.126 34.75 205.126 34.35V18.5H217.726C218.126 18.5 218.426 18.2 218.426 17.75C218.426 17.35 218.126 17.05 217.726 17.05H205.126V2.6H223.676C224.076 2.6 224.376 2.3 224.376 1.85C224.376 1.45 224.076 1.15 223.676 1.15ZM266.32 17.05H257.32C256.92 17.05 256.62 17.35 256.62 17.8C256.62 18.2 256.92 18.5 257.32 18.5H265.67C265.67 20 265.62 23.9 264.27 27.45C262.87 31.65 260.17 33.55 255.92 33.55C247.67 33.55 246.22 26.7 246.22 17.35C246.22 10.55 247.27 2.6 255.92 2.6C260.22 2.6 262.87 4.45 264.32 8.45C264.47 8.95 264.82 9.15 265.22 9C265.62 8.85 265.72 8.5 265.57 8C263.97 3.45 260.77 1.15 255.92 1.15C246.22 1.15 244.82 9.85 244.82 17.35C244.82 26.35 246.22 35 255.92 35C260.67 35 264.02 32.8 265.67 27.95C266.97 24.3 267.07 19.15 267.07 18.5V17.7C267.07 17.2 266.77 17.05 266.32 17.05ZM306.351 1.15C305.901 1.15 305.601 1.45 305.601 1.85V17.05H287.951V1.85C287.951 1.45 287.651 1.15 287.201 1.15C286.801 1.15 286.501 1.45 286.501 1.85V34.3C286.501 34.7 286.801 35 287.201 35C287.651 35 287.951 34.7 287.951 34.3V18.5H305.601V34.3C305.601 34.7 305.901 35 306.351 35C306.751 35 307.051 34.7 307.051 34.3V1.85C307.051 1.45 306.751 1.15 306.351 1.15ZM330.285 34.3V1.85C330.285 1.45 329.985 1.15 329.585 1.15C329.135 1.15 328.835 1.45 328.835 1.85V34.3C328.835 34.7 329.135 35 329.585 35C329.985 35 330.285 34.7 330.285 34.3ZM351.767 35C355.617 34.8 358.117 33.4 359.467 30.7C360.717 28.15 360.717 24.95 360.717 21.55V1.95C360.717 1.45 360.467 1.15 360.017 1.15C359.517 1.15 359.267 1.45 359.267 1.95V21.55C359.267 24.8 359.267 27.85 358.167 30.05C357.417 31.4 356.067 33.35 351.817 33.6C351.267 33.6 350.967 33.85 350.967 34.3C350.967 34.75 351.267 35 351.767 35ZM399.798 33.7L383.898 17.05L398.348 2.3C398.448 2.2 398.498 2 398.498 1.85C398.498 1.45 398.198 1.1 397.798 1.1C397.598 1.1 397.348 1.2 397.248 1.35L381.698 17.3V1.85C381.698 1.45 381.398 1.15 380.998 1.15C380.548 1.15 380.248 1.45 380.248 1.85V34.3C380.248 34.7 380.548 35 380.998 35C381.398 35 381.698 34.7 381.698 34.3V19.5L382.948 18.1L398.698 34.6C399.048 35 399.648 35.05 399.898 34.8C400.248 34.45 400.148 34.1 399.798 33.7ZM420.285 1.15C419.885 1.15 419.585 1.45 419.585 1.85L419.535 33.85C419.535 34.65 419.885 35 420.685 35H439.435C439.835 35 440.135 34.7 440.135 34.25C440.135 33.85 439.835 33.55 439.435 33.55H420.985L421.035 1.85C421.035 1.45 420.685 1.15 420.285 1.15ZM486.245 1.6L474.195 25.6L462.145 1.6C461.645 0.849999 460.595 1.2 460.595 2.05V34.3C460.595 34.7 460.895 35 461.295 35C461.745 35 462.045 34.7 462.045 34.3V4.5L473.695 27.7C473.995 28.25 474.395 28.25 474.695 27.7L486.345 4.5V34.3C486.345 34.7 486.645 35 487.095 35C487.495 35 487.795 34.7 487.795 34.3V2.05C487.795 1.2 486.745 0.849999 486.245 1.6ZM20.55 86.35V53.85C20.55 53.45 20.25 53.15 19.85 53.15C19.4 53.15 19.1 53.45 19.1 53.85V82.95L1.15 53.55C0.8 52.95 0.25 53 0.25 53.75V86.3C0.25 86.7 0.55 87 0.95 87C1.4 87 1.7 86.7 1.7 86.3V57.25L19.65 86.55C20.05 87.2 20.55 87.1 20.55 86.35ZM57.8781 59.95C56.3781 55.2 52.5281 53.15 47.7781 53.15C43.0281 53.15 39.1781 55.2 37.6781 59.95C36.4781 63.7 36.5781 67.45 36.5781 70.05C36.5781 72.7 36.4781 76.45 37.6781 80.2C39.1781 84.95 43.0281 87 47.7781 87C52.5281 87 56.3781 84.95 57.8781 80.2C59.0781 76.45 58.9781 72.7 58.9781 70.05C58.9781 67.45 59.0781 63.7 57.8781 59.95ZM56.5281 79.75C55.1781 83.85 52.0281 85.55 47.7781 85.55C43.5281 85.55 40.3781 83.85 39.0281 79.75C37.8781 76.2 38.0281 72.65 38.0281 70.05C38.0281 67.5 37.8781 63.95 39.0281 60.4C40.3781 56.3 43.5281 54.6 47.7781 54.6C52.0281 54.6 55.1781 56.3 56.5281 60.4C57.6781 63.95 57.5281 67.5 57.5281 70.05C57.5281 72.65 57.6781 76.2 56.5281 79.75ZM91.0559 54.75C87.1059 52.75 81.0059 53.1 76.0059 53.15C75.3559 53.15 75.0059 53.5 75.0059 54.15V86.25C75.0059 86.65 75.3559 87 75.7559 87C76.1559 87 76.5059 86.65 76.5059 86.25V74.5C80.8559 74.55 87.0059 74.9 91.0559 72.9C94.4559 71.2 95.9059 67.5 95.9059 63.45C95.9059 60.15 94.4559 56.45 91.0559 54.75ZM89.7559 71.75C86.0059 73.4 80.8059 73.05 76.4559 73.05V54.6C80.8059 54.6 86.0059 54.25 89.7559 55.9C93.6059 57.75 94.4559 61 94.4559 63.45C94.4559 66.65 93.6059 69.9 89.7559 71.75ZM134.759 70.05C134.759 67.45 134.859 63.7 133.659 59.95C132.159 55.2 128.309 53.15 123.559 53.15C118.809 53.15 114.959 55.2 113.459 59.95C112.259 63.7 112.359 67.45 112.359 70.05C112.359 72.7 112.259 76.45 113.459 80.2C114.959 84.95 118.809 87 123.559 87C126.509 87 129.159 86.2 131.059 84.45L133.009 86.45C133.109 86.55 133.309 86.7 133.509 86.7C133.909 86.7 134.259 86.35 134.259 85.95C134.259 85.75 134.159 85.55 134.059 85.45L132.059 83.35C132.709 82.5 133.259 81.45 133.659 80.2C134.859 76.45 134.759 72.7 134.759 70.05ZM132.309 79.75C131.959 80.75 131.559 81.6 131.009 82.3L126.859 78.05C126.759 77.95 126.559 77.8 126.359 77.8C125.959 77.8 125.609 78.15 125.609 78.55C125.609 78.75 125.709 78.95 125.809 79.05L130.059 83.4C128.409 84.9 126.209 85.55 123.559 85.55C119.309 85.55 116.159 83.85 114.809 79.75C113.659 76.2 113.809 72.65 113.809 70.05C113.809 67.5 113.659 63.95 114.809 60.4C116.159 56.3 119.309 54.6 123.559 54.6C127.809 54.6 130.959 56.3 132.309 60.4C133.459 63.95 133.309 67.5 133.309 70.05C133.309 72.65 133.459 76.2 132.309 79.75ZM171.137 85.65C170.387 85.55 170.087 85.2 169.887 84.9C169.637 84.3 169.687 83.05 169.687 82C169.687 76.7 168.237 74.5 164.937 73.65C165.587 73.45 166.237 73.2 166.837 72.9C170.237 71.2 171.687 67.5 171.687 63.45C171.687 60.15 170.237 56.45 166.837 54.75C162.887 52.75 156.787 53.1 151.787 53.15C151.137 53.15 150.787 53.5 150.787 54.15V86.25C150.787 86.4 150.837 86.5 150.887 86.6V86.65C151.037 86.85 151.287 87 151.537 87C151.787 87 152.037 86.85 152.187 86.65H152.287L152.337 74.6C153.887 74.6 155.337 74.55 156.687 74.55H158.037C165.137 74.45 168.237 74.95 168.237 82C168.237 83.2 168.187 84.65 168.687 85.6C169.087 86.5 170.037 86.9 171.187 87C171.837 87.1 172.187 86.8 172.187 86.35C172.187 85.9 171.837 85.75 171.137 85.65ZM152.237 54.6C156.587 54.6 161.787 54.25 165.537 55.9C169.387 57.75 170.237 61 170.237 63.45C170.237 66.65 169.387 69.9 165.537 71.75C163.287 72.75 160.487 73 157.687 73.05C157.037 73.05 156.337 73.05 155.637 73.1C154.487 73.05 153.337 73.05 152.237 73.05V54.6ZM196.438 69.5C191.287 68 187.688 66.75 187.588 62.2C187.438 56.8 192.288 54.45 197.188 54.6C200.738 54.75 203.388 55.4 205.338 58.75C205.438 58.95 205.688 59.15 205.988 59.15C206.388 59.15 206.688 58.8 206.688 58.4C206.688 58.25 206.638 58.2 206.588 58.05C204.388 54.3 201.188 53.3 197.238 53.15C191.488 52.95 185.938 56 186.188 62.25C186.388 67.7 190.288 69.2 195.988 70.9C201.888 72.65 205.738 73.4 205.538 78.35C205.388 82.85 201.488 85.7 196.088 85.5C192.838 85.35 189.938 83.85 188.188 81.15C188.088 80.95 187.838 80.8 187.588 80.8C187.188 80.8 186.888 81.15 186.888 81.55C186.888 81.65 186.938 81.8 186.988 81.9C188.938 85.1 192.338 86.85 196.038 87C202.238 87.2 206.788 83.75 206.988 78.4C207.238 72.1 201.588 71 196.438 69.5ZM243.804 53.15H223.704C223.304 53.15 223.004 53.45 223.004 53.9C223.004 54.3 223.304 54.6 223.704 54.6H232.954V86.3C232.954 86.7 233.254 87 233.704 87C234.104 87 234.404 86.7 234.404 86.3V54.6H243.804C244.204 54.6 244.504 54.3 244.504 53.9C244.504 53.45 244.204 53.15 243.804 53.15ZM284.004 64.4L284.054 53.95C284.054 53.5 283.754 53.15 283.304 53.15C282.854 53.15 282.554 53.5 282.554 53.95V64.4C282.554 70.25 282.554 75.55 281.154 79.3C279.704 83.45 276.804 85.4 272.654 85.4C268.454 85.4 265.554 83.45 264.104 79.3C262.704 75.55 262.654 70.25 262.704 64.4L262.754 53.95C262.754 53.5 262.454 53.15 262.004 53.15C261.554 53.15 261.254 53.5 261.254 53.95V64.4C261.254 70.35 261.254 76 262.704 79.95C264.454 84.65 267.954 87 272.654 87C277.304 87 280.804 84.65 282.554 79.95C284.004 76 283.954 70.35 284.004 64.4ZM323.335 53.15C322.985 53.15 322.735 53.4 322.635 53.7L312.485 84.5L302.335 53.7C302.235 53.4 301.985 53.15 301.635 53.15C301.185 53.15 300.735 53.55 300.935 54.05L311.335 86.1C311.535 86.6 311.935 87 312.485 87C313.035 87 313.435 86.6 313.635 86.1L324.035 54.05C324.235 53.55 323.785 53.15 323.335 53.15ZM377.244 53.7L368.494 84.4L359.744 62.05C359.444 61.25 359.044 61.25 358.744 62.05L350.094 84.4L341.344 53.7C341.244 53.4 340.994 53.15 340.644 53.15C340.194 53.15 339.794 53.6 339.894 54L348.994 86.2C349.144 86.7 349.494 87 349.994 87C350.444 87 350.794 86.75 350.944 86.35L359.294 64.9L367.644 86.35C367.794 86.75 368.144 87 368.594 87C369.094 87 369.444 86.7 369.594 86.2L378.694 54C378.844 53.55 378.394 53.15 377.944 53.15C377.594 53.15 377.344 53.4 377.244 53.7ZM416.786 53.1C416.486 53.1 416.236 53.2 416.086 53.45L406.236 68.6L396.336 53.45C396.186 53.2 395.936 53.1 395.636 53.1C395.236 53.1 394.836 53.45 394.836 53.85C394.836 54.05 394.936 54.2 394.986 54.3L405.486 70.05L394.986 85.85C394.936 85.95 394.836 86.1 394.836 86.3C394.836 86.7 395.236 87.05 395.636 87.05C395.936 87.05 396.186 86.95 396.336 86.7L406.236 71.5L416.086 86.7C416.236 86.95 416.486 87.05 416.786 87.05C417.186 87.05 417.586 86.7 417.586 86.3C417.586 86.1 417.486 85.95 417.436 85.85L406.986 70.05L417.436 54.3C417.486 54.2 417.586 54.05 417.586 53.85C417.586 53.45 417.186 53.1 416.786 53.1ZM450.688 53.15C450.388 53.15 450.138 53.3 450.038 53.5L439.638 73.8L429.238 53.5C429.138 53.3 428.888 53.15 428.588 53.15C428.188 53.15 427.838 53.45 427.838 53.9C427.838 54 427.888 54.15 427.938 54.25L438.938 75.4V86.35C438.938 86.75 439.238 87.05 439.638 87.05C440.038 87.05 440.338 86.75 440.338 86.35V75.4L451.338 54.25C451.388 54.15 451.438 54 451.438 53.9C451.438 53.45 451.088 53.15 450.688 53.15ZM487.438 53.15H468.888C468.487 53.15 468.138 53.5 468.138 53.9C468.138 54.3 468.487 54.65 468.888 54.65H485.988L467.338 86.05C467.038 86.5 467.338 87 467.938 87H486.538C486.888 87 487.188 86.7 487.188 86.35C487.188 85.95 486.888 85.65 486.538 85.65H469.438L488.038 54.1C488.388 53.6 488.038 53.15 487.438 53.15Z" fill="currentColor"/>
</svg>
