<svg viewBox="0 0 336 151" fill="none" xmlns="http://www.w3.org/2000/svg">
<path d="M23.85 42.15L12.9 9.8C12.8 9.35 12.45 9.15 12.1 9.15C11.75 9.15 11.4 9.35 11.3 9.8L0.35 42.15C0.1 42.95 1.45 43.4 1.75 42.5L5.8 30.5H18.4L22.45 42.5C22.75 43.4 24.1 42.95 23.85 42.15ZM6.3 29.05L12.1 11.85L17.9 29.05H6.3ZM31.5867 25.55V10.6H48.0867C48.5867 10.6 48.8867 10.35 48.8867 9.85C48.8867 9.4 48.5867 9.15 48.0867 9.15H31.5867H31.1367C30.4867 9.15 30.1367 9.5 30.1367 10.15V26.2V42.3C30.1367 42.75 30.4867 43 31.1367 43C42.4367 43.2 49.6867 43.55 49.6867 34.2C49.6867 24.95 42.6367 25.35 31.5867 25.55ZM46.2367 39.75C43.3367 42 37.7867 41.6 31.5867 41.6V26.8C37.7867 26.8 43.3367 26.4 46.2367 28.65C47.5867 29.7 48.1867 31.65 48.2367 34.2C48.1867 36.75 47.5867 38.7 46.2367 39.75ZM70.359 26.1C73.959 25.15 76.009 22.95 76.009 18C76.009 8.65 68.759 9 57.459 9.2C56.809 9.2 56.459 9.45 56.459 9.9V18V26.15V42.3C56.459 42.75 56.809 43 57.459 43C68.759 43.2 76.009 43.55 76.009 34.2C76.009 29.25 73.959 27.05 70.359 26.1ZM57.909 10.6C64.109 10.6 69.659 10.2 72.559 12.45C73.909 13.5 74.509 15.45 74.559 18C74.509 20.55 73.909 22.5 72.559 23.55C69.659 25.8 64.109 25.4 57.909 25.4V10.6ZM72.559 39.75C69.659 42 64.109 41.6 57.909 41.6V26.8C59.409 26.8 60.859 26.8 62.259 26.75H63.159C67.159 26.8 70.509 27.05 72.559 28.65C73.909 29.7 74.509 31.65 74.559 34.2C74.509 36.75 73.909 38.7 72.559 39.75ZM83.5313 43.05C83.9313 43.05 84.2813 42.75 84.2813 42.35L84.2313 10.65H102.681C103.081 10.65 103.381 10.35 103.381 9.95C103.381 9.5 103.081 9.2 102.681 9.2H83.9313C83.1313 9.2 82.7813 9.55 82.7813 10.35L82.8313 42.35C82.8313 42.75 83.1313 43.05 83.5313 43.05ZM134.588 41.55H133.738C133.238 41.55 132.938 41.25 132.938 40.75V9.95C132.938 9.45 132.638 9.15 132.138 9.15H113.038C112.538 9.15 112.238 9.45 112.238 10.05L112.288 26.95C112.288 37.25 112.188 38.6 111.688 39.6C111.288 40.4 110.438 41.55 107.688 41.55H106.388C105.888 41.55 105.588 41.85 105.588 42.35V48.7C105.588 49.2 105.888 49.5 106.338 49.5C106.788 49.5 107.038 49.2 107.038 48.7V43.8C107.038 43.3 107.338 43 107.838 43H133.138C133.638 43 133.938 43.3 133.938 43.8V48.7C133.938 49.2 134.188 49.5 134.688 49.5C135.138 49.5 135.388 49.2 135.388 48.7V42.35C135.388 41.85 135.088 41.55 134.588 41.55ZM131.488 41.55H112.138C113.638 40.5 113.838 39.45 113.788 26.95L113.688 10.6H131.488V41.55ZM161.965 41.55H143.565V26.5H156.165C156.565 26.5 156.865 26.2 156.865 25.75C156.865 25.35 156.565 25.05 156.165 25.05H143.615V10.6H161.965C162.365 10.6 162.665 10.3 162.665 9.85C162.665 9.45 162.365 9.15 161.965 9.15H142.965C142.515 9.15 142.165 9.5 142.165 9.95L142.115 42.2C142.115 42.65 142.465 43 142.915 43H161.965C162.365 43 162.665 42.7 162.665 42.25C162.665 41.85 162.365 41.55 161.965 41.55ZM174.064 6C174.864 6 175.564 5.3 175.564 4.45C175.564 3.65 174.864 2.95 174.064 2.95C173.214 2.95 172.514 3.65 172.514 4.45C172.514 5.3 173.214 6 174.064 6ZM184.664 6C185.464 6 186.164 5.3 186.164 4.45C186.164 3.65 185.464 2.95 184.664 2.95C183.814 2.95 183.114 3.65 183.114 4.45C183.114 5.3 183.814 6 184.664 6ZM189.264 41.55H170.864V26.5H183.464C183.864 26.5 184.164 26.2 184.164 25.75C184.164 25.35 183.864 25.05 183.464 25.05H170.914V10.6H189.264C189.664 10.6 189.964 10.3 189.964 9.85C189.964 9.45 189.664 9.15 189.264 9.15H170.264C169.814 9.15 169.464 9.5 169.464 9.95L169.414 42.2C169.414 42.65 169.764 43 170.214 43H189.264C189.664 43 189.964 42.7 189.964 42.25C189.964 41.85 189.664 41.55 189.264 41.55ZM216.313 25.75L227.713 10.2C227.813 10.1 227.913 9.95 227.913 9.75C227.913 9.35 227.563 9.05 227.163 9.05C226.963 9.05 226.713 9.15 226.613 9.3L214.863 25.05H213.063V9.8C213.063 9.45 212.713 9.15 212.313 9.15C211.913 9.15 211.563 9.45 211.563 9.8V25.05H209.763L198.263 9.65C198.063 9.35 197.963 9.15 197.663 9.05H197.463C197.063 9.05 196.713 9.35 196.713 9.75C196.713 9.95 196.813 10.1 196.913 10.2L208.313 25.75L196.913 41.95C196.813 42.05 196.713 42.2 196.713 42.4C196.713 42.8 197.063 43.1 197.463 43.1C197.663 43.1 197.913 43 198.013 42.85L209.763 26.5H211.563V42.35C211.563 42.7 211.913 43 212.313 43C212.713 43 213.063 42.7 213.063 42.35V26.5H214.863L226.363 42.5C226.563 42.8 226.663 43 226.963 43.1H227.163C227.563 43.1 227.913 42.8 227.913 42.4C227.913 42.2 227.813 42.05 227.713 41.95L216.313 25.75ZM248.306 26.4C251.756 25.2 253.456 22.25 253.556 18.8C253.756 13.35 249.356 9.05 243.456 9.05C240.056 9.05 236.856 10.3 234.806 12.45C234.706 12.6 234.656 12.7 234.656 12.9C234.656 13.25 234.956 13.5 235.306 13.5C235.456 13.5 235.656 13.4 235.756 13.3C237.556 11.45 240.406 10.35 243.456 10.35C248.606 10.35 252.406 14 252.256 18.8C252.106 22.55 249.906 25.8 244.656 25.8C244.456 25.9 244.256 26.15 244.256 26.4C244.256 26.7 244.456 26.95 244.656 27.05C249.906 27.05 252.106 30.3 252.256 34.05C252.406 38.85 248.606 42.5 243.456 42.5C240.456 42.5 237.556 41.35 235.756 39.5C235.656 39.4 235.456 39.35 235.306 39.35C234.956 39.35 234.656 39.6 234.656 39.95C234.656 40.15 234.706 40.25 234.806 40.4C236.856 42.55 240.056 43.8 243.456 43.8C249.356 43.8 253.756 39.5 253.556 34C253.456 30.6 251.756 27.65 248.306 26.4ZM260.295 42.35C260.295 43.1 260.795 43.2 261.195 42.55L279.145 13.25V42.3C279.145 42.7 279.445 43 279.895 43C280.295 43 280.595 42.7 280.595 42.3V9.75C280.595 9 280.045 8.95 279.695 9.55L261.745 38.95V9.85C261.745 9.45 261.445 9.15 260.995 9.15C260.595 9.15 260.295 9.45 260.295 9.85V42.35ZM301.9 0.0499986C301.5 0.0499986 301.3 0.349998 301.3 0.849997C301.25 2.25 300.75 4.45 296.95 4.45C293.05 4.45 292.55 2.25 292.5 0.849997C292.5 0.349998 292.3 0.0499986 291.9 0.0499986C291.5 0.0499986 291.3 0.349998 291.3 0.849997C291.45 2.85 292.25 5.85 296.95 5.85C301.6 5.85 302.35 2.85 302.5 0.849997C302.5 0.349998 302.3 0.0499986 301.9 0.0499986ZM287.35 42.35C287.35 43.1 287.85 43.2 288.25 42.55L306.2 13.25V42.3C306.2 42.7 306.5 43 306.95 43C307.35 43 307.65 42.7 307.65 42.3V9.75C307.65 9 307.1 8.95 306.75 9.55L288.8 38.95V9.85C288.8 9.45 288.5 9.15 288.05 9.15C287.65 9.15 287.35 9.45 287.35 9.85V42.35ZM334.054 41.7L318.154 25.05L332.604 10.3C332.704 10.2 332.754 10 332.754 9.85C332.754 9.45 332.454 9.1 332.054 9.1C331.854 9.1 331.604 9.2 331.504 9.35L315.954 25.3V9.85C315.954 9.45 315.654 9.15 315.254 9.15C314.804 9.15 314.504 9.45 314.504 9.85V42.3C314.504 42.7 314.804 43 315.254 43C315.654 43 315.954 42.7 315.954 42.3V27.5L317.204 26.1L332.954 42.6C333.304 43 333.904 43.05 334.154 42.8C334.504 42.45 334.404 42.1 334.054 41.7ZM24.25 60.15H5.7C5.15 60.15 4.85 60.5 4.85 60.95V85.7C4.85 87.55 4.85 89.35 4.3 90.55C3.95 91.3 3.2 92.35 0.9 92.55C0.55 92.6 0.25 92.85 0.25 93.25C0.25 93.65 0.55 94 0.95 93.95C3.25 93.8 4.75 92.9 5.5 91.25C6.3 89.75 6.3 87.75 6.3 85.7V61.6H23.55V93.3C23.55 93.7 23.85 94 24.3 94C24.7 94 25 93.7 25 93.3V60.9C25 60.4 24.75 60.15 24.25 60.15ZM57.248 60.6L45.198 84.6L33.148 60.6C32.648 59.85 31.598 60.2 31.598 61.05V93.3C31.598 93.7 31.898 94 32.298 94C32.748 94 33.048 93.7 33.048 93.3V63.5L44.698 86.7C44.998 87.25 45.398 87.25 45.698 86.7L57.348 63.5V93.3C57.348 93.7 57.648 94 58.098 94C58.498 94 58.798 93.7 58.798 93.3V61.05C58.798 60.2 57.748 59.85 57.248 60.6ZM85.2582 60.15C84.8082 60.15 84.5082 60.45 84.5082 60.85V76.05H66.8582V60.85C66.8582 60.45 66.5582 60.15 66.1082 60.15C65.7082 60.15 65.4082 60.45 65.4082 60.85V93.3C65.4082 93.7 65.7082 94 66.1082 94C66.5582 94 66.8582 93.7 66.8582 93.3V77.5H84.5082V93.3C84.5082 93.7 84.8082 94 85.2582 94C85.6582 94 85.9582 93.7 85.9582 93.3V60.85C85.9582 60.45 85.6582 60.15 85.2582 60.15ZM114.868 66.95C113.368 62.2 109.518 60.15 104.768 60.15C100.018 60.15 96.1684 62.2 94.6684 66.95C93.4684 70.7 93.5684 74.45 93.5684 77.05C93.5684 79.7 93.4684 83.45 94.6684 87.2C96.1684 91.95 100.018 94 104.768 94C109.518 94 113.368 91.95 114.868 87.2C116.068 83.45 115.968 79.7 115.968 77.05C115.968 74.45 116.068 70.7 114.868 66.95ZM113.518 86.75C112.168 90.85 109.018 92.55 104.768 92.55C100.518 92.55 97.3684 90.85 96.0184 86.75C94.8684 83.2 95.0184 79.65 95.0184 77.05C95.0184 74.5 94.8684 70.95 96.0184 67.4C97.3684 63.3 100.518 61.6 104.768 61.6C109.018 61.6 112.168 63.3 113.518 67.4C114.668 70.95 114.518 74.5 114.518 77.05C114.518 79.65 114.668 83.2 113.518 86.75ZM123.423 93.3V61.6H140.673V93.3C140.673 93.7 140.973 94 141.423 94C141.823 94 142.123 93.7 142.123 93.3V61.2C142.123 60.55 141.773 60.15 141.123 60.15H122.973C122.323 60.15 121.973 60.5 121.973 61.15V93.3C121.973 93.7 122.273 94 122.673 94C123.123 94 123.423 93.7 123.423 93.3ZM164.181 61.75C160.231 59.75 154.131 60.1 149.131 60.15C148.481 60.15 148.131 60.5 148.131 61.15V93.25C148.131 93.65 148.481 94 148.881 94C149.281 94 149.631 93.65 149.631 93.25V81.5C153.981 81.55 160.131 81.9 164.181 79.9C167.581 78.2 169.031 74.5 169.031 70.45C169.031 67.15 167.581 63.45 164.181 61.75ZM162.881 78.75C159.131 80.4 153.931 80.05 149.581 80.05V61.6C153.931 61.6 159.131 61.25 162.881 62.9C166.731 64.75 167.581 68 167.581 70.45C167.581 73.65 166.731 76.9 162.881 78.75ZM195.211 90.25C193.411 91.65 190.761 92.45 187.711 92.45C179.411 92.45 177.161 86.95 177.161 77.2C177.161 67.5 179.161 61.7 187.711 61.7C190.761 61.7 193.411 62.5 195.211 63.9C195.561 64.2 195.911 64.2 196.211 63.85C196.511 63.45 196.511 63.05 196.111 62.75C194.261 61.1 191.611 60.15 187.711 60.15C175.461 60.15 175.461 70.95 175.461 77.1C175.461 83.2 175.461 94 187.711 94C191.611 94 194.261 93.05 196.111 91.4C196.511 91.1 196.511 90.7 196.211 90.3C195.911 89.95 195.561 89.95 195.211 90.25ZM223.2 60.15H203.1C202.7 60.15 202.4 60.45 202.4 60.9C202.4 61.3 202.7 61.6 203.1 61.6H212.35V93.3C212.35 93.7 212.65 94 213.1 94C213.5 94 213.8 93.7 213.8 93.3V61.6H223.2C223.6 61.6 223.9 61.3 223.9 60.9C223.9 60.45 223.6 60.15 223.2 60.15ZM250.127 60.15C249.777 60.15 249.577 60.3 249.427 60.6L240.827 78.5L231.327 60.6C231.177 60.35 230.977 60.15 230.627 60.15C230.077 60.15 229.727 60.65 229.977 61.15L239.977 80.2L234.027 93.05C233.877 93.45 234.177 94.05 234.777 94.05C235.077 94.05 235.327 93.85 235.427 93.6L250.777 61.15C250.977 60.7 250.627 60.15 250.127 60.15ZM277.216 66.95C275.816 62.45 272.316 60.4 267.916 60.15V56.35C267.916 55.95 267.616 55.65 267.216 55.65C266.766 55.65 266.466 55.95 266.466 56.35V60.15C262.016 60.35 258.466 62.4 257.016 66.95C255.816 70.7 255.916 74.45 255.916 77.05C255.916 79.7 255.816 83.45 257.016 87.2C258.466 91.75 262.016 93.8 266.466 94V97.8C266.466 98.2 266.766 98.5 267.216 98.5C267.616 98.5 267.916 98.2 267.916 97.8V94C272.316 93.75 275.816 91.7 277.216 87.2C278.416 83.45 278.316 79.7 278.316 77.05C278.316 74.45 278.416 70.7 277.216 66.95ZM258.366 86.75C257.216 83.2 257.366 79.65 257.366 77.05C257.366 74.5 257.216 70.95 258.366 67.4C259.666 63.5 262.566 61.8 266.466 61.6V92.55C262.566 92.35 259.666 90.65 258.366 86.75ZM275.866 86.75C274.616 90.6 271.766 92.3 267.916 92.55V61.6C271.766 61.85 274.616 63.55 275.866 67.4C277.016 70.95 276.866 74.5 276.866 77.05C276.866 79.65 277.016 83.2 275.866 86.75ZM305.907 60.1C305.607 60.1 305.357 60.2 305.207 60.45L295.357 75.6L285.457 60.45C285.307 60.2 285.057 60.1 284.757 60.1C284.357 60.1 283.957 60.45 283.957 60.85C283.957 61.05 284.057 61.2 284.107 61.3L294.607 77.05L284.107 92.85C284.057 92.95 283.957 93.1 283.957 93.3C283.957 93.7 284.357 94.05 284.757 94.05C285.057 94.05 285.307 93.95 285.457 93.7L295.357 78.5L305.207 93.7C305.357 93.95 305.607 94.05 305.907 94.05C306.307 94.05 306.707 93.7 306.707 93.3C306.707 93.1 306.607 92.95 306.557 92.85L296.107 77.05L306.557 61.3C306.607 61.2 306.707 61.05 306.707 60.85C306.707 60.45 306.307 60.1 305.907 60.1ZM332.591 60.15C332.141 60.15 331.841 60.45 331.841 60.95V81.65C323.491 81.75 320.341 81.75 317.841 80.55C314.541 79 314.391 76.35 314.391 71.05V60.85C314.391 60.45 314.041 60.15 313.641 60.15C313.241 60.15 312.941 60.45 312.941 60.85V71.05C312.941 77.1 313.491 79.75 316.241 81.55C318.991 83.35 323.091 83.3 331.841 83.15V93.3C331.841 93.7 332.141 94 332.591 94C332.991 94 333.291 93.7 333.291 93.3V60.95C333.291 60.45 333.041 60.15 332.591 60.15ZM22.3 143.55H20.4V111.85C20.4 111.45 20.1 111.15 19.7 111.15C19.25 111.15 18.95 111.45 18.95 111.85V143.55H1.7V111.85C1.7 111.45 1.4 111.15 0.95 111.15C0.55 111.15 0.25 111.45 0.25 111.85V143.95C0.25 144.6 0.6 145 1.25 145H19.35H21.6V149.45C21.6 149.85 21.9 150.15 22.3 150.15C22.75 150.15 23.05 149.85 23.05 149.45V144.3C23.05 143.8 22.8 143.55 22.3 143.55ZM59.1449 144.25V111.85C59.1449 111.45 58.8449 111.15 58.4449 111.15C57.9949 111.15 57.6949 111.45 57.6949 111.85V143.55H45.2949V111.85C45.2949 111.45 44.9949 111.15 44.5949 111.15C44.1449 111.15 43.8449 111.45 43.8449 111.85V143.55H31.2449V111.85C31.2449 111.45 30.9449 111.15 30.4949 111.15C30.0949 111.15 29.7949 111.45 29.7949 111.85V144.25C29.7949 144.75 30.0449 145 30.5449 145H58.3949C58.8949 145 59.1449 144.75 59.1449 144.25ZM96.7828 143.55H95.2328V111.85C95.2328 111.45 94.9328 111.15 94.5328 111.15C94.0828 111.15 93.7828 111.45 93.7828 111.85V143.55H81.3828V111.85C81.3828 111.45 81.0828 111.15 80.6828 111.15C80.2328 111.15 79.9328 111.45 79.9328 111.85V143.55H67.3328V111.85C67.3328 111.45 67.0328 111.15 66.5828 111.15C66.1828 111.15 65.8828 111.45 65.8828 111.85V144.25C65.8828 144.75 66.1328 145 66.6328 145H93.8328H96.0828V149.45C96.0828 149.85 96.3828 150.15 96.7828 150.15C97.2328 150.15 97.5328 149.85 97.5328 149.45V144.3C97.5328 143.8 97.2828 143.55 96.7828 143.55ZM105.716 127.55V111.8C105.716 111.4 105.416 111.1 104.966 111.1C104.566 111.1 104.266 111.4 104.266 111.8V144.3C104.266 144.75 104.616 145 105.266 145C116.566 145.2 123.816 145.55 123.816 136.2C123.816 126.95 116.766 127.35 105.716 127.55ZM120.366 141.75C117.466 144 111.916 143.6 105.716 143.6V128.8C111.916 128.8 117.466 128.4 120.366 130.65C121.716 131.7 122.316 133.65 122.366 136.2C122.316 138.75 121.716 140.7 120.366 141.75ZM132.457 127.55V111.8C132.457 111.6 132.357 111.4 132.257 111.3C132.107 111.1 131.857 111 131.557 111H126.407C125.907 111 125.607 111.25 125.607 111.7C125.607 112.15 125.907 112.45 126.407 112.45H131.007V144.3C131.007 144.75 131.357 145 132.007 145C143.307 145.2 150.557 145.55 150.557 136.2C150.557 126.95 143.507 127.35 132.457 127.55ZM147.107 141.75C144.207 144 138.657 143.6 132.457 143.6V128.8C138.657 128.8 144.207 128.4 147.107 130.65C148.457 131.7 149.057 133.65 149.107 136.2C149.057 138.75 148.457 140.7 147.107 141.75ZM158.751 127.55V111.8C158.751 111.4 158.451 111.1 158.001 111.1C157.601 111.1 157.301 111.4 157.301 111.8V144.3C157.301 144.75 157.651 145 158.301 145C169.601 145.2 176.851 145.55 176.851 136.2C176.851 126.95 169.801 127.35 158.751 127.55ZM184.501 144.3V111.85C184.501 111.45 184.201 111.15 183.801 111.15C183.351 111.15 183.051 111.45 183.051 111.85V144.3C183.051 144.7 183.351 145 183.801 145C184.201 145 184.501 144.7 184.501 144.3ZM173.401 141.75C170.501 144 164.951 143.6 158.751 143.6V128.8C164.951 128.8 170.501 128.4 173.401 130.65C174.751 131.7 175.351 133.65 175.401 136.2C175.351 138.75 174.751 140.7 173.401 141.75ZM210.89 128.95C210.89 118.5 208.59 111.15 198.74 111.15C195.79 111.15 193.44 111.8 191.54 113.2C191.39 113.3 191.24 113.55 191.24 113.8C191.24 114.15 191.54 114.5 191.94 114.5C192.09 114.5 192.29 114.45 192.39 114.35C193.99 113.15 196.04 112.6 198.74 112.6C206.79 112.6 209.24 118.1 209.44 127.45H195.34C194.94 127.45 194.64 127.75 194.64 128.15C194.64 128.6 194.94 128.9 195.34 128.9H209.44C209.44 137.7 206.79 143.55 198.74 143.55C196.04 143.55 193.99 143 192.39 141.8C192.29 141.7 192.09 141.65 191.94 141.65C191.54 141.65 191.24 142 191.24 142.35C191.24 142.6 191.39 142.85 191.54 142.95C193.44 144.35 195.79 145 198.74 145C207.84 145 210.89 138.25 210.89 128.95ZM245.41 117.95C243.91 113.2 240.06 111.15 235.31 111.15C230.56 111.15 226.71 113.2 225.21 117.95C224.11 121.4 224.11 124.8 224.11 127.35H219.16V111.9C219.16 111.5 218.81 111.15 218.41 111.15C218.01 111.15 217.66 111.5 217.66 111.9V144.25C217.66 144.65 218.01 145 218.41 145C218.81 145 219.16 144.65 219.16 144.25V128.8H224.11C224.11 131.4 224.11 134.8 225.21 138.2C226.71 142.95 230.56 145 235.31 145C240.06 145 243.91 142.95 245.41 138.2C246.61 134.45 246.51 130.7 246.51 128.05C246.51 125.45 246.61 121.7 245.41 117.95ZM244.06 137.75C242.71 141.85 239.56 143.55 235.31 143.55C231.06 143.55 227.91 141.85 226.56 137.75C225.41 134.2 225.56 130.65 225.56 128.05C225.56 125.5 225.41 121.95 226.56 118.4C227.91 114.3 231.06 112.6 235.31 112.6C239.56 112.6 242.71 114.3 244.06 118.4C245.21 121.95 245.06 125.5 245.06 128.05C245.06 130.65 245.21 134.2 244.06 137.75ZM273.66 111.15C268.66 111.1 262.56 110.75 258.61 112.75C255.21 114.45 253.76 118.15 253.76 121.45C253.76 125.5 255.21 129.2 258.61 130.9C259.21 131.2 259.86 131.45 260.51 131.65C257.21 132.5 255.76 134.7 255.76 140C255.76 141.05 255.81 142.3 255.56 142.9C255.36 143.2 255.06 143.55 254.31 143.65C253.61 143.75 253.26 143.9 253.26 144.35C253.26 144.8 253.61 145.1 254.26 145C255.41 144.9 256.36 144.5 256.76 143.6C257.26 142.65 257.21 141.2 257.21 140C257.21 132.95 260.31 132.45 267.41 132.55H268.76C270.11 132.55 271.56 132.6 273.11 132.6L273.16 144.65H273.26C273.41 144.85 273.66 145 273.91 145C274.16 145 274.41 144.85 274.56 144.65V144.6C274.61 144.5 274.66 144.4 274.66 144.25V112.15C274.66 111.5 274.31 111.15 273.66 111.15ZM255.21 121.45C255.21 119 256.06 115.75 259.91 113.9C263.66 112.25 268.86 112.6 273.21 112.6V131.05C272.11 131.05 270.96 131.05 269.81 131.1C269.11 131.05 268.41 131.05 267.76 131.05C264.96 131 262.16 130.75 259.91 129.75C256.06 127.9 255.21 124.65 255.21 121.45ZM293.239 108.25C297.889 108.25 298.639 105.25 298.789 103.25C298.789 102.75 298.589 102.45 298.189 102.45C297.789 102.45 297.589 102.75 297.589 103.25C297.539 104.65 297.039 106.85 293.239 106.85C289.339 106.85 288.839 104.65 288.789 103.25C288.789 102.75 288.589 102.45 288.189 102.45C287.789 102.45 287.589 102.75 287.589 103.25C287.739 105.25 288.539 108.25 293.239 108.25ZM304.989 144.15L294.039 111.8C293.939 111.35 293.589 111.15 293.239 111.15C292.889 111.15 292.539 111.35 292.439 111.8L281.489 144.15C281.239 144.95 282.589 145.4 282.889 144.5L286.939 132.5H299.539L303.589 144.5C303.889 145.4 305.239 144.95 304.989 144.15ZM287.439 131.05L293.239 113.85L299.039 131.05H287.439ZM317.925 108C318.725 108 319.425 107.3 319.425 106.45C319.425 105.65 318.725 104.95 317.925 104.95C317.075 104.95 316.375 105.65 316.375 106.45C316.375 107.3 317.075 108 317.925 108ZM328.525 108C329.325 108 330.025 107.3 330.025 106.45C330.025 105.65 329.325 104.95 328.525 104.95C327.675 104.95 326.975 105.65 326.975 106.45C326.975 107.3 327.675 108 328.525 108ZM334.875 144.15L323.925 111.8C323.825 111.35 323.475 111.15 323.125 111.15C322.775 111.15 322.425 111.35 322.325 111.8L311.375 144.15C311.125 144.95 312.475 145.4 312.775 144.5L316.825 132.5H329.425L333.475 144.5C333.775 145.4 335.125 144.95 334.875 144.15ZM317.325 131.05L323.125 113.85L328.925 131.05H317.325Z" fill="currentColor"/>
</svg>
