<svg  viewBox="0 0 407 93" fill="none" xmlns="http://www.w3.org/2000/svg">
<path d="M8.3 35C12.95 35 15.85 32.05 15.85 27.2V18.05C15.85 15.8 14.85 13.35 13.65 12.1C12.35 10.75 10.4 10 8.1 10C5.8 10 3.8 10.75 2.5 12.1C1.45 13.2 0.45 15.2 0.35 16.65C0.3 17.3 0.5 17.6 0.95 17.6C1.55 17.6 1.7 17.15 1.8 16.75C2.55 13.4 4.25 11.4 8.1 11.4C10 11.4 11.7 12 12.65 13.1C13.75 14.3 14.45 16.4 14.45 18.05V22.75C12.95 20.6 10.6 19.4 8.05 19.4C3.7 19.4 0.25 22.85 0.25 27.45C0.25 31.9 3.5 35 8.3 35ZM8.2 33.6C4.4 33.6 1.7 31.15 1.7 27.45C1.7 23.65 4.5 20.8 8.1 20.8C11.65 20.8 14.45 23.6 14.45 27.5C14.45 31.1 12 33.6 8.2 33.6ZM30.0172 9.75C26.5672 9.75 25.2172 10.55 24.1672 12.3C24.1672 8.2 26.0172 5.15 29.2672 4.4C31.8672 3.85 35.8172 4.85 36.8672 1.85C37.0172 1.4 36.7172 1.05 36.2672 1.05C36.0172 1.05 35.7672 1.1 35.6172 1.45C34.9172 3.2 30.9672 2.25 28.8672 2.8C22.7172 4.5 22.1172 9.4 22.1172 22.3C22.1172 28.65 22.1172 34.75 29.9672 34.75C37.7672 34.75 37.7672 28.75 37.7672 22.3C37.7672 15.9 37.7672 9.75 30.0172 9.75ZM36.3172 22.3C36.3172 26.1 36.2672 28.5 35.5172 30.4C34.6672 32.5 33.0172 33.5 30.0672 33.5C27.1172 33.5 25.3672 32.5 24.5172 30.45C23.7672 28.6 23.7172 26.2 23.7172 22.35C23.7172 18.55 23.7672 16.4 24.5172 14.5C25.3172 12.55 26.8672 11.4 30.0172 11.4C32.9672 11.4 34.6672 12.4 35.5172 14.45C36.2672 16.35 36.3172 18.55 36.3172 22.3ZM56.2832 22.65L55.7332 22.4L56.2832 22.15C58.1832 21.2 59.1832 19.1 59.1832 16.35C59.1832 13.55 58.1332 11.6 56.2832 10.75C54.1832 9.7 51.6832 9.7 44.8832 9.8C44.3832 9.8 44.0332 10.1 44.0332 10.65V34.15C44.0332 34.7 44.3832 35 44.8832 35C51.8832 35.1 54.1332 35.1 56.2832 34.05C58.1332 33.2 59.1832 31.25 59.1832 28.45C59.1832 25.7 58.1832 23.6 56.2832 22.65ZM55.2832 11.9C56.8332 12.6 57.7332 13.8 57.7332 16.45C57.7332 18.9 56.9332 20.25 55.2332 21C53.8832 21.6 52.7332 21.65 45.4832 21.65V11.25C50.6332 11.25 53.3832 11.05 55.2832 11.9ZM55.2832 32.9C53.3832 33.75 50.6332 33.55 45.4832 33.55V23.15C50.5332 23.15 53.3332 22.95 55.2332 23.8C56.9832 24.55 57.7332 26 57.7332 28.35C57.7332 30.75 56.9832 32.15 55.2832 32.9ZM66.1621 35.15C66.5621 35.15 66.9121 34.85 66.9121 34.45L66.8621 11.7C66.8621 11.55 66.9621 11.45 67.1121 11.45H81.5121C81.9121 11.45 82.2121 11.15 82.2121 10.75C82.2121 10.3 81.9121 10 81.5121 10H66.5621C65.7621 10 65.4121 10.35 65.4121 11.15L65.4621 34.45C65.4621 34.85 65.7621 35.15 66.1621 35.15ZM106.497 33.55H105.397C105.297 33.55 105.297 33.55 105.297 33.45V10.8C105.297 10.3 104.997 10 104.547 10H89.1973C88.7473 10 88.4473 10.4 88.4473 10.85C88.4473 30.45 88.5473 31.75 88.1473 32.6C87.8973 33.2 87.1973 33.55 86.1973 33.55H85.1973C84.6973 33.55 84.4473 33.8 84.4473 34.3V37.9C84.4473 38.3 84.7473 38.6 85.1973 38.6C85.5973 38.6 85.8973 38.3 85.8973 37.9V35H105.797V37.9C105.797 38.3 106.097 38.6 106.497 38.6C106.947 38.6 107.247 38.3 107.247 37.9V34.3C107.247 33.8 106.997 33.55 106.497 33.55ZM89.4473 33.5C90.1973 32.2 89.8973 28.55 89.8973 11.45H103.897V33.5H89.4473ZM128.342 22.5C129.092 22.5 129.142 22.5 129.142 21.25C129.142 13.4 127.142 10 121.242 10C114.092 10 113.742 14.95 113.542 20.15C113.492 21 113.492 21.45 113.492 22.5C113.492 28.75 113.492 35 121.142 35C127.092 35 128.842 31.25 128.942 28.05C128.942 27.45 128.892 27.2 128.392 27.1C127.792 27 127.642 27.4 127.542 27.85C127.192 29.4 127.292 33.6 121.192 33.6C118.542 33.6 116.742 32.8 115.742 30.55C114.942 28.7 114.942 27.1 114.942 22.5H128.342ZM121.292 11.45C126.342 11.45 127.492 14.05 127.692 21.05H114.992C115.142 14 116.292 11.45 121.292 11.45ZM137.058 3.95C137.858 3.95 138.558 3.25 138.558 2.4C138.558 1.6 137.858 0.899998 137.058 0.899998C136.208 0.899998 135.508 1.6 135.508 2.4C135.508 3.25 136.208 3.95 137.058 3.95ZM147.658 3.95C148.458 3.95 149.158 3.25 149.158 2.4C149.158 1.6 148.458 0.899998 147.658 0.899998C146.808 0.899998 146.108 1.6 146.108 2.4C146.108 3.25 146.808 3.95 147.658 3.95ZM150.258 22.5C151.008 22.5 151.058 22.5 151.058 21.25C151.058 13.4 149.058 10 143.158 10C136.008 10 135.658 14.95 135.458 20.15C135.408 21 135.408 21.45 135.408 22.5C135.408 28.75 135.408 35 143.058 35C149.008 35 150.758 31.25 150.858 28.05C150.858 27.45 150.808 27.2 150.308 27.1C149.708 27 149.558 27.4 149.458 27.85C149.108 29.4 149.208 33.6 143.108 33.6C140.458 33.6 138.658 32.8 137.658 30.55C136.858 28.7 136.858 27.1 136.858 22.5H150.258ZM143.208 11.45C148.258 11.45 149.408 14.05 149.608 21.05H136.908C137.058 14 138.208 11.45 143.208 11.45ZM181.424 10C181.224 10 181.074 10.1 180.874 10.25L171.024 21.75H170.524V10.75C170.524 10.35 170.174 10 169.774 10C169.374 10 169.024 10.35 169.024 10.75L169.074 21.75H168.524L158.674 10.25C158.524 10.05 158.324 10 158.124 10C157.674 10 157.324 10.3 157.324 10.75C157.324 10.95 157.424 11.1 157.524 11.25L167.124 22.5L157.524 33.8C157.424 33.9 157.324 34.1 157.324 34.3C157.324 34.7 157.674 35 158.074 35C158.274 35 158.524 34.9 158.624 34.75L168.524 23.2H169.024V34.25C169.024 34.65 169.374 35 169.774 35C170.174 35 170.524 34.65 170.524 34.25V23.2H171.024L180.924 34.75C181.024 34.9 181.274 35 181.474 35C181.874 35 182.224 34.7 182.224 34.3C182.224 34.1 182.174 33.9 182.074 33.8L172.474 22.5L182.024 11.25C182.124 11.1 182.224 10.95 182.224 10.75C182.224 10.3 181.874 10 181.424 10ZM200.069 22.5C200.769 22.25 201.369 21.8 201.869 21.3C206.319 16.85 203.319 10 196.319 10C193.969 10 192.069 10.7 190.719 12C189.569 13.1 188.969 14.4 188.719 15.35C188.619 15.8 188.969 16.3 189.419 16.3C189.769 16.3 190.069 16.1 190.169 15.75C191.019 12.75 193.069 11.3 196.269 11.3C201.969 11.3 204.519 16.65 200.869 20.4C199.369 21.95 197.919 21.8 195.069 21.8C194.719 21.8 194.419 22.1 194.419 22.5C194.419 22.9 194.719 23.2 195.069 23.2C198.369 23.2 199.369 23.1 200.819 24.65C204.419 28.5 201.969 33.75 196.219 33.75C193.019 33.75 190.869 32.2 190.119 29.3C190.019 28.95 189.719 28.75 189.369 28.75C188.919 28.75 188.569 29.25 188.669 29.65C188.919 30.65 189.519 31.95 190.669 33.1C191.969 34.35 194.169 35 196.269 35C203.169 35 206.369 28.3 201.819 23.75C201.319 23.25 200.719 22.8 200.069 22.5ZM210.336 34.35C210.336 35.1 210.786 35.2 211.236 34.55L224.986 13.9V34.3C224.986 34.7 225.286 35 225.736 35C226.136 35 226.436 34.7 226.436 34.3V10.6C226.436 9.85 225.936 9.8 225.536 10.4L211.786 31.1V10.7C211.786 10.3 211.486 10 211.036 10C210.636 10 210.336 10.3 210.336 10.7V34.35ZM246.891 1.05C246.491 1.05 246.291 1.35 246.291 1.85C246.241 3.25 245.741 5.45 241.941 5.45C238.041 5.45 237.541 3.25 237.491 1.85C237.491 1.35 237.291 1.05 236.891 1.05C236.491 1.05 236.291 1.35 236.291 1.85C236.441 3.85 237.241 6.85 241.941 6.85C246.591 6.85 247.341 3.85 247.491 1.85C247.491 1.35 247.291 1.05 246.891 1.05ZM232.691 34.35C232.691 35.1 233.141 35.2 233.591 34.55L247.341 13.9V34.3C247.341 34.7 247.641 35 248.091 35C248.491 35 248.791 34.7 248.791 34.3V10.6C248.791 9.85 248.291 9.8 247.891 10.4L234.141 31.1V10.7C234.141 10.3 233.841 10 233.391 10C232.991 10 232.691 10.3 232.691 10.7V34.35ZM257.797 22.45L268.347 11.2C268.497 11.05 268.547 10.9 268.547 10.7C268.547 10.3 268.247 10 267.847 10C267.597 10 267.447 10.05 267.297 10.2L256.497 21.7V10.8C256.497 10.4 256.147 10.1 255.747 10.1C255.347 10.1 255.047 10.4 255.047 10.8V34.3C255.047 34.7 255.347 35.05 255.747 35.05C256.147 35.05 256.497 34.7 256.497 34.3V23.85L256.797 23.5L268.397 34.8C268.497 34.9 268.697 35 268.897 35C269.147 35 269.347 34.9 269.497 34.75C269.747 34.5 269.797 34.1 269.447 33.75L257.797 22.45ZM274.949 33.95C274.949 34.45 275.449 34.75 275.849 34.65C277.199 34.25 278.149 33.45 278.699 32.25C279.499 30.75 279.499 28.75 279.499 26.7V11.45H292.499V34.3C292.499 34.7 292.799 35 293.249 35C293.649 35 293.949 34.7 293.949 34.3V10.75C293.949 10.25 293.699 10 293.199 10H278.899C278.349 10 278.049 10.35 278.049 10.8V26.7C278.049 28.55 278.049 30.35 277.499 31.55C277.249 32.1 276.749 32.9 275.449 33.3C275.199 33.4 274.949 33.65 274.949 33.95ZM315.497 10.4L308.547 22.6L301.647 10.4C301.197 9.65 300.197 9.95 300.197 10.8V34.25C300.197 34.7 300.447 35 300.897 35C301.347 35 301.647 34.7 301.647 34.25V13.5L307.997 24.65C308.297 25.2 308.847 25.2 309.147 24.65L315.547 13.5V34.25C315.547 34.7 315.797 35 316.247 35C316.697 35 316.997 34.7 316.997 34.25V10.8C316.997 9.95 315.947 9.65 315.497 10.4ZM339.286 10C338.836 10 338.536 10.3 338.536 10.7V21.8H324.686V10.7C324.686 10.3 324.386 10 323.936 10C323.536 10 323.236 10.3 323.236 10.7V34.3C323.236 34.7 323.536 35 323.936 35C324.386 35 324.686 34.7 324.686 34.3V23.25H338.536V34.3C338.536 34.7 338.836 35 339.286 35C339.686 35 339.986 34.7 339.986 34.3V10.7C339.986 10.3 339.686 10 339.286 10ZM353.977 35C361.727 35 361.727 28.95 361.727 22.55C361.727 16.1 361.727 10 353.977 10C346.227 10 346.227 16.1 346.227 22.55C346.227 28.95 346.227 35 353.977 35ZM353.927 33.55C351.027 33.55 349.327 32.55 348.477 30.5C347.677 28.5 347.677 25.5 347.677 25.4C347.677 18.75 347.727 16.4 348.477 14.5C349.327 12.35 351.227 11.45 353.977 11.45C356.627 11.45 358.577 12.3 359.477 14.5C360.277 16.4 360.277 19.6 360.277 19.7C360.277 26.25 360.227 28.65 359.477 30.5C358.677 32.45 356.977 33.55 353.927 33.55ZM369.446 34.3V11.45H383.446V34.3C383.446 34.7 383.746 35 384.196 35C384.596 35 384.896 34.7 384.896 34.3V11.05C384.896 10.4 384.546 10 383.896 10H368.996C368.346 10 367.996 10.35 367.996 11V34.3C367.996 34.7 368.296 35 368.696 35C369.146 35 369.446 34.7 369.446 34.3ZM398.983 10C391.133 10 391.133 16.1 391.133 22.45V43.15C391.133 43.55 391.433 43.85 391.833 43.85C392.283 43.85 392.583 43.55 392.583 43.15V31.95C393.633 33.75 395.533 35 399.033 35C406.783 35 406.783 28.85 406.783 22.45C406.783 16 406.783 10 398.983 10ZM404.533 30.5C403.683 32.65 401.783 33.55 399.033 33.55C396.383 33.55 394.433 32.7 393.533 30.5C392.783 28.6 392.733 26.1 392.733 22.4C392.733 18.7 392.783 16.35 393.533 14.5C394.433 12.3 396.383 11.45 399.033 11.45C401.983 11.45 403.683 12.45 404.533 14.5C405.283 16.4 405.333 18.95 405.333 22.6C405.333 26.25 405.283 28.6 404.533 30.5ZM14.2 76.5C13.75 76.5 13.5 76.7 13.25 77.1C12.25 78.8 10.75 79.55 8.45 79.6C5.25 79.7 3.4 78.7 2.45 76.55C1.65 74.65 1.65 71.45 1.65 68.55C1.65 65.4 1.65 62.4 2.45 60.45C3.3 58.5 5 57.4 8.3 57.45C10.8 57.5 12.4 58.3 13.25 59.9C13.45 60.25 13.7 60.5 14.05 60.5C14.65 60.5 14.95 60.1 14.7 59.55C13.7 57.35 11.45 55.85 7.5 56C0.25 56.25 0.25 62.25 0.25 68.55C0.25 74.8 0.25 80.75 7.5 81C7.55 81 7.65 81 7.7 81H8.5C11.95 80.85 13.7 79.5 14.7 77.45C14.95 76.9 14.7 76.5 14.2 76.5ZM36.0871 56H21.7371C21.3371 56 21.0371 56.3 21.0371 56.75C21.0371 57.15 21.3371 57.45 21.7371 57.45H28.1371V80.3C28.1371 80.7 28.4371 81 28.8871 81C29.2871 81 29.5871 80.7 29.5871 80.3V57.45H36.0871C36.4871 57.45 36.7871 57.15 36.7871 56.75C36.7871 56.3 36.4871 56 36.0871 56ZM42.8008 56.8V68.45C42.8008 74.85 42.8008 81 50.6008 81C54.0508 81 55.9008 79.8 57.0008 77.95V80.7C57.0008 86.95 56.8508 91.3 51.3008 91.3H48.1508C47.7508 91.3 47.4008 91.65 47.4008 92.05C47.4008 92.45 47.7508 92.8 48.1508 92.8H51.2508C55.8008 92.8 57.7508 90.25 58.2508 86.3C58.4508 84.7 58.4508 82.85 58.4508 80.7V56.8C58.4508 56.3 58.2008 56 57.7508 56C57.2508 56 57.0008 56.3 57.0008 56.8V68.45C57.0008 71.65 57.0008 74.5 56.1008 76.6C55.3008 78.45 53.8508 79.55 50.5508 79.55C47.6508 79.55 45.9508 78.7 45.1008 76.6C44.2508 74.5 44.2508 71.65 44.2508 68.45V56.8C44.2508 56.3 44.0008 56 43.5508 56C43.0508 56 42.8008 56.3 42.8008 56.8ZM80.2109 68.55C80.2109 62.35 80.2109 56.45 73.3109 56.05V52.2C73.3109 51.8 73.0109 51.5 72.6109 51.5C72.1609 51.5 71.8609 51.8 71.8609 52.2V56C64.7109 56.3 64.7109 62.25 64.7109 68.55C64.7109 74.8 64.7109 80.7 71.8609 81V85.4C71.8609 85.8 72.1609 86.1 72.6109 86.1C73.0109 86.1 73.3109 85.8 73.3109 85.4V80.95C80.2109 80.55 80.2109 74.7 80.2109 68.55ZM66.9609 76.5C66.1609 74.5 66.1609 71.5 66.1609 71.4C66.1609 64.75 66.2109 62.4 66.9609 60.5C67.7609 58.5 69.4109 57.6 71.8609 57.45V79.55C69.3109 79.4 67.7609 78.4 66.9609 76.5ZM73.3109 79.5V57.5C75.5109 57.65 77.1609 58.55 77.9609 60.5C78.7609 62.4 78.7609 65.6 78.7609 65.7C78.7609 72.25 78.7109 74.65 77.9609 76.5C77.2609 78.25 75.8109 79.3 73.3109 79.5ZM95.3805 68.5L102.58 57.1C102.63 57 102.73 56.85 102.73 56.65C102.73 56.3 102.38 56 101.93 56C101.68 56 101.53 56.1 101.38 56.3L94.4805 67.15L87.5805 56.3C87.4305 56.1 87.2805 56 87.0305 56C86.5805 56 86.2305 56.3 86.2305 56.65C86.2305 56.85 86.3305 57 86.3805 57.1L93.5805 68.5L86.3805 79.9C86.3305 80 86.2305 80.15 86.2305 80.35C86.2305 80.7 86.5805 81 87.0305 81C87.2805 81 87.4305 80.9 87.5805 80.7L94.4805 69.85L101.38 80.7C101.53 80.9 101.68 81 101.93 81C102.38 81 102.73 80.7 102.73 80.35C102.73 80.15 102.63 80 102.58 79.9L95.3805 68.5ZM123.527 56C123.077 56 122.777 56.3 122.777 56.7V67.75C116.077 67.85 114.777 68 113.077 67C110.327 65.35 110.177 62.7 110.177 58.85V56.7C110.177 56.3 109.827 56 109.427 56C109.027 56 108.727 56.3 108.727 56.7V58.85C108.727 63.9 109.377 66.1 111.627 67.85C113.777 69.5 115.527 69.4 122.777 69.25V80.3C122.777 80.7 123.077 81 123.477 81C123.927 81 124.227 80.7 124.227 80.3V56.7C124.227 56.3 123.927 56 123.527 56ZM148.296 79.55H147.146V56.7C147.146 56.3 146.846 56 146.446 56C145.996 56 145.696 56.3 145.696 56.7V79.55H131.696V56.7C131.696 56.3 131.396 56 130.946 56C130.546 56 130.246 56.3 130.246 56.7V80C130.246 80.65 130.596 81 131.246 81H145.346H147.596V83.9C147.596 84.3 147.896 84.6 148.296 84.6C148.746 84.6 149.046 84.3 149.046 83.9V80.3C149.046 79.8 148.796 79.55 148.296 79.55ZM185.737 80.25V56.7C185.737 56.3 185.437 56 185.037 56C184.587 56 184.287 56.3 184.287 56.7V79.55H171.137V56.7C171.137 56.3 170.837 56 170.437 56C169.987 56 169.687 56.3 169.687 56.7V79.55H156.487V56.7C156.487 56.3 156.187 56 155.737 56C155.337 56 155.037 56.3 155.037 56.7V80.25C155.037 80.75 155.287 81 155.787 81H184.987C185.487 81 185.737 80.75 185.737 80.25ZM223.692 79.55H222.442V56.7C222.442 56.3 222.142 56 221.742 56C221.292 56 220.992 56.3 220.992 56.7V79.55H207.842V56.7C207.842 56.3 207.542 56 207.142 56C206.692 56 206.392 56.3 206.392 56.7V79.55H193.192V56.7C193.192 56.3 192.892 56 192.442 56C192.042 56 191.742 56.3 191.742 56.7V80.25C191.742 80.75 191.992 81 192.492 81H220.742H222.992V83.9C222.992 84.3 223.292 84.6 223.692 84.6C224.142 84.6 224.442 84.3 224.442 83.9V80.3C224.442 79.8 224.192 79.55 223.692 79.55ZM241.918 68.65C239.668 67.5 236.318 67.65 231.118 67.7V56.75C231.118 56.35 230.768 56 230.368 56C229.968 56 229.668 56.35 229.668 56.75V80.15C229.668 80.7 230.018 81 230.518 81C236.168 81.05 239.568 81.25 241.918 80.05C243.768 79.2 244.818 77.2 244.818 74.55C244.818 71.65 243.818 69.6 241.918 68.65ZM240.918 78.9C239.018 79.75 236.268 79.55 231.118 79.55V69.15C236.268 69.15 239.018 68.95 240.868 69.8C242.618 70.55 243.368 71.9 243.368 74.55C243.368 76.75 242.618 78.1 240.918 78.9ZM263.001 68.65C260.751 67.5 257.401 67.65 252.201 67.7V56.75V56.7C252.201 56.3 251.951 56.05 251.551 56H251.451H251.401H248.601C248.101 56 247.801 56.25 247.801 56.7C247.801 57.2 248.101 57.45 248.601 57.45H250.751V80.15C250.751 80.7 251.101 81 251.601 81C257.251 81.05 260.651 81.25 263.001 80.05C264.851 79.2 265.901 77.2 265.901 74.55C265.901 71.65 264.901 69.6 263.001 68.65ZM262.001 78.9C260.101 79.75 257.351 79.55 252.201 79.55V69.15C257.351 69.15 260.101 68.95 261.951 69.8C263.701 70.55 264.451 71.9 264.451 74.55C264.451 76.75 263.701 78.1 262.001 78.9ZM284.127 68.65C281.877 67.5 278.527 67.65 273.327 67.7V56.75C273.327 56.35 272.977 56 272.577 56C272.177 56 271.877 56.35 271.877 56.75V80.15C271.877 80.7 272.227 81 272.727 81C278.377 81.05 281.777 81.25 284.127 80.05C285.977 79.2 287.027 77.2 287.027 74.55C287.027 71.65 286.027 69.6 284.127 68.65ZM291.927 81C292.377 81 292.627 80.7 292.627 80.2V56.8C292.627 56.3 292.377 56 291.927 56C291.427 56 291.177 56.3 291.177 56.8V80.2C291.177 80.7 291.427 81 291.927 81ZM283.127 78.9C281.227 79.75 278.477 79.55 273.327 79.55V69.15C278.477 69.15 281.227 68.95 283.077 69.8C284.827 70.55 285.577 71.9 285.577 74.55C285.577 76.75 284.827 78.1 283.127 78.9ZM313.323 68.55C313.323 62.25 313.323 56.25 306.073 56C302.123 55.85 299.873 57.35 298.873 59.55C298.623 60.1 298.923 60.5 299.523 60.5C299.873 60.5 300.123 60.25 300.323 59.9C301.173 58.3 302.773 57.5 305.273 57.45C308.573 57.4 310.273 58.5 311.123 60.45C311.873 62.25 311.923 64.9 311.923 67.75H304.123C303.723 67.75 303.423 68.05 303.423 68.45C303.423 68.9 303.723 69.2 304.123 69.2H311.923C311.923 71.9 311.873 74.8 311.123 76.55C310.173 78.7 308.323 79.7 305.123 79.6C302.823 79.55 301.323 78.8 300.323 77.1C300.073 76.7 299.823 76.5 299.373 76.5C298.873 76.5 298.623 76.9 298.873 77.45C299.873 79.5 301.623 80.85 305.073 81C305.373 81 305.623 81 305.873 81H306.073C313.323 80.75 313.323 74.8 313.323 68.55ZM319.711 56C319.211 56 318.961 56.3 318.961 56.8V80.2C318.961 80.7 319.211 81 319.711 81C320.161 81 320.411 80.7 320.411 80.2V56.8C320.411 56.3 320.161 56 319.711 56ZM333.911 56C326.461 56 326.161 61.6 326.161 67.75H320.561V69.2H326.161C326.161 75.35 326.411 81 333.911 81C341.661 81 341.661 74.95 341.661 68.55C341.661 62.1 341.661 56 333.911 56ZM339.411 76.5C338.611 78.45 336.911 79.55 333.861 79.55C330.961 79.55 329.261 78.55 328.411 76.5C327.611 74.5 327.611 71.5 327.611 71.4C327.611 64.75 327.661 62.4 328.411 60.5C329.261 58.35 331.161 57.45 333.911 57.45C336.561 57.45 338.511 58.3 339.411 60.5C340.211 62.4 340.211 65.6 340.211 65.7C340.211 72.25 340.161 74.65 339.411 76.5ZM362.616 56C358.816 56 353.466 55.75 351.216 56.95C349.366 57.85 348.316 59.8 348.316 62.45C348.316 65.35 349.516 68.05 351.816 68.65C349.216 69.95 349.066 71.5 349.066 74.85V77.95C349.066 78.8 349.066 79.2 349.016 79.4C348.916 79.5 348.716 79.65 348.466 79.7H348.516C347.966 79.75 347.666 80 347.666 80.35C347.666 80.8 348.066 81.05 348.566 81C349.316 80.95 349.866 80.65 350.166 80.15C350.516 79.5 350.466 78.6 350.466 77.95V74.8C350.466 72.6 350.466 70.85 352.216 70.1C354.216 69.25 358.716 69.4 362.016 69.4V80.3C362.016 80.7 362.366 81 362.716 81C363.116 81 363.466 80.7 363.466 80.3V56.9C363.466 56.35 363.166 56 362.616 56ZM349.716 62.45C349.716 60.3 350.516 58.95 352.216 58.1C354.166 57.3 358.716 57.45 362.016 57.45V67.9C358.716 67.9 354.166 68.05 352.166 67.2C350.416 66.35 349.716 64.95 349.716 62.45ZM382.179 47.05C381.779 47.05 381.579 47.35 381.579 47.85C381.529 49.25 381.029 51.45 377.229 51.45C373.329 51.45 372.829 49.25 372.779 47.85C372.779 47.35 372.579 47.05 372.179 47.05C371.779 47.05 371.579 47.35 371.579 47.85C371.729 49.85 372.529 52.85 377.229 52.85C381.879 52.85 382.629 49.85 382.779 47.85C382.779 47.35 382.579 47.05 382.179 47.05ZM377.529 81C382.179 81 385.079 78.05 385.079 73.2V64.05C385.079 61.8 384.079 59.35 382.879 58.1C381.579 56.75 379.629 56 377.329 56C375.029 56 373.029 56.75 371.729 58.1C370.679 59.2 369.679 61.2 369.579 62.65C369.529 63.3 369.729 63.6 370.179 63.6C370.779 63.6 370.929 63.15 371.029 62.75C371.779 59.4 373.479 57.4 377.329 57.4C379.229 57.4 380.929 58 381.879 59.1C382.979 60.3 383.679 62.4 383.679 64.05V68.75C382.179 66.6 379.829 65.4 377.279 65.4C372.929 65.4 369.479 68.85 369.479 73.45C369.479 77.9 372.729 81 377.529 81ZM377.429 79.6C373.629 79.6 370.929 77.15 370.929 73.45C370.929 69.65 373.729 66.8 377.329 66.8C380.879 66.8 383.679 69.6 383.679 73.5C383.679 77.1 381.229 79.6 377.429 79.6ZM393.346 50.95C394.146 50.95 394.846 50.25 394.846 49.4C394.846 48.6 394.146 47.9 393.346 47.9C392.496 47.9 391.796 48.6 391.796 49.4C391.796 50.25 392.496 50.95 393.346 50.95ZM403.946 50.95C404.746 50.95 405.446 50.25 405.446 49.4C405.446 48.6 404.746 47.9 403.946 47.9C403.096 47.9 402.396 48.6 402.396 49.4C402.396 50.25 403.096 50.95 403.946 50.95ZM399.146 81C403.796 81 406.696 78.05 406.696 73.2V64.05C406.696 61.8 405.696 59.35 404.496 58.1C403.196 56.75 401.246 56 398.946 56C396.646 56 394.646 56.75 393.346 58.1C392.296 59.2 391.296 61.2 391.196 62.65C391.146 63.3 391.346 63.6 391.796 63.6C392.396 63.6 392.546 63.15 392.646 62.75C393.396 59.4 395.096 57.4 398.946 57.4C400.846 57.4 402.546 58 403.496 59.1C404.596 60.3 405.296 62.4 405.296 64.05V68.75C403.796 66.6 401.446 65.4 398.896 65.4C394.546 65.4 391.096 68.85 391.096 73.45C391.096 77.9 394.346 81 399.146 81ZM399.046 79.6C395.246 79.6 392.546 77.15 392.546 73.45C392.546 69.65 395.346 66.8 398.946 66.8C402.496 66.8 405.296 69.6 405.296 73.5C405.296 77.1 402.846 79.6 399.046 79.6Z" fill="currentColor"/>
</svg>
