<svg  viewBox="0 0 263 47" fill="none" xmlns="http://www.w3.org/2000/svg">
<path d="M12.1172 9.05543C17.8672 9.05543 17.8672 0.0554297 12.1172 0.0554297C6.36718 0.0554297 6.36718 9.05543 12.1172 9.05543ZM12.1172 1.50543C16.0172 1.50543 16.0172 7.60543 12.1172 7.60543C8.21718 7.60543 8.21718 1.50543 12.1172 1.50543ZM23.9672 44.1554L13.0172 11.8054C12.9172 11.3554 12.5672 11.1554 12.2172 11.1554C11.8672 11.1554 11.5172 11.3554 11.4172 11.8054L0.46718 44.1554C0.21718 44.9554 1.56718 45.4054 1.86718 44.5054L5.91718 32.5054H18.5172L22.5672 44.5054C22.8672 45.4054 24.2172 44.9554 23.9672 44.1554ZM6.41718 31.0554L12.2172 13.8554L18.0172 31.0554H6.41718ZM37.5539 45.0054C42.2039 45.0054 45.1039 42.0554 45.1039 37.2054V28.0554C45.1039 25.8054 44.1039 23.3554 42.9039 22.1054C41.6039 20.7554 39.6539 20.0054 37.3539 20.0054C35.0539 20.0054 33.0539 20.7554 31.7539 22.1054C30.7039 23.2054 29.7039 25.2054 29.6039 26.6554C29.5539 27.3054 29.7539 27.6054 30.2039 27.6054C30.8039 27.6054 30.9539 27.1554 31.0539 26.7554C31.8039 23.4054 33.5039 21.4054 37.3539 21.4054C39.2539 21.4054 40.9539 22.0054 41.9039 23.1054C43.0039 24.3054 43.7039 26.4054 43.7039 28.0554V32.7554C42.2039 30.6054 39.8539 29.4054 37.3039 29.4054C32.9539 29.4054 29.5039 32.8554 29.5039 37.4554C29.5039 41.9054 32.7539 45.0054 37.5539 45.0054ZM37.4539 43.6054C33.6539 43.6054 30.9539 41.1554 30.9539 37.4554C30.9539 33.6554 33.7539 30.8054 37.3539 30.8054C40.9039 30.8054 43.7039 33.6054 43.7039 37.5054C43.7039 41.1054 41.2539 43.6054 37.4539 43.6054ZM92.8211 43.5554H74.4211V28.5054H87.0211C87.4211 28.5054 87.7211 28.2054 87.7211 27.7554C87.7211 27.3554 87.4211 27.0554 87.0211 27.0554H74.4711V12.6054H92.8211C93.2211 12.6054 93.5211 12.3054 93.5211 11.8554C93.5211 11.4554 93.2211 11.1554 92.8211 11.1554H73.8211C73.1211 11.1554 72.7211 11.4554 72.4211 12.0554L51.2211 43.9554C50.9711 44.5054 51.3711 45.0554 51.9211 45.0554C52.2211 45.0554 52.4211 44.9054 52.5711 44.6554L63.3711 28.5054L72.9711 28.4554V44.2054C72.9711 44.6554 73.3211 45.0054 73.7711 45.0054H92.8211C93.2211 45.0054 93.5211 44.7054 93.5211 44.2554C93.5211 43.8554 93.2211 43.5554 92.8211 43.5554ZM64.0211 27.1054L73.0211 13.8054V27.0554L64.0211 27.1054ZM128.745 32.5054C129.495 32.5054 129.545 32.5054 129.545 31.2554C129.545 23.4054 127.545 20.0054 121.645 20.0054C117.095 20.0054 115.295 22.0054 114.545 24.8054C114.145 23.7054 113.545 22.7554 112.945 22.1054C111.645 20.7554 109.695 20.0054 107.395 20.0054C105.095 20.0054 103.095 20.7554 101.795 22.1054C100.745 23.2054 99.7449 25.2054 99.6449 26.6554C99.5949 27.3054 99.7949 27.6054 100.245 27.6054C100.845 27.6054 100.995 27.1554 101.095 26.7554C101.845 23.4054 103.545 21.4054 107.395 21.4054C109.295 21.4054 110.995 22.0054 111.945 23.1054C113.045 24.3054 113.745 26.4054 113.745 28.0554V32.7554C112.245 30.6054 109.895 29.4054 107.345 29.4054C102.995 29.4054 99.5449 32.8554 99.5449 37.4554C99.5449 41.9054 102.795 45.0054 107.595 45.0054C111.095 45.0054 113.595 43.3554 114.645 40.4554C115.495 43.1554 117.395 45.0054 121.545 45.0054C127.495 45.0054 129.245 41.2554 129.345 38.0554C129.345 37.4554 129.295 37.2054 128.795 37.1054C128.195 37.0054 128.045 37.4054 127.945 37.8554C127.595 39.4054 127.695 43.6054 121.595 43.6054C118.945 43.6054 117.145 42.8054 116.145 40.5554C115.345 38.7054 115.345 37.1054 115.345 32.5054H128.745ZM121.695 21.4554C126.745 21.4554 127.895 24.0554 128.095 31.0554H115.395C115.545 24.0054 116.695 21.4554 121.695 21.4554ZM107.495 43.6054C103.695 43.6054 100.995 41.1554 100.995 37.4554C100.995 33.6554 103.795 30.8054 107.395 30.8054C110.945 30.8054 113.745 33.6054 113.745 37.5054C113.745 41.1054 111.295 43.6054 107.495 43.6054ZM156.866 17.9554C156.466 16.7554 155.966 15.7054 155.316 14.8554L156.916 12.1554C157.216 11.6554 156.916 11.3054 156.466 11.1554C155.966 11.0054 155.766 11.1554 155.466 11.6554L154.266 13.7054C152.316 11.9554 149.716 11.1554 146.766 11.1554C142.016 11.1554 138.166 13.2054 136.666 17.9554C135.466 21.7054 135.566 25.4554 135.566 28.0554C135.566 30.7054 135.466 34.4554 136.666 38.2054C137.016 39.2554 137.416 40.1554 137.966 40.9554L136.166 44.0054C135.866 44.5054 136.166 44.8554 136.616 45.0054C137.116 45.1554 137.316 45.0054 137.616 44.5054L139.016 42.2054C140.916 44.1054 143.666 45.0054 146.766 45.0054C151.516 45.0054 155.366 42.9554 156.866 38.2054C158.066 34.4554 157.966 30.7054 157.966 28.0554C157.966 25.4554 158.066 21.7054 156.866 17.9554ZM138.016 37.7554C136.866 34.2054 137.016 30.6554 137.016 28.0554C137.016 25.5054 136.866 21.9554 138.016 18.4054C139.366 14.3054 142.516 12.6054 146.766 12.6054C149.516 12.6054 151.866 13.3054 153.466 14.9554L138.816 39.5554C138.516 39.0054 138.216 38.4054 138.016 37.7554ZM155.516 37.7554C154.166 41.8554 151.016 43.5554 146.766 43.5554C143.816 43.5554 141.416 42.7554 139.766 40.9054L154.466 16.2054C154.916 16.8554 155.266 17.6054 155.516 18.4054C156.666 21.9554 156.516 25.5054 156.516 28.0554C156.516 30.6554 156.666 34.2054 155.516 37.7554ZM179.475 22.2554L180.475 20.1054C180.725 19.6554 180.675 19.3054 180.325 19.1554C179.825 18.9054 179.475 19.0554 179.225 19.5554L178.425 21.3054C177.325 20.4554 175.775 20.0054 173.625 20.0054C165.875 20.0054 165.875 26.1054 165.875 32.5554C165.875 36.9054 165.875 41.1554 168.325 43.3554L167.325 45.6054C167.075 46.1054 167.225 46.4554 167.625 46.6554C168.075 46.8054 168.375 46.6554 168.575 46.2054L169.525 44.1554C170.525 44.7054 171.875 45.0054 173.625 45.0054C181.375 45.0054 181.375 38.9554 181.375 32.5554C181.375 28.5054 181.375 24.6554 179.475 22.2554ZM168.125 40.5054C167.325 38.5054 167.325 35.5054 167.325 35.4054C167.325 28.7554 167.375 26.4054 168.125 24.5054C168.975 22.3554 170.875 21.4554 173.625 21.4554C175.325 21.4554 176.775 21.8054 177.825 22.6554L169.025 41.9554C168.625 41.5554 168.375 41.0554 168.125 40.5054ZM179.125 40.5054C178.325 42.4554 176.625 43.5554 173.575 43.5554C172.125 43.5554 171.025 43.3054 170.125 42.8054L178.775 23.8054C178.925 24.0054 179.025 24.2554 179.125 24.5054C179.925 26.4054 179.925 29.6054 179.925 29.7054C179.925 36.2554 179.875 38.6554 179.125 40.5054ZM207.195 13.2554C203.795 10.9054 201.745 11.1554 191.195 11.1554C190.695 11.1554 190.395 11.4554 190.395 11.9554V30.2054H188.195C187.695 30.2054 187.395 30.4554 187.395 30.9054C187.395 31.3554 187.695 31.6554 188.195 31.6554H190.395V44.2054C190.395 44.7054 190.695 45.0054 191.195 45.0054C201.745 45.0054 203.795 45.2554 207.195 42.9054C212.495 39.1554 212.495 31.0554 212.495 28.1054C212.495 25.1054 212.495 17.0054 207.195 13.2554ZM206.295 41.7554C203.545 43.8054 201.545 43.5554 191.845 43.5554V31.6554H199.745C200.245 31.6554 200.545 31.3554 200.545 30.9054C200.545 30.4554 200.245 30.2054 199.745 30.2054H191.845V12.6054C201.545 12.6054 203.545 12.3554 206.295 14.4054C211.195 17.9054 211.045 25.5054 211.045 28.1054C211.045 30.6554 211.195 38.2554 206.295 41.7554ZM235.463 9.60543C235.163 9.20543 234.813 9.20543 234.363 9.55543L232.363 11.0554C231.163 8.75543 228.563 6.35543 227.613 5.95543C227.213 5.75543 226.763 5.85543 226.563 6.10543C226.313 6.50543 226.413 7.00543 226.763 7.25543C228.663 8.55543 229.463 9.30543 231.063 12.0054L228.313 14.0554C227.913 14.3554 227.863 14.7054 228.113 15.0554C228.413 15.4054 228.813 15.4054 229.163 15.1554L231.663 13.3054C233.613 16.4554 233.563 20.2554 233.563 20.9554V23.0054C232.513 21.2554 230.563 20.0054 227.113 20.0054C219.363 20.0054 219.363 26.1554 219.363 32.5554C219.363 39.0054 219.363 45.0054 227.163 45.0054C235.013 45.0054 235.013 38.9054 235.013 32.5554V20.9554C235.013 19.5054 235.013 15.5554 232.963 12.3554L235.263 10.7054C235.613 10.4554 235.713 10.0054 235.463 9.60543ZM232.613 40.5054C231.763 42.5554 230.013 43.5554 227.063 43.5554C224.113 43.5554 222.463 42.5554 221.613 40.4554C220.863 38.5554 220.813 36.1554 220.813 32.3554C220.813 28.6054 220.863 26.4054 221.613 24.5054C222.463 22.4554 224.163 21.4554 227.113 21.4554C230.263 21.4554 231.813 22.6054 232.613 24.5554C233.363 26.4554 233.413 28.6054 233.413 32.4054C233.413 36.2554 233.363 38.6554 232.613 40.5054ZM257.665 18.8554C253.815 16.9054 247.965 17.2054 243.065 17.2554V11.9554C243.065 11.4554 242.815 11.1554 242.365 11.1554C241.865 11.1554 241.615 11.4554 241.615 11.9554V38.9054V44.2554V44.3554C241.665 44.7554 241.915 45.0054 242.365 45.0054C242.615 45.0054 242.815 44.9054 242.915 44.7554C243.015 44.6054 243.115 44.4554 243.115 44.2554V38.6054C247.465 38.6554 253.615 39.0054 257.665 37.0054C261.065 35.3054 262.515 31.6054 262.515 27.5554C262.515 24.2554 261.065 20.5554 257.665 18.8554ZM256.365 35.8554C252.615 37.5054 247.415 37.1554 243.065 37.1554V18.7054C247.415 18.7054 252.615 18.3554 256.365 20.0054C260.215 21.8554 261.065 25.1054 261.065 27.5554C261.065 30.7554 260.215 34.0054 256.365 35.8554Z" fill="currentColor"/>
</svg>
