<svg  viewBox="0 0 160 50" fill="none" xmlns="http://www.w3.org/2000/svg">
<path d="M28.95 15.8C27.75 13.15 25.65 11.95 22.15 11.95C18.25 11.95 16.4 13.25 15.1 16.35C13.85 13.4 12.05 12 8.1 12C5.05 12 2.9 12.95 1.7 14.9V13C1.7 12.6 1.4 12.3 1 12.3C0.55 12.3 0.25 12.6 0.25 13V36.3C0.25 36.7 0.55 37 0.95 37C1.4 37 1.7 36.7 1.7 36.3V24.55C1.7 21.4 1.7 18.45 2.55 16.45C3.4 14.45 4.95 13.45 8.05 13.45C11.05 13.45 12.7 14.4 13.6 16.4C14.45 18.3 14.45 21.05 14.45 23.95V36.3C14.45 36.7 14.75 37 15.2 37C15.6 37 15.9 36.7 15.9 36.3V24.2C15.9 21.05 15.9 18.3 16.65 16.35C17.5 14.2 19.4 13.45 22.15 13.45C25 13.45 26.7 14.25 27.6 16.35C28.45 18.3 28.5 21 28.5 23.9V36.3C28.5 36.7 28.8 37 29.25 37C29.65 37 29.95 36.7 29.95 36.3V23.9C29.95 20.85 29.95 18 28.95 15.8ZM40.7797 0.399997C40.3797 0.199997 39.9797 0.349998 39.7297 0.749999L35.8297 7.7C35.5797 8.15 35.6797 8.55 36.0297 8.8C36.4297 9 36.8297 8.85 37.0797 8.45L40.9797 1.5C41.2297 1.05 41.1297 0.649997 40.7797 0.399997ZM36.3297 37C36.7797 37 37.0297 36.7 37.0297 36.2V12.8C37.0297 12.3 36.7797 12 36.3297 12C35.8297 12 35.5797 12.3 35.5797 12.8V36.2C35.5797 36.7 35.8297 37 36.3297 37ZM44.9352 6.95C45.7352 6.95 46.4352 6.25 46.4352 5.4C46.4352 4.6 45.7352 3.9 44.9352 3.9C44.0852 3.9 43.3852 4.6 43.3852 5.4C43.3852 6.25 44.0852 6.95 44.9352 6.95ZM40.1852 49.15C43.5352 48.7 45.1352 46.05 45.5352 42.75C45.7352 41.25 45.7352 39.5 45.7352 37.5V12.85C45.7352 12.35 45.4852 12.05 45.0352 12.05C44.5352 12.05 44.2852 12.35 44.2852 12.85V36.65C44.2852 42.6 44.2352 46.95 39.9352 47.65C39.5852 47.7 39.2852 48.05 39.2852 48.4C39.2852 48.85 39.7852 49.2 40.1852 49.15ZM53.1551 37C53.6051 37 53.9051 36.7 53.9051 36.3V24.55C53.9051 21.4 53.9051 18.45 54.7551 16.45C55.6051 14.45 57.1551 13.45 60.2551 13.45C63.2551 13.45 64.9051 14.4 65.8051 16.4C66.6551 18.3 66.6551 21.05 66.6551 23.95V36.3C66.6551 36.7 66.9551 37 67.4051 37C67.8051 37 68.1051 36.7 68.1051 36.3V24.2C68.1051 20.9 68.1551 18 67.1051 15.8C66.0051 13.25 63.7551 12 60.3051 12C57.2551 12 55.1051 12.95 53.9051 14.9V13C53.9051 12.6 53.6051 12.3 53.2051 12.3C52.7551 12.3 52.4551 12.6 52.4551 13V36.3C52.4551 36.7 52.7551 37 53.1551 37ZM88.3445 7C89.1445 7 89.8445 6.3 89.8445 5.45C89.8445 4.65 89.1445 3.95 88.3445 3.95C87.4945 3.95 86.7945 4.65 86.7945 5.45C86.7945 6.3 87.4945 7 88.3445 7ZM88.1945 37C88.6445 37 88.8945 36.7 88.8945 36.2V12.8C88.8945 12.3 88.6445 12 88.1945 12C87.6945 12 87.4445 12.3 87.4445 12.8V36.2C87.4445 36.7 87.6945 37 88.1945 37ZM101.511 35.55C99.3605 35.35 98.6605 34.35 98.3105 33.65C97.8105 32.5 97.7605 30.9 97.7605 29.15V3.95C97.7605 3.45 97.5105 3.15 97.0605 3.15C96.6105 3.15 96.3105 3.45 96.3105 3.95V28.4C96.3105 30.6 96.2605 32.75 97.1105 34.35C97.8605 36 99.3105 36.85 101.461 37C102.011 37.05 102.311 36.8 102.311 36.3C102.311 35.85 102.011 35.6 101.511 35.55ZM106.148 21.7C105.298 21.7 104.598 22.4 104.598 23.2C104.598 24.05 105.298 24.75 106.148 24.75C106.948 24.75 107.648 24.05 107.648 23.2C107.648 22.4 106.948 21.7 106.148 21.7ZM118.866 35.55C116.716 35.35 116.016 34.35 115.666 33.65C115.166 32.5 115.116 30.9 115.116 29.15V3.95C115.116 3.45 114.866 3.15 114.416 3.15C113.966 3.15 113.666 3.45 113.666 3.95V28.4C113.666 30.6 113.616 32.75 114.466 34.35C115.216 36 116.666 36.85 118.816 37C119.366 37.05 119.666 36.8 119.666 36.3C119.666 35.85 119.366 35.6 118.866 35.55ZM130.718 8.45C130.968 8.85 131.368 9 131.768 8.8C132.118 8.55 132.218 8.15 131.968 7.7L128.068 0.749999C127.818 0.349998 127.418 0.199997 127.018 0.399997C126.668 0.649997 126.568 1.05 126.818 1.5L130.718 8.45ZM138.268 24.5C139.018 24.5 139.068 24.5 139.068 23.25C139.068 15.4 137.068 12 131.168 12C124.018 12 123.668 16.95 123.468 22.15C123.418 23 123.418 23.45 123.418 24.5C123.418 30.75 123.418 37 131.068 37C137.018 37 138.768 33.25 138.868 30.05C138.868 29.45 138.818 29.2 138.318 29.1C137.718 29 137.568 29.4 137.468 29.85C137.118 31.4 137.218 35.6 131.118 35.6C128.468 35.6 126.668 34.8 125.668 32.55C124.868 30.7 124.868 29.1 124.868 24.5H138.268ZM131.218 13.45C136.268 13.45 137.418 16.05 137.618 23.05H124.918C125.068 16 126.218 13.45 131.218 13.45ZM151.984 37C156.634 37 159.234 34.1 159.234 30.45C159.234 25.35 154.084 24.2 151.934 23.65C148.734 22.85 145.934 21.65 145.934 18.6C145.934 15.45 148.784 13.45 152.084 13.45C154.834 13.45 156.984 14.9 157.634 17.35C157.834 18.35 159.134 18.35 159.134 17.2C158.484 14.25 156.134 12 152.084 12C147.484 12 144.384 14.9 144.384 18.5C144.384 22.35 147.934 24.3 151.634 25C155.184 25.8 157.784 27.45 157.784 30.5C157.784 33.35 155.484 35.55 152.034 35.55C148.934 35.55 146.484 33.8 145.934 31.65C145.734 30.65 144.284 30.25 144.384 31.65C144.484 33.2 146.684 37 151.984 37Z" fill="currentColor"/>
</svg>
