<svg  viewBox="0 0 52 35" fill="none" xmlns="http://www.w3.org/2000/svg">
<path d="M13.2 2.4C14 1.8 14.3 1.65 14.5 1.9C14.75 2.2 14.6 2.7 14.15 3.3C11.85 6.35 7.85 3.95 7.65 3.85C4.4 2.25 3.15 2.85 1.85 3.8C1.3 4.2 0.9 4.6 0.55 4.2C0.35 3.95 0.25 3.65 0.85 2.85C1.85 1.55 3.7 0.199997 7.4 2.2C9.1 3 11.15 3.9 13.2 2.4ZM0.95 34C1.4 34 1.7 33.7 1.7 33.3V21.55C1.7 18.4 1.7 15.45 2.55 13.45C3.4 11.45 4.95 10.45 8.05 10.45C11.05 10.45 12.7 11.4 13.6 13.4C14.45 15.3 14.45 18.05 14.45 20.95V33.3C14.45 33.7 14.75 34 15.2 34C15.6 34 15.9 33.7 15.9 33.3V21.2C15.9 17.9 15.95 15 14.9 12.8C13.8 10.25 11.55 9 8.1 9C5.05 9 2.9 9.95 1.7 11.9V10C1.7 9.6 1.4 9.3 1 9.3C0.55 9.3 0.25 9.6 0.25 10V33.3C0.25 33.7 0.55 34 0.95 34ZM51.2895 26.45C51.2895 23 51.2895 19.15 47.9895 17.45L47.4395 17.1L48.0895 16.75C51.2895 14.95 51.2895 11.85 51.2895 8.5C51.2895 7.9 51.1895 5.2 50.2395 3.25C49.5895 2 48.5895 1.2 47.0895 0.649997C46.1395 0.349998 45.5395 0.199997 43.4395 0.149998C40.6395 0.149998 39.6895 0.249999 38.4895 0.649997C36.8395 1.25 35.8395 2.15 35.2395 3.25C34.2895 5.15 34.1895 7.75 34.1895 10.25V33.4C34.1895 33.7 34.4895 34 34.8895 34C35.2895 34 35.5895 33.7 35.5895 33.4V10.25C35.5895 8.95 35.5395 5.55 36.5395 3.75C37.5895 2.2 39.0895 1.4 43.4395 1.4C46.0895 1.4 47.9895 1.8 49.0395 4.05C49.8395 5.8 49.8895 7.55 49.8895 10.25C49.8895 10.35 49.8895 12.2 49.0895 13.8C48.1895 15.65 46.4895 16.5 43.5395 16.5H41.5395C41.1395 16.5 40.8395 16.75 40.8395 17.1C40.8395 17.5 41.1395 17.8 41.5395 17.8H43.5395C46.6395 17.8 48.2895 18.7 49.0895 20.45C49.8395 22.05 49.8895 24.35 49.8895 25.75C49.8895 26 49.9395 28.3 49.0895 30.1C47.7895 32.7 45.0395 32.7 41.2395 32.75C40.8895 32.75 40.5395 33 40.5395 33.35C40.5395 33.7 40.8395 33.95 41.1895 33.95C43.7895 33.95 46.4395 34.1 48.6395 32.7C51.3395 30.9 51.2895 27.6 51.2895 26.45Z" fill="currentColor"/>
</svg>
