<svg viewBox="0 0 173 41" fill="none" xmlns="http://www.w3.org/2000/svg">
<path d="M2.5 6.95C3.3 6.95 4 6.25 4 5.4C4 4.6 3.3 3.9 2.5 3.9C1.65 3.9 0.95 4.6 0.95 5.4C0.95 6.25 1.65 6.95 2.5 6.95ZM13.1 6.95C13.9 6.95 14.6 6.25 14.6 5.4C14.6 4.6 13.9 3.9 13.1 3.9C12.25 3.9 11.55 4.6 11.55 5.4C11.55 6.25 12.25 6.95 13.1 6.95ZM8.3 37C12.95 37 15.85 34.05 15.85 29.2V20.05C15.85 17.8 14.85 15.35 13.65 14.1C12.35 12.75 10.4 12 8.1 12C5.8 12 3.8 12.75 2.5 14.1C1.45 15.2 0.45 17.2 0.35 18.65C0.3 19.3 0.5 19.6 0.95 19.6C1.55 19.6 1.7 19.15 1.8 18.75C2.55 15.4 4.25 13.4 8.1 13.4C10 13.4 11.7 14 12.65 15.1C13.75 16.3 14.45 18.4 14.45 20.05V24.75C12.95 22.6 10.6 21.4 8.05 21.4C3.7 21.4 0.25 24.85 0.25 29.45C0.25 33.9 3.5 37 8.3 37ZM8.2 35.6C4.4 35.6 1.7 33.15 1.7 29.45C1.7 25.65 4.5 22.8 8.1 22.8C11.65 22.8 14.45 25.6 14.45 29.5C14.45 33.1 12 35.6 8.2 35.6ZM42.1906 8.45C42.4406 8.85 42.8406 9 43.2406 8.8C43.5906 8.55 43.6906 8.15 43.4406 7.7L39.5406 0.749999C39.2906 0.349998 38.8906 0.199997 38.4906 0.399997C38.1406 0.649997 38.0406 1.05 38.2906 1.5L42.1906 8.45ZM49.7406 24.5C50.4906 24.5 50.5406 24.5 50.5406 23.25C50.5406 15.4 48.5406 12 42.6406 12C35.4906 12 35.1406 16.95 34.9406 22.15C34.8906 23 34.8906 23.45 34.8906 24.5C34.8906 30.75 34.8906 37 42.5406 37C48.4906 37 50.2406 33.25 50.3406 30.05C50.3406 29.45 50.2906 29.2 49.7906 29.1C49.1906 29 49.0406 29.4 48.9406 29.85C48.5906 31.4 48.6906 35.6 42.5906 35.6C39.9406 35.6 38.1406 34.8 37.1406 32.55C36.3406 30.7 36.3406 29.1 36.3406 24.5H49.7406ZM42.6906 13.45C47.7406 13.45 48.8906 16.05 49.0906 23.05H36.3906C36.5406 16 37.6906 13.45 42.6906 13.45ZM74.4301 0.399997C74.0301 0.199997 73.6301 0.349998 73.3801 0.749999L69.4801 7.7C69.2301 8.15 69.3301 8.55 69.6801 8.8C70.0801 9 70.4801 8.85 70.7301 8.45L74.6301 1.5C74.8801 1.05 74.7801 0.649997 74.4301 0.399997ZM69.9801 37C70.4301 37 70.6801 36.7 70.6801 36.2V12.8C70.6801 12.3 70.4301 12 69.9801 12C69.4801 12 69.2301 12.3 69.2301 12.8V36.2C69.2301 36.7 69.4801 37 69.9801 37ZM93.5629 0.399997C93.2129 0.649997 93.1129 1.05 93.3629 1.5L97.2629 8.45C97.5129 8.85 97.9129 9 98.3129 8.8C98.6629 8.55 98.7629 8.15 98.5129 7.7L94.6129 0.749999C94.3629 0.349998 93.9629 0.199997 93.5629 0.399997ZM98.0129 37C102.663 37 105.563 34.05 105.563 29.2V20.05C105.563 17.8 104.563 15.35 103.363 14.1C102.063 12.75 100.113 12 97.8129 12C95.5129 12 93.5129 12.75 92.2129 14.1C91.1629 15.2 90.1629 17.2 90.0629 18.65C90.0129 19.3 90.2129 19.6 90.6629 19.6C91.2629 19.6 91.4129 19.15 91.5129 18.75C92.2629 15.4 93.9629 13.4 97.8129 13.4C99.7129 13.4 101.413 14 102.363 15.1C103.463 16.3 104.163 18.4 104.163 20.05V24.75C102.663 22.6 100.313 21.4 97.7629 21.4C93.4129 21.4 89.9629 24.85 89.9629 29.45C89.9629 33.9 93.2129 37 98.0129 37ZM97.9129 35.6C94.1129 35.6 91.4129 33.15 91.4129 29.45C91.4129 25.65 94.2129 22.8 97.8129 22.8C101.363 22.8 104.163 25.6 104.163 29.5C104.163 33.1 101.713 35.6 97.9129 35.6ZM138.554 32.5C138.104 32.5 137.854 32.7 137.604 33.1C136.604 34.8 135.104 35.55 132.804 35.6C129.604 35.7 127.754 34.7 126.804 32.55C126.004 30.65 126.004 27.45 126.004 24.55C126.004 21.4 126.004 18.4 126.804 16.45C127.654 14.5 129.354 13.4 132.654 13.45C135.154 13.5 136.754 14.3 137.604 15.9C137.804 16.25 138.054 16.5 138.404 16.5C139.004 16.5 139.304 16.1 139.054 15.55C138.054 13.35 135.804 11.85 131.854 12C124.604 12.25 124.604 18.25 124.604 24.55C124.604 30.5 124.604 36.15 130.804 36.9L129.254 38.95C128.604 39.8 129.854 40.85 130.454 39.95L132.404 37.3C132.454 37.2 132.504 37.1 132.554 37H132.854C136.304 36.85 138.054 35.5 139.054 33.45C139.304 32.9 139.054 32.5 138.554 32.5ZM164.264 8.45C164.464 8.75 164.714 8.9 165.014 8.9C165.314 8.9 165.564 8.75 165.764 8.45L169.664 1.5C169.914 1.05 169.814 0.649997 169.464 0.399997C169.064 0.199997 168.664 0.349998 168.414 0.749999L165.014 6.8L161.614 0.749999C161.364 0.349998 160.964 0.199997 160.564 0.399997C160.214 0.649997 160.114 1.05 160.364 1.5L164.264 8.45ZM165.264 23.65C162.064 22.85 159.264 21.65 159.264 18.6C159.264 15.45 162.114 13.45 165.414 13.45C168.164 13.45 170.314 14.9 170.964 17.35C171.164 18.35 172.464 18.35 172.464 17.2C171.814 14.25 169.464 12 165.414 12C160.814 12 157.714 14.9 157.714 18.5C157.714 22.35 161.264 24.3 164.964 25C168.514 25.8 171.114 27.45 171.114 30.5C171.114 33.35 168.814 35.55 165.364 35.55C162.264 35.55 159.814 33.8 159.264 31.65C159.064 30.65 157.614 30.25 157.714 31.65C157.814 33.2 160.014 37 165.314 37C169.964 37 172.564 34.1 172.564 30.45C172.564 25.35 167.414 24.2 165.264 23.65Z" fill="currentColor"/>
</svg>
