<svg width="118" height="52" viewBox="0 -1 121 52" fill="black" xmlns="http://www.w3.org/2000/svg">
<path d="M22.41 0.609985V22.94H6.86999V0.609985H0.149994V48H6.86999V24.55H22.41V48H29.13V0.609985H22.41Z" />
<path d="M45.0134 29.66H60.1334V26.37C60.1334 14.68 56.3534 9.49999 47.1834 9.49999C35.7034 9.49999 35.1434 17.9 34.7934 25.25C34.7234 26.44 34.7234 27.14 34.7234 28.61C34.7234 37.15 34.7234 48 46.9734 48C53.4834 48 59.1534 45.34 59.1534 39.74L53.3434 38.55C52.9234 42.19 51.4534 46.39 47.3234 46.39C43.9634 46.39 42.2834 42.82 41.9334 40.3C41.5834 37.5 41.4434 35.54 41.4434 29.59C42.5634 29.66 43.8234 29.66 45.0134 29.66ZM47.3234 11.11C52.4334 11.11 53.4134 16.29 53.4134 28.05H41.5134C41.5134 16.29 41.9334 11.11 47.3234 11.11Z" />
<path d="M75.2266 48H77.1866V46.39C76.7666 46.39 75.9966 46.39 75.2966 46.32C72.4266 46.04 72.4266 43.1 72.4266 37.71V0.609985L65.7066 4.10999V33.86C65.7066 42.33 65.6366 48 75.2266 48Z" />
<path d="M89.5137 48H91.4737V46.39C91.0537 46.39 90.2837 46.39 89.5837 46.32C86.7137 46.04 86.7137 43.1 86.7137 37.71V0.609985L79.9937 4.10999V33.86C79.9937 42.33 79.9237 48 89.5137 48Z" />
<path d="M107.626 48C120.086 48 120.856 37.85 120.856 28.68C120.856 19.58 120.086 9.49999 107.626 9.49999C95.1662 9.49999 94.6062 19.58 94.6062 28.68C94.6062 37.85 95.1662 48 107.626 48ZM107.696 46.46C105.036 46.46 103.566 45.27 102.726 43.24C101.536 40.37 101.676 35.47 101.676 28.61C101.676 21.61 101.536 16.85 102.936 13.91C103.776 12.16 105.246 11.11 107.696 11.11C110.076 11.11 111.336 12.23 112.106 13.63C113.716 16.57 113.716 20.14 113.716 28.68C113.716 37.08 113.576 40.58 112.526 43.1C111.616 45.27 110.146 46.46 107.696 46.46Z" />
</svg>
