<svg width="113" height="49" viewBox="-2 0 118 49" fill="black" xmlns="http://www.w3.org/2000/svg">
<path d="M27.94 0.609985C27.31 0.609985 26.89 1.02999 26.89 1.58998V22.87H2.17999V1.58998C2.17999 1.02999 1.75999 0.609985 1.12999 0.609985C0.569994 0.609985 0.149994 1.02999 0.149994 1.58998V47.02C0.149994 47.58 0.569994 48 1.12999 48C1.75999 48 2.17999 47.58 2.17999 47.02V24.9H26.89V47.02C26.89 47.58 27.31 48 27.94 48C28.5 48 28.92 47.58 28.92 47.02V1.58998C28.92 1.02999 28.5 0.609985 27.94 0.609985Z" />
<path d="M58.2642 30.5C59.3142 30.5 59.3842 30.5 59.3842 28.75C59.3842 17.76 56.5842 13 48.3242 13C38.3142 13 37.8242 19.93 37.5442 27.21C37.4742 28.4 37.4742 29.03 37.4742 30.5C37.4742 39.25 37.4742 48 48.1842 48C56.5142 48 58.9642 42.75 59.1042 38.27C59.1042 37.43 59.0342 37.08 58.3342 36.94C57.4942 36.8 57.2842 37.36 57.1442 37.99C56.6542 40.16 56.7942 46.04 48.2542 46.04C44.5442 46.04 42.0242 44.92 40.6242 41.77C39.5042 39.18 39.5042 36.94 39.5042 30.5H58.2642ZM48.3942 15.03C55.4642 15.03 57.0742 18.67 57.3542 28.47H39.5742C39.7842 18.6 41.3942 15.03 48.3942 15.03Z" />
<path d="M72.9866 45.97C69.9766 45.69 68.9966 44.29 68.5066 43.31C67.8066 41.7 67.7366 39.46 67.7366 37.01V1.72999C67.7366 1.02999 67.3866 0.609985 66.7566 0.609985C66.1266 0.609985 65.7066 1.02999 65.7066 1.72999V35.96C65.7066 39.04 65.6366 42.05 66.8266 44.29C67.8766 46.6 69.9066 47.79 72.9166 48C73.6866 48.07 74.1066 47.72 74.1066 47.02C74.1066 46.39 73.6866 46.04 72.9866 45.97Z" />
<path d="M86.6585 45.97C83.6485 45.69 82.6685 44.29 82.1785 43.31C81.4785 41.7 81.4085 39.46 81.4085 37.01V1.72999C81.4085 1.02999 81.0585 0.609985 80.4285 0.609985C79.7985 0.609985 79.3785 1.02999 79.3785 1.72999V35.96C79.3785 39.04 79.3085 42.05 80.4985 44.29C81.5485 46.6 83.5785 47.79 86.5885 48C87.3585 48.07 87.7785 47.72 87.7785 47.02C87.7785 46.39 87.3585 46.04 86.6585 45.97Z" />
<path d="M101.781 48C112.631 48 112.631 39.53 112.631 30.57C112.631 21.54 112.631 13 101.781 13C90.9312 13 90.9312 21.54 90.9312 30.57C90.9312 39.53 90.9312 48 101.781 48ZM101.711 45.97C97.6512 45.97 95.2712 44.57 94.0812 41.7C92.9612 38.9 92.9612 34.7 92.9612 34.56C92.9612 25.25 93.0312 21.96 94.0812 19.3C95.2712 16.29 97.9312 15.03 101.781 15.03C105.491 15.03 108.221 16.22 109.481 19.3C110.601 21.96 110.601 26.44 110.601 26.58C110.601 35.75 110.531 39.11 109.481 41.7C108.361 44.43 105.981 45.97 101.711 45.97Z" />
</svg>
