<svg width="966" height="273" viewBox="0 0 966 273" fill="none" xmlns="http://www.w3.org/2000/svg">
<path d="M27.42 48H34.7L19.37 1.87C19.23 1.17 18.53 0.609997 17.76 0.609997C16.99 0.609997 16.29 1.17 16.15 1.87L2.15 48H3.9L9.57 29.8H21.68L27.42 48ZM10.06 28.05L15.52 10.48L21.12 28.05H10.06ZM51.4781 48C59.2481 48 64.2881 44.36 64.7081 37.99C65.1281 29.52 56.5881 28.26 52.6681 27.21C47.5581 25.95 47.2781 22.24 47.2781 19.3C47.6981 14.26 48.6081 11.11 53.4381 11.11C58.8281 11.11 58.7581 15.8 58.7581 17.9L64.5681 17.83C65.0581 10.34 58.9681 9.64 53.4381 9.5C46.5781 9.43 40.9781 13.42 40.5581 19.58C40.3481 25.04 44.4081 27.7 51.6181 29.45C57.2181 31.27 58.1981 34.56 57.9881 38.41C57.7781 41.91 56.7281 46.39 51.4081 46.39C46.6481 46.39 46.5081 41.56 46.4381 38.83L40.6281 39.18C40.2081 45.83 45.5981 48 51.4781 48ZM113.163 22.94H101.263V24.55H107.073C107.003 40.09 106.933 46.39 98.6729 46.39C90.3429 46.39 91.1129 38.97 91.1829 20.7C91.1129 9.64 90.7629 2.22 99.0929 2.22C105.183 2.22 106.723 6.63 106.863 13.28H113.233C112.743 4.6 107.843 0.609997 99.0929 0.609997C85.7229 0.609997 83.8329 11.88 84.1829 20.7C83.8329 36.73 85.7229 48 99.0929 48C111.973 48 113.723 37.64 114.143 24.55V23.71C114.143 23.29 114.143 22.94 113.163 22.94ZM127.132 9.5L120.412 11.46V48H127.132V20.91C127.132 15.03 128.042 11.67 132.242 11.11C135.742 10.62 135.952 15.94 136.442 20.91L142.252 18.74C142.462 11.95 140.082 9.5 134.132 9.5C131.052 9.5 128.812 10.13 127.132 11.95V9.5ZM155.705 29.66H170.825V26.37C170.825 14.68 167.045 9.5 157.875 9.5C146.395 9.5 145.835 17.9 145.485 25.25C145.415 26.44 145.415 27.14 145.415 28.61C145.415 37.15 145.415 48 157.665 48C164.175 48 169.845 45.34 169.845 39.74L164.035 38.55C163.615 42.19 162.145 46.39 158.015 46.39C154.655 46.39 152.975 42.82 152.625 40.3C152.275 37.5 152.135 35.54 152.135 29.59C153.255 29.66 154.515 29.66 155.705 29.66ZM158.015 11.11C163.125 11.11 164.105 16.29 164.105 28.05H152.205C152.205 16.29 152.625 11.11 158.015 11.11ZM187.701 9.5C175.031 9.5 175.031 19.51 175.031 28.68C175.031 37.78 175.031 48 187.631 48C190.781 48 192.951 46.81 194.351 45.34V50.87C194.351 56.82 195.331 59.69 183.851 59.69V61.3C192.741 61.02 196.031 60.53 198.621 57.73C200.021 56.12 200.791 53.95 200.791 51.01V28.68C200.791 19.65 200.791 9.5 187.701 9.5ZM193.721 28.61C193.721 34.21 193.721 40.93 192.111 43.87C191.271 45.48 189.801 46.39 187.631 46.39C185.321 46.39 183.851 45.34 183.011 43.59C181.611 40.65 181.751 34 181.751 28.89C181.751 23.43 181.611 17.2 182.801 14.33C183.641 12.3 185.111 11.11 187.631 11.11C190.151 11.11 191.691 12.37 192.531 14.47C193.791 17.41 193.721 23.57 193.721 28.61ZM219.411 48C231.871 48 232.641 37.85 232.641 28.68C232.641 19.58 231.871 9.5 219.411 9.5C206.951 9.5 206.391 19.58 206.391 28.68C206.391 37.85 206.951 48 219.411 48ZM219.481 46.46C216.821 46.46 215.351 45.27 214.511 43.24C213.321 40.37 213.461 35.47 213.461 28.61C213.461 21.61 213.321 16.85 214.721 13.91C215.561 12.16 217.031 11.11 219.481 11.11C221.861 11.11 223.121 12.23 223.891 13.63C225.501 16.57 225.501 20.14 225.501 28.68C225.501 37.08 225.361 40.58 224.311 43.1C223.401 45.27 221.931 46.46 219.481 46.46ZM244.983 9.5L238.263 11.46V48H244.983V20.91C244.983 15.03 245.893 11.67 250.093 11.11C253.593 10.62 253.803 15.94 254.293 20.91L260.103 18.74C260.313 11.95 257.933 9.5 251.983 9.5C248.903 9.5 246.663 10.13 244.983 11.95V9.5ZM289.145 48C299.715 48.49 305.665 43.24 306.015 36.45C307.065 18.18 282.075 25.67 282.565 10.48C282.775 4.04 285.855 2.15 291.455 2.29C296.775 2.43 299.645 4.25 298.875 13.21L305.735 12.93C306.505 4.32 301.745 0.889997 292.085 0.609997C281.585 0.329996 275.915 6.28 275.845 11.6C275.495 30.15 300.065 22.59 299.225 37.92C298.805 45.06 295.515 46.74 289.495 46.39C285.225 46.18 282.915 44.5 283.195 35.12L276.265 35.61C275.495 44.5 281.515 47.65 289.145 48ZM322.212 48C330.122 48 334.882 43.24 334.882 35.47V22.38C334.882 18.67 333.762 15.66 331.872 13.42C329.632 10.9 326.342 9.5 322.212 9.5C317.382 9.5 312.902 11.18 311.082 16.22L317.032 17.2C317.592 13.35 318.852 11.11 322.212 11.11C327.672 11.11 328.372 16.99 328.372 25.32C327.182 23.64 324.942 22.94 322.212 22.94C315.212 22.94 309.682 28.54 309.682 35.82C309.682 42.89 314.792 48 322.212 48ZM322.212 46.46C317.942 46.46 316.402 42.75 316.402 35.47C316.402 28.47 317.802 24.55 322.212 24.55C326.552 24.55 328.162 28.75 328.162 35.47C328.162 42.05 326.692 46.46 322.212 46.46ZM371.261 9.5C367.971 9.5 365.521 10.48 364.261 11.95C363.701 12.58 363.421 13.07 363.211 13.77C361.811 10.55 358.941 9.5 353.761 9.5C350.471 9.5 348.441 10.48 347.181 11.95V9.5L340.461 11.46V48H347.181V20.91C347.181 14.4 348.231 11.53 352.431 11.18C357.261 10.76 358.101 12.72 358.101 22.8V48H364.261V20.91C364.261 14.33 365.661 11.53 369.931 11.18C374.761 10.76 375.601 12.72 375.601 22.8V48H382.321V21.19C382.321 11.95 379.801 9.5 371.261 9.5ZM398.402 48C406.172 48 411.212 44.36 411.632 37.99C412.052 29.52 403.512 28.26 399.592 27.21C394.482 25.95 394.202 22.24 394.202 19.3C394.622 14.26 395.532 11.11 400.362 11.11C405.752 11.11 405.682 15.8 405.682 17.9L411.492 17.83C411.982 10.34 405.892 9.64 400.362 9.5C393.502 9.43 387.902 13.42 387.482 19.58C387.272 25.04 391.332 27.7 398.542 29.45C404.142 31.27 405.122 34.56 404.912 38.41C404.702 41.91 403.652 46.39 398.332 46.39C393.572 46.39 393.432 41.56 393.362 38.83L387.552 39.18C387.132 45.83 392.522 48 398.402 48ZM427.828 48C435.738 48 440.498 43.24 440.498 35.47V22.38C440.498 18.67 439.378 15.66 437.488 13.42C435.248 10.9 431.958 9.5 427.828 9.5C422.998 9.5 418.518 11.18 416.698 16.22L422.648 17.2C423.208 13.35 424.468 11.11 427.828 11.11C433.288 11.11 433.988 16.99 433.988 25.32C432.798 23.64 430.558 22.94 427.828 22.94C420.828 22.94 415.298 28.54 415.298 35.82C415.298 42.89 420.408 48 427.828 48ZM427.828 46.46C423.558 46.46 422.018 42.75 422.018 35.47C422.018 28.47 423.418 24.55 427.828 24.55C432.168 24.55 433.778 28.75 433.778 35.47C433.778 42.05 432.308 46.46 427.828 46.46ZM471.919 48C479.829 48 484.589 43.24 484.589 35.47V22.38C484.589 18.67 483.469 15.66 481.579 13.42C479.339 10.9 476.049 9.5 471.919 9.5C467.089 9.5 462.609 11.18 460.789 16.22L466.739 17.2C467.299 13.35 468.559 11.11 471.919 11.11C477.379 11.11 478.079 16.99 478.079 25.32C476.889 23.64 474.649 22.94 471.919 22.94C464.919 22.94 459.389 28.54 459.389 35.82C459.389 42.89 464.499 48 471.919 48ZM471.919 46.46C467.649 46.46 466.109 42.75 466.109 35.47C466.109 28.47 467.509 24.55 471.919 24.55C476.259 24.55 477.869 28.75 477.869 35.47C477.869 42.05 476.399 46.46 471.919 46.46ZM531.518 10.13L521.298 42.54L511.848 9.5H505.128L509.188 22.1L502.818 42.54L493.368 9.5H486.578L498.408 46.25C499.038 48.14 502.188 48.63 503.168 46.74L510.098 24.97L516.888 46.25C517.518 48.14 520.668 48.63 521.648 46.74L533.268 10.62C533.758 9.71 532.078 8.52 531.518 10.13ZM548.425 48C560.885 48 561.655 37.85 561.655 28.68C561.655 19.58 560.885 9.5 548.425 9.5C535.965 9.5 535.405 19.58 535.405 28.68C535.405 37.85 535.965 48 548.425 48ZM548.495 46.46C545.835 46.46 544.365 45.27 543.525 43.24C542.335 40.37 542.475 35.47 542.475 28.61C542.475 21.61 542.335 16.85 543.735 13.91C544.575 12.16 546.045 11.11 548.495 11.11C550.875 11.11 552.135 12.23 552.905 13.63C554.515 16.57 554.515 20.14 554.515 28.68C554.515 37.08 554.375 40.58 553.325 43.1C552.415 45.27 550.945 46.46 548.495 46.46ZM588.627 48H595.697L579.317 21.75L592.897 9.5H590.307L573.717 24.69V0.609997L566.997 4.11V48H573.717V26.86L574.907 25.81L588.627 48ZM608.449 29.66H623.569V26.37C623.569 14.68 619.789 9.5 610.619 9.5C599.139 9.5 598.579 17.9 598.229 25.25C598.159 26.44 598.159 27.14 598.159 28.61C598.159 37.15 598.159 48 610.409 48C616.919 48 622.589 45.34 622.589 39.74L616.779 38.55C616.359 42.19 614.889 46.39 610.759 46.39C607.399 46.39 605.719 42.82 605.369 40.3C605.019 37.5 604.879 35.54 604.879 29.59C605.999 29.66 607.259 29.66 608.449 29.66ZM610.759 11.11C615.869 11.11 616.849 16.29 616.849 28.05H604.949C604.949 16.29 605.369 11.11 610.759 11.11ZM655.476 48C667.936 48 668.706 37.85 668.706 28.68C668.706 19.58 667.936 9.5 655.476 9.5C643.016 9.5 642.456 19.58 642.456 28.68C642.456 37.85 643.016 48 655.476 48ZM655.546 46.46C652.886 46.46 651.416 45.27 650.576 43.24C649.386 40.37 649.526 35.47 649.526 28.61C649.526 21.61 649.386 16.85 650.786 13.91C651.626 12.16 653.096 11.11 655.546 11.11C657.926 11.11 659.186 12.23 659.956 13.63C661.566 16.57 661.566 20.14 661.566 28.68C661.566 37.08 661.426 40.58 660.376 43.1C659.466 45.27 657.996 46.46 655.546 46.46ZM697.498 13.21C694.628 9.85 690.498 9.5 687.628 9.5C684.758 9.5 682.098 10.69 681.188 13.14L681.048 9.5L674.328 11.46V48H681.048V29.03C681.048 19.3 680.698 11.18 687.628 11.18C694.558 11.18 693.998 18.11 693.998 28.89L693.928 48H700.648L700.718 28.89C700.648 19.93 700.438 16.71 697.498 13.21ZM716.594 29.66H731.714V26.37C731.714 14.68 727.934 9.5 718.764 9.5C707.284 9.5 706.724 17.9 706.374 25.25C706.304 26.44 706.304 27.14 706.304 28.61C706.304 37.15 706.304 48 718.554 48C725.064 48 730.734 45.34 730.734 39.74L724.924 38.55C724.504 42.19 723.034 46.39 718.904 46.39C715.544 46.39 713.864 42.82 713.514 40.3C713.164 37.5 713.024 35.54 713.024 29.59C714.144 29.66 715.404 29.66 716.594 29.66ZM718.904 11.11C724.014 11.11 724.994 16.29 724.994 28.05H713.094C713.094 16.29 713.514 11.11 718.904 11.11ZM782.1 9.5C778.81 9.5 776.36 10.48 775.1 11.95C774.54 12.58 774.26 13.07 774.05 13.77C772.65 10.55 769.78 9.5 764.6 9.5C761.31 9.5 759.28 10.48 758.02 11.95V9.5L751.3 11.46V48H758.02V20.91C758.02 14.4 759.07 11.53 763.27 11.18C768.1 10.76 768.94 12.72 768.94 22.8V48H775.1V20.91C775.1 14.33 776.5 11.53 780.77 11.18C785.6 10.76 786.44 12.72 786.44 22.8V48H793.16V21.19C793.16 11.95 790.64 9.5 782.1 9.5ZM811.062 48C823.522 48 824.292 37.85 824.292 28.68C824.292 19.58 823.522 9.5 811.062 9.5C798.602 9.5 798.042 19.58 798.042 28.68C798.042 37.85 798.602 48 811.062 48ZM811.132 46.46C808.472 46.46 807.002 45.27 806.162 43.24C804.972 40.37 805.112 35.47 805.112 28.61C805.112 21.61 804.972 16.85 806.372 13.91C807.212 12.16 808.682 11.11 811.132 11.11C813.512 11.11 814.772 12.23 815.542 13.63C817.152 16.57 817.152 20.14 817.152 28.68C817.152 37.08 817.012 40.58 815.962 43.1C815.052 45.27 813.582 46.46 811.132 46.46ZM836.634 9.5L829.914 11.46V48H836.634V20.91C836.634 15.03 837.544 11.67 841.744 11.11C845.244 10.62 845.454 15.94 845.944 20.91L851.754 18.74C851.964 11.95 849.584 9.5 843.634 9.5C840.554 9.5 838.314 10.13 836.634 11.95V9.5ZM880.154 13.21C877.284 9.85 873.154 9.5 870.284 9.5C867.414 9.5 864.754 10.69 863.844 13.14L863.704 9.5L856.984 11.46V48H863.704V29.03C863.704 19.3 863.354 11.18 870.284 11.18C877.214 11.18 876.654 18.11 876.654 28.89L876.584 48H883.304L883.374 28.89C883.304 19.93 883.094 16.71 880.154 13.21ZM889.59 0.609997V6.14H895.89V0.609997H889.59ZM889.66 48H895.96V9.5H889.66V48ZM925.408 13.21C922.538 9.85 918.408 9.5 915.538 9.5C912.668 9.5 910.008 10.69 909.098 13.14L908.958 9.5L902.238 11.46V48H908.958V29.03C908.958 19.3 908.608 11.18 915.538 11.18C922.468 11.18 921.908 18.11 921.908 28.89L921.838 48H928.558L928.628 28.89C928.558 19.93 928.348 16.71 925.408 13.21ZM947.584 9.5C934.914 9.5 934.914 19.51 934.914 28.68C934.914 37.78 934.914 48 947.514 48C950.664 48 952.834 46.81 954.234 45.34V50.87C954.234 56.82 955.214 59.69 943.734 59.69V61.3C952.624 61.02 955.914 60.53 958.504 57.73C959.904 56.12 960.674 53.95 960.674 51.01V28.68C960.674 19.65 960.674 9.5 947.584 9.5ZM953.604 28.61C953.604 34.21 953.604 40.93 951.994 43.87C951.154 45.48 949.684 46.39 947.514 46.39C945.204 46.39 943.734 45.34 942.894 43.59C941.494 40.65 941.634 34 941.634 28.89C941.634 23.43 941.494 17.2 942.684 14.33C943.524 12.3 944.994 11.11 947.514 11.11C950.034 11.11 951.574 12.37 952.414 14.47C953.674 17.41 953.604 23.57 953.604 28.61ZM1.8 123H8.52V104.66H14.96V103.05H8.52V83.94C8.52 78.69 10.83 77.22 14.89 77.22H17.2V75.61H14.96C4.95 75.61 1.8 80.51 1.8 86.32V123ZM27.6005 84.5L20.8805 86.46V123H27.6005V95.91C27.6005 90.03 28.5105 86.67 32.7105 86.11C36.2105 85.62 36.4205 90.94 36.9105 95.91L42.7205 93.74C42.9305 86.95 40.5505 84.5 34.6005 84.5C31.5205 84.5 29.2805 85.13 27.6005 86.95V84.5ZM58.9036 123C71.3636 123 72.1336 112.85 72.1336 103.68C72.1336 94.58 71.3636 84.5 58.9036 84.5C46.4436 84.5 45.8836 94.58 45.8836 103.68C45.8836 112.85 46.4436 123 58.9036 123ZM58.9736 121.46C56.3136 121.46 54.8436 120.27 54.0036 118.24C52.8136 115.37 52.9536 110.47 52.9536 103.61C52.9536 96.61 52.8136 91.85 54.2136 88.91C55.0536 87.16 56.5236 86.11 58.9736 86.11C61.3536 86.11 62.6136 87.23 63.3836 88.63C64.9936 91.57 64.9936 95.14 64.9936 103.68C64.9936 112.08 64.8536 115.58 63.8036 118.1C62.8936 120.27 61.4236 121.46 58.9736 121.46ZM108.555 84.5C105.265 84.5 102.815 85.48 101.555 86.95C100.995 87.58 100.715 88.07 100.505 88.77C99.1055 85.55 96.2355 84.5 91.0555 84.5C87.7655 84.5 85.7355 85.48 84.4755 86.95V84.5L77.7555 86.46V123H84.4755V95.91C84.4755 89.4 85.5255 86.53 89.7255 86.18C94.5555 85.76 95.3955 87.72 95.3955 97.8V123H101.555V95.91C101.555 89.33 102.955 86.53 107.225 86.18C112.055 85.76 112.895 87.72 112.895 97.8V123H119.615V96.19C119.615 86.95 117.095 84.5 108.555 84.5ZM165.321 84.5H158.601L158.671 103.61C158.741 114.39 159.231 121.32 152.301 121.32C145.371 121.32 145.931 114.39 145.931 103.61L146.001 84.5H139.281L139.211 103.61C139.211 112.57 139.491 115.79 142.431 119.29C145.301 122.65 149.431 123 152.301 123C155.171 123 159.301 122.65 162.171 119.29C165.111 115.79 165.321 112.57 165.391 103.61L165.321 84.5ZM193.826 88.21C190.956 84.85 186.826 84.5 183.956 84.5C181.086 84.5 178.426 85.69 177.516 88.14L177.376 84.5L170.656 86.46V123H177.376V104.03C177.376 94.3 177.026 86.18 183.956 86.18C190.886 86.18 190.326 93.11 190.326 103.89L190.256 123H196.976L197.046 103.89C196.976 94.93 196.766 91.71 193.826 88.21ZM212.922 104.66H228.042V101.37C228.042 89.68 224.262 84.5 215.092 84.5C203.612 84.5 203.052 92.9 202.702 100.25C202.632 101.44 202.632 102.14 202.632 103.61C202.632 112.15 202.632 123 214.882 123C221.392 123 227.062 120.34 227.062 114.74L221.252 113.55C220.832 117.19 219.362 121.39 215.232 121.39C211.872 121.39 210.192 117.82 209.842 115.3C209.492 112.5 209.352 110.54 209.352 104.59C210.472 104.66 211.732 104.66 212.922 104.66ZM215.232 86.11C220.342 86.11 221.322 91.29 221.322 103.05H209.422C209.422 91.29 209.842 86.11 215.232 86.11ZM245.445 123C253.355 123 258.115 118.24 258.115 110.47V97.38C258.115 93.67 256.995 90.66 255.105 88.42C252.865 85.9 249.575 84.5 245.445 84.5C240.615 84.5 236.135 86.18 234.315 91.22L240.265 92.2C240.825 88.35 242.085 86.11 245.445 86.11C250.905 86.11 251.605 91.99 251.605 100.32C250.415 98.64 248.175 97.94 245.445 97.94C238.445 97.94 232.915 103.54 232.915 110.82C232.915 117.89 238.025 123 245.445 123ZM245.445 121.46C241.175 121.46 239.635 117.75 239.635 110.47C239.635 103.47 241.035 99.55 245.445 99.55C249.785 99.55 251.395 103.75 251.395 110.47C251.395 117.05 249.925 121.46 245.445 121.46ZM273.509 123C281.279 123 286.319 119.36 286.739 112.99C287.159 104.52 278.619 103.26 274.699 102.21C269.589 100.95 269.309 97.24 269.309 94.3C269.729 89.26 270.639 86.11 275.469 86.11C280.859 86.11 280.789 90.8 280.789 92.9L286.599 92.83C287.089 85.34 280.999 84.64 275.469 84.5C268.609 84.43 263.009 88.42 262.589 94.58C262.379 100.04 266.439 102.7 273.649 104.45C279.249 106.27 280.229 109.56 280.019 113.41C279.809 116.91 278.759 121.39 273.439 121.39C268.679 121.39 268.539 116.56 268.469 113.83L262.659 114.18C262.239 120.83 267.629 123 273.509 123ZM311.24 84.5V103.68C311.24 109.28 311.24 115.93 309.63 118.87C308.79 120.48 307.32 121.39 305.15 121.39C302.84 121.39 301.37 120.34 300.53 118.59C299.13 115.65 299.27 108.79 299.27 103.68V84.5H292.55V103.68C292.55 112.78 292.55 123 305.15 123C308.3 123 310.47 121.81 311.87 120.34V125.87C311.87 128.32 312.57 133.5 307.04 134.41C306.55 134.48 304.24 134.69 300.88 134.69V136.3H305.29C310.19 136.3 313.9 135.32 316.14 132.87C317.54 131.26 318.31 129.09 318.31 126.15V84.5H311.24ZM357.935 78.41V87.16C356.535 85.69 354.365 84.5 351.215 84.5C338.615 84.5 338.615 94.72 338.615 103.82C338.615 112.99 338.615 123 351.285 123C364.375 123 364.375 112.85 364.375 103.82V75.61L357.935 78.41ZM356.115 118.03C355.275 120.13 353.735 121.39 351.215 121.39C348.695 121.39 347.225 120.2 346.385 118.17C345.195 115.3 345.335 109.07 345.335 103.61C345.335 98.5 345.195 91.85 346.595 88.91C347.435 87.16 348.905 86.11 351.215 86.11C353.385 86.11 354.855 87.02 355.695 88.63C357.305 91.57 357.305 98.29 357.305 103.89C357.305 108.93 357.375 115.09 356.115 118.03ZM377.327 84.5L370.607 86.46V123H377.327V95.91C377.327 90.03 378.237 86.67 382.437 86.11C385.937 85.62 386.147 90.94 386.637 95.91L392.447 93.74C392.657 86.95 390.277 84.5 384.327 84.5C381.247 84.5 379.007 85.13 377.327 86.95V84.5ZM405.9 104.66H421.02V101.37C421.02 89.68 417.24 84.5 408.07 84.5C396.59 84.5 396.03 92.9 395.68 100.25C395.61 101.44 395.61 102.14 395.61 103.61C395.61 112.15 395.61 123 407.86 123C414.37 123 420.04 120.34 420.04 114.74L414.23 113.55C413.81 117.19 412.34 121.39 408.21 121.39C404.85 121.39 403.17 117.82 402.82 115.3C402.47 112.5 402.33 110.54 402.33 104.59C403.45 104.66 404.71 104.66 405.9 104.66ZM408.21 86.11C413.32 86.11 414.3 91.29 414.3 103.05H402.4C402.4 91.29 402.82 86.11 408.21 86.11ZM438.423 123C446.333 123 451.093 118.24 451.093 110.47V97.38C451.093 93.67 449.973 90.66 448.083 88.42C445.843 85.9 442.553 84.5 438.423 84.5C433.593 84.5 429.113 86.18 427.293 91.22L433.243 92.2C433.803 88.35 435.063 86.11 438.423 86.11C443.883 86.11 444.583 91.99 444.583 100.32C443.393 98.64 441.153 97.94 438.423 97.94C431.423 97.94 425.893 103.54 425.893 110.82C425.893 117.89 431.003 123 438.423 123ZM438.423 121.46C434.153 121.46 432.613 117.75 432.613 110.47C432.613 103.47 434.013 99.55 438.423 99.55C442.763 99.55 444.373 103.75 444.373 110.47C444.373 117.05 442.903 121.46 438.423 121.46ZM487.471 84.5C484.181 84.5 481.731 85.48 480.471 86.95C479.911 87.58 479.631 88.07 479.421 88.77C478.021 85.55 475.151 84.5 469.971 84.5C466.681 84.5 464.651 85.48 463.391 86.95V84.5L456.671 86.46V123H463.391V95.91C463.391 89.4 464.441 86.53 468.641 86.18C473.471 85.76 474.311 87.72 474.311 97.8V123H480.471V95.91C480.471 89.33 481.871 86.53 486.141 86.18C490.971 85.76 491.811 87.72 491.811 97.8V123H498.531V96.19C498.531 86.95 496.011 84.5 487.471 84.5ZM514.613 123C522.383 123 527.423 119.36 527.843 112.99C528.263 104.52 519.723 103.26 515.803 102.21C510.693 100.95 510.413 97.24 510.413 94.3C510.833 89.26 511.743 86.11 516.573 86.11C521.963 86.11 521.893 90.8 521.893 92.9L527.703 92.83C528.193 85.34 522.103 84.64 516.573 84.5C509.713 84.43 504.113 88.42 503.693 94.58C503.483 100.04 507.543 102.7 514.753 104.45C520.353 106.27 521.333 109.56 521.123 113.41C520.913 116.91 519.863 121.39 514.543 121.39C509.783 121.39 509.643 116.56 509.573 113.83L503.763 114.18C503.343 120.83 508.733 123 514.613 123Z" fill="currentColor"/>
<path d="M570.418 88.21C567.548 84.85 563.418 84.5 560.548 84.5C557.678 84.5 555.158 85.55 553.968 87.16V75.61L547.248 78.76V108.86V123H553.968V98.85C554.038 89.12 554.598 86.18 560.548 86.18C567.478 86.18 566.918 93.11 566.918 103.89L566.848 123H573.568L573.638 103.89C573.568 94.93 573.358 91.71 570.418 88.21ZM589.513 104.66H604.633V101.37C604.633 89.68 600.853 84.5 591.683 84.5C580.203 84.5 579.643 92.9 579.293 100.25C579.223 101.44 579.223 102.14 579.223 103.61C579.223 112.15 579.223 123 591.473 123C597.983 123 603.653 120.34 603.653 114.74L597.843 113.55C597.423 117.19 595.953 121.39 591.823 121.39C588.463 121.39 586.783 117.82 586.433 115.3C586.083 112.5 585.943 110.54 585.943 104.59C587.063 104.66 588.323 104.66 589.513 104.66ZM591.823 86.11C596.933 86.11 597.913 91.29 597.913 103.05H586.013C586.013 91.29 586.433 86.11 591.823 86.11ZM623.87 123H630.59V104.66H637.03V103.05H630.59V83.94C630.59 78.69 632.9 77.22 636.96 77.22H639.27V75.61H637.03C627.02 75.61 623.87 80.51 623.87 86.32V123ZM651.784 123C664.244 123 665.014 112.85 665.014 103.68C665.014 94.58 664.244 84.5 651.784 84.5C639.324 84.5 638.764 94.58 638.764 103.68C638.764 112.85 639.324 123 651.784 123ZM651.854 121.46C649.194 121.46 647.724 120.27 646.884 118.24C645.694 115.37 645.834 110.47 645.834 103.61C645.834 96.61 645.694 91.85 647.094 88.91C647.934 87.16 649.404 86.11 651.854 86.11C654.234 86.11 655.494 87.23 656.264 88.63C657.874 91.57 657.874 95.14 657.874 103.68C657.874 112.08 657.734 115.58 656.684 118.1C655.774 120.27 654.304 121.46 651.854 121.46ZM696.746 84.5H690.026L690.096 103.61C690.166 114.39 690.656 121.32 683.726 121.32C676.796 121.32 677.356 114.39 677.356 103.61L677.426 84.5H670.706L670.636 103.61C670.636 112.57 670.916 115.79 673.856 119.29C676.726 122.65 680.856 123 683.726 123C686.596 123 690.726 122.65 693.596 119.29C696.536 115.79 696.746 112.57 696.816 103.61L696.746 84.5ZM725.252 88.21C722.382 84.85 718.252 84.5 715.382 84.5C712.512 84.5 709.852 85.69 708.942 88.14L708.802 84.5L702.082 86.46V123H708.802V104.03C708.802 94.3 708.452 86.18 715.382 86.18C722.312 86.18 721.752 93.11 721.752 103.89L721.682 123H728.402L728.472 103.89C728.402 94.93 728.192 91.71 725.252 88.21ZM754.077 78.41V87.16C752.677 85.69 750.507 84.5 747.357 84.5C734.757 84.5 734.757 94.72 734.757 103.82C734.757 112.99 734.757 123 747.427 123C760.517 123 760.517 112.85 760.517 103.82V75.61L754.077 78.41ZM752.257 118.03C751.417 120.13 749.877 121.39 747.357 121.39C744.837 121.39 743.367 120.2 742.527 118.17C741.337 115.3 741.477 109.07 741.477 103.61C741.477 98.5 741.337 91.85 742.737 88.91C743.577 87.16 745.047 86.11 747.357 86.11C749.527 86.11 750.997 87.02 751.837 88.63C753.447 91.57 753.447 98.29 753.447 103.89C753.447 108.93 753.517 115.09 752.257 118.03ZM803.933 88.21C801.063 84.85 796.933 84.5 794.063 84.5C791.193 84.5 788.673 85.55 787.483 87.16V75.61L780.763 78.76V108.86V123H787.483V98.85C787.553 89.12 788.113 86.18 794.063 86.18C800.993 86.18 800.433 93.11 800.433 103.89L800.363 123H807.083L807.153 103.89C807.083 94.93 806.873 91.71 803.933 88.21ZM814.053 75.61V81.14H820.353V75.61H814.053ZM814.123 123H820.423V84.5H814.123V123ZM857.501 84.5C854.211 84.5 851.761 85.48 850.501 86.95C849.941 87.58 849.661 88.07 849.451 88.77C848.051 85.55 845.181 84.5 840.001 84.5C836.711 84.5 834.681 85.48 833.421 86.95V84.5L826.701 86.46V123H833.421V95.91C833.421 89.4 834.471 86.53 838.671 86.18C843.501 85.76 844.341 87.72 844.341 97.8V123H850.501V95.91C850.501 89.33 851.901 86.53 856.171 86.18C861.001 85.76 861.841 87.72 861.841 97.8V123H868.561V96.19C868.561 86.95 866.041 84.5 857.501 84.5ZM884.642 123C892.412 123 897.452 119.36 897.872 112.99C898.292 104.52 889.752 103.26 885.832 102.21C880.722 100.95 880.442 97.24 880.442 94.3C880.862 89.26 881.772 86.11 886.602 86.11C891.992 86.11 891.922 90.8 891.922 92.9L897.732 92.83C898.222 85.34 892.132 84.64 886.602 84.5C879.742 84.43 874.142 88.42 873.722 94.58C873.512 100.04 877.572 102.7 884.782 104.45C890.382 106.27 891.362 109.56 891.152 113.41C890.942 116.91 889.892 121.39 884.572 121.39C879.812 121.39 879.672 116.56 879.602 113.83L873.792 114.18C873.372 120.83 878.762 123 884.642 123ZM911.828 104.66H926.948V101.37C926.948 89.68 923.168 84.5 913.998 84.5C902.518 84.5 901.958 92.9 901.608 100.25C901.538 101.44 901.538 102.14 901.538 103.61C901.538 112.15 901.538 123 913.788 123C920.298 123 925.968 120.34 925.968 114.74L920.158 113.55C919.738 117.19 918.268 121.39 914.138 121.39C910.778 121.39 909.098 117.82 908.748 115.3C908.398 112.5 908.258 110.54 908.258 104.59C909.378 104.66 910.638 104.66 911.828 104.66ZM914.138 86.11C919.248 86.11 920.228 91.29 920.228 103.05H908.328C908.328 91.29 908.748 86.11 914.138 86.11ZM942.041 123H944.001V121.39C943.581 121.39 942.811 121.39 942.111 121.32C939.241 121.04 939.241 118.1 939.241 112.71V75.61L932.521 79.11V108.86C932.521 117.33 932.451 123 942.041 123ZM949.945 123H956.665V104.66H963.105V103.05H956.665V83.94C956.665 78.69 958.975 77.22 963.035 77.22H965.345V75.61H963.105C953.095 75.61 949.945 80.51 949.945 86.32V123ZM15.24 196.32C12.37 196.04 12.37 193.1 12.37 187.71V161.11H15.17C16.08 161.11 16.85 161.25 16.85 160.34C16.85 159.43 16.08 159.5 15.17 159.5H12.37V150.61L5.65 154.11V159.5H2.64C1.73 159.5 0.96 159.36 0.96 160.27C0.96 161.18 1.73 161.11 2.64 161.11H5.65V183.86C5.65 192.33 5.58 198 15.17 198H17.13V196.39C16.71 196.39 15.94 196.39 15.24 196.32ZM29.3095 159.5L22.5895 161.46V198H29.3095V170.91C29.3095 165.03 30.2195 161.67 34.4195 161.11C37.9195 160.62 38.1295 165.94 38.6195 170.91L44.4295 168.74C44.6395 161.95 42.2595 159.5 36.3095 159.5C33.2295 159.5 30.9895 160.13 29.3095 161.95V159.5ZM60.1226 198C68.0326 198 72.7926 193.24 72.7926 185.47V172.38C72.7926 168.67 71.6726 165.66 69.7826 163.42C67.5426 160.9 64.2526 159.5 60.1226 159.5C55.2926 159.5 50.8126 161.18 48.9926 166.22L54.9426 167.2C55.5026 163.35 56.7626 161.11 60.1226 161.11C65.5826 161.11 66.2826 166.99 66.2826 175.32C65.0926 173.64 62.8526 172.94 60.1226 172.94C53.1226 172.94 47.5926 178.54 47.5926 185.82C47.5926 192.89 52.7026 198 60.1226 198ZM60.1226 196.46C55.8526 196.46 54.3126 192.75 54.3126 185.47C54.3126 178.47 55.7126 174.55 60.1226 174.55C64.4626 174.55 66.0726 178.75 66.0726 185.47C66.0726 192.05 64.6026 196.46 60.1226 196.46ZM101.541 163.21C98.6707 159.85 94.5407 159.5 91.6707 159.5C88.8007 159.5 86.1407 160.69 85.2307 163.14L85.0907 159.5L78.3707 161.46V198H85.0907V179.03C85.0907 169.3 84.7407 161.18 91.6707 161.18C98.6007 161.18 98.0407 168.11 98.0407 178.89L97.9707 198H104.691L104.761 178.89C104.691 169.93 104.481 166.71 101.541 163.21ZM121.546 198C129.316 198 134.356 194.36 134.776 187.99C135.196 179.52 126.656 178.26 122.736 177.21C117.626 175.95 117.346 172.24 117.346 169.3C117.766 164.26 118.676 161.11 123.506 161.11C128.896 161.11 128.826 165.8 128.826 167.9L134.636 167.83C135.126 160.34 129.036 159.64 123.506 159.5C116.646 159.43 111.046 163.42 110.626 169.58C110.416 175.04 114.476 177.7 121.686 179.45C127.286 181.27 128.266 184.56 128.056 188.41C127.846 191.91 126.796 196.39 121.476 196.39C116.716 196.39 116.576 191.56 116.506 188.83L110.696 189.18C110.276 195.83 115.666 198 121.546 198ZM139.818 198H146.538V179.66H152.978V178.05H146.538V158.94C146.538 153.69 148.848 152.22 152.908 152.22H155.218V150.61H152.978C142.968 150.61 139.818 155.51 139.818 161.32V198ZM167.732 198C180.192 198 180.962 187.85 180.962 178.68C180.962 169.58 180.192 159.5 167.732 159.5C155.272 159.5 154.712 169.58 154.712 178.68C154.712 187.85 155.272 198 167.732 198ZM167.802 196.46C165.142 196.46 163.672 195.27 162.832 193.24C161.642 190.37 161.782 185.47 161.782 178.61C161.782 171.61 161.642 166.85 163.042 163.91C163.882 162.16 165.352 161.11 167.802 161.11C170.182 161.11 171.442 162.23 172.212 163.63C173.822 166.57 173.822 170.14 173.822 178.68C173.822 187.08 173.682 190.58 172.632 193.1C171.722 195.27 170.252 196.46 167.802 196.46ZM193.304 159.5L186.584 161.46V198H193.304V170.91C193.304 165.03 194.214 161.67 198.414 161.11C201.914 160.62 202.124 165.94 202.614 170.91L208.424 168.74C208.634 161.95 206.254 159.5 200.304 159.5C197.224 159.5 194.984 160.13 193.304 161.95V159.5ZM244.454 159.5C241.164 159.5 238.714 160.48 237.454 161.95C236.894 162.58 236.614 163.07 236.404 163.77C235.004 160.55 232.134 159.5 226.954 159.5C223.664 159.5 221.634 160.48 220.374 161.95V159.5L213.654 161.46V198H220.374V170.91C220.374 164.4 221.424 161.53 225.624 161.18C230.454 160.76 231.294 162.72 231.294 172.8V198H237.454V170.91C237.454 164.33 238.854 161.53 243.124 161.18C247.954 160.76 248.794 162.72 248.794 172.8V198H255.514V171.19C255.514 161.95 252.994 159.5 244.454 159.5ZM270.685 179.66H285.805V176.37C285.805 164.68 282.025 159.5 272.855 159.5C261.375 159.5 260.815 167.9 260.465 175.25C260.395 176.44 260.395 177.14 260.395 178.61C260.395 187.15 260.395 198 272.645 198C279.155 198 284.825 195.34 284.825 189.74L279.015 188.55C278.595 192.19 277.125 196.39 272.995 196.39C269.635 196.39 267.955 192.82 267.605 190.3C267.255 187.5 267.115 185.54 267.115 179.59C268.235 179.66 269.495 179.66 270.685 179.66ZM272.995 161.11C278.105 161.11 279.085 166.29 279.085 178.05H267.185C267.185 166.29 267.605 161.11 272.995 161.11ZM310.699 153.41V162.16C309.299 160.69 307.129 159.5 303.979 159.5C291.379 159.5 291.379 169.72 291.379 178.82C291.379 187.99 291.379 198 304.049 198C317.139 198 317.139 187.85 317.139 178.82V150.61L310.699 153.41ZM308.879 193.03C308.039 195.13 306.499 196.39 303.979 196.39C301.459 196.39 299.989 195.2 299.149 193.17C297.959 190.3 298.099 184.07 298.099 178.61C298.099 173.5 297.959 166.85 299.359 163.91C300.199 162.16 301.669 161.11 303.979 161.11C306.149 161.11 307.619 162.02 308.459 163.63C310.069 166.57 310.069 173.29 310.069 178.89C310.069 183.93 310.139 190.09 308.879 193.03ZM337.314 150.61V156.14H343.614V150.61H337.314ZM337.384 198H343.684V159.5H337.384V198ZM373.133 163.21C370.263 159.85 366.133 159.5 363.263 159.5C360.393 159.5 357.733 160.69 356.823 163.14L356.683 159.5L349.963 161.46V198H356.683V179.03C356.683 169.3 356.333 161.18 363.263 161.18C370.193 161.18 369.633 168.11 369.633 178.89L369.563 198H376.283L376.353 178.89C376.283 169.93 376.073 166.71 373.133 163.21ZM419.822 163.21C416.952 159.85 412.822 159.5 409.952 159.5C407.082 159.5 404.562 160.55 403.372 162.16V150.61L396.652 153.76V183.86V198H403.372V173.85C403.442 164.12 404.002 161.18 409.952 161.18C416.882 161.18 416.322 168.11 416.322 178.89L416.252 198H422.972L423.042 178.89C422.972 169.93 422.762 166.71 419.822 163.21ZM429.941 150.61V156.14H436.241V150.61H429.941ZM430.011 198H436.311V159.5H430.011V198ZM453.089 198C460.859 198 465.899 194.36 466.319 187.99C466.739 179.52 458.199 178.26 454.279 177.21C449.169 175.95 448.889 172.24 448.889 169.3C449.309 164.26 450.219 161.11 455.049 161.11C460.439 161.11 460.369 165.8 460.369 167.9L466.179 167.83C466.669 160.34 460.579 159.64 455.049 159.5C448.189 159.43 442.589 163.42 442.169 169.58C441.959 175.04 446.019 177.7 453.229 179.45C458.829 181.27 459.809 184.56 459.599 188.41C459.389 191.91 458.339 196.39 453.019 196.39C448.259 196.39 448.119 191.56 448.049 188.83L442.239 189.18C441.819 195.83 447.209 198 453.089 198ZM498.254 159.5C495.104 159.5 492.934 160.69 491.534 162.16V153.41L485.094 150.61V178.82C485.094 187.85 485.094 198 498.184 198C510.854 198 510.854 187.99 510.854 178.82C510.854 169.72 510.854 159.5 498.254 159.5ZM503.084 193.17C502.244 195.2 500.774 196.39 498.254 196.39C495.734 196.39 494.194 195.13 493.354 193.03C492.094 190.09 492.164 183.93 492.164 178.89C492.164 173.29 492.164 166.57 493.774 163.63C494.614 162.02 496.084 161.11 498.254 161.11C500.564 161.11 502.034 162.16 502.874 163.91C504.274 166.85 504.134 173.5 504.134 178.61C504.134 184.07 504.274 190.3 503.084 193.17ZM525.734 179.66H540.854V176.37C540.854 164.68 537.074 159.5 527.904 159.5C516.424 159.5 515.864 167.9 515.514 175.25C515.444 176.44 515.444 177.14 515.444 178.61C515.444 187.15 515.444 198 527.694 198C534.204 198 539.874 195.34 539.874 189.74L534.064 188.55C533.644 192.19 532.174 196.39 528.044 196.39C524.684 196.39 523.004 192.82 522.654 190.3C522.304 187.5 522.164 185.54 522.164 179.59C523.284 179.66 524.544 179.66 525.734 179.66ZM528.044 161.11C533.154 161.11 534.134 166.29 534.134 178.05H522.234C522.234 166.29 522.654 161.11 528.044 161.11ZM565.747 153.41V162.16C564.347 160.69 562.177 159.5 559.027 159.5C546.427 159.5 546.427 169.72 546.427 178.82C546.427 187.99 546.427 198 559.097 198C572.187 198 572.187 187.85 572.187 178.82V150.61L565.747 153.41ZM563.927 193.03C563.087 195.13 561.547 196.39 559.027 196.39C556.507 196.39 555.037 195.2 554.197 193.17C553.007 190.3 553.147 184.07 553.147 178.61C553.147 173.5 553.007 166.85 554.407 163.91C555.247 162.16 556.717 161.11 559.027 161.11C561.197 161.11 562.667 162.02 563.507 163.63C565.117 166.57 565.117 173.29 565.117 178.89C565.117 183.93 565.187 190.09 563.927 193.03ZM592.363 150.61V156.14H598.663V150.61H592.363ZM592.433 198H598.733V159.5H592.433V198ZM628.181 163.21C625.311 159.85 621.181 159.5 618.311 159.5C615.441 159.5 612.781 160.69 611.871 163.14L611.731 159.5L605.011 161.46V198H611.731V179.03C611.731 169.3 611.381 161.18 618.311 161.18C625.241 161.18 624.681 168.11 624.681 178.89L624.611 198H631.331L631.401 178.89C631.331 169.93 631.121 166.71 628.181 163.21ZM649.41 196.32C646.54 196.04 646.54 193.1 646.54 187.71V161.11H649.34C650.25 161.11 651.02 161.25 651.02 160.34C651.02 159.43 650.25 159.5 649.34 159.5H646.54V150.61L639.82 154.11V159.5H636.81C635.9 159.5 635.13 159.36 635.13 160.27C635.13 161.18 635.9 161.11 636.81 161.11H639.82V183.86C639.82 192.33 639.75 198 649.34 198H651.3V196.39C650.88 196.39 650.11 196.39 649.41 196.32ZM667.712 198C680.172 198 680.942 187.85 680.942 178.68C680.942 169.58 680.172 159.5 667.712 159.5C655.252 159.5 654.692 169.58 654.692 178.68C654.692 187.85 655.252 198 667.712 198ZM667.782 196.46C665.122 196.46 663.652 195.27 662.812 193.24C661.622 190.37 661.762 185.47 661.762 178.61C661.762 171.61 661.622 166.85 663.022 163.91C663.862 162.16 665.332 161.11 667.782 161.11C670.162 161.11 671.422 162.23 672.192 163.63C673.802 166.57 673.802 170.14 673.802 178.68C673.802 187.08 673.662 190.58 672.612 193.1C671.702 195.27 670.232 196.46 667.782 196.46ZM712.408 198C720.318 198 725.078 193.24 725.078 185.47V172.38C725.078 168.67 723.958 165.66 722.068 163.42C719.828 160.9 716.538 159.5 712.408 159.5C707.578 159.5 703.098 161.18 701.278 166.22L707.228 167.2C707.788 163.35 709.048 161.11 712.408 161.11C717.868 161.11 718.568 166.99 718.568 175.32C717.378 173.64 715.138 172.94 712.408 172.94C705.408 172.94 699.878 178.54 699.878 185.82C699.878 192.89 704.988 198 712.408 198ZM712.408 196.46C708.138 196.46 706.598 192.75 706.598 185.47C706.598 178.47 707.998 174.55 712.408 174.55C716.748 174.55 718.358 178.75 718.358 185.47C718.358 192.05 716.888 196.46 712.408 196.46ZM757.34 159.5C744.67 159.5 744.67 169.51 744.67 178.68C744.67 187.78 744.67 198 757.27 198C760.42 198 762.59 196.81 763.99 195.34V200.87C763.99 206.82 764.97 209.69 753.49 209.69V211.3C762.38 211.02 765.67 210.53 768.26 207.73C769.66 206.12 770.43 203.95 770.43 201.01V178.68C770.43 169.65 770.43 159.5 757.34 159.5ZM763.36 178.61C763.36 184.21 763.36 190.93 761.75 193.87C760.91 195.48 759.44 196.39 757.27 196.39C754.96 196.39 753.49 195.34 752.65 193.59C751.25 190.65 751.39 184 751.39 178.89C751.39 173.43 751.25 167.2 752.44 164.33C753.28 162.3 754.75 161.11 757.27 161.11C759.79 161.11 761.33 162.37 762.17 164.47C763.43 167.41 763.36 173.57 763.36 178.61ZM776.66 150.61V156.14H782.96V150.61H776.66ZM776.73 198H783.03V159.5H776.73V198ZM801.978 159.5C789.308 159.5 789.308 169.51 789.308 178.68C789.308 187.78 789.308 198 801.908 198C805.058 198 807.228 196.81 808.628 195.34V200.87C808.628 206.82 809.608 209.69 798.128 209.69V211.3C807.018 211.02 810.308 210.53 812.898 207.73C814.298 206.12 815.068 203.95 815.068 201.01V178.68C815.068 169.65 815.068 159.5 801.978 159.5ZM807.998 178.61C807.998 184.21 807.998 190.93 806.388 193.87C805.548 195.48 804.078 196.39 801.908 196.39C799.598 196.39 798.128 195.34 797.288 193.59C795.888 190.65 796.028 184 796.028 178.89C796.028 173.43 795.888 167.2 797.078 164.33C797.918 162.3 799.388 161.11 801.908 161.11C804.428 161.11 805.968 162.37 806.808 164.47C808.068 167.41 807.998 173.57 807.998 178.61ZM833.199 198C841.109 198 845.869 193.24 845.869 185.47V172.38C845.869 168.67 844.749 165.66 842.859 163.42C840.619 160.9 837.329 159.5 833.199 159.5C828.369 159.5 823.889 161.18 822.069 166.22L828.019 167.2C828.579 163.35 829.839 161.11 833.199 161.11C838.659 161.11 839.359 166.99 839.359 175.32C838.169 173.64 835.929 172.94 833.199 172.94C826.199 172.94 820.669 178.54 820.669 185.82C820.669 192.89 825.779 198 833.199 198ZM833.199 196.46C828.929 196.46 827.389 192.75 827.389 185.47C827.389 178.47 828.789 174.55 833.199 174.55C837.539 174.55 839.149 178.75 839.149 185.47C839.149 192.05 837.679 196.46 833.199 196.46ZM874.617 163.21C871.747 159.85 867.617 159.5 864.747 159.5C861.877 159.5 859.217 160.69 858.307 163.14L858.167 159.5L851.447 161.46V198H858.167V179.03C858.167 169.3 857.817 161.18 864.747 161.18C871.677 161.18 871.117 168.11 871.117 178.89L871.047 198H877.767L877.837 178.89C877.767 169.93 877.557 166.71 874.617 163.21ZM895.845 196.32C892.975 196.04 892.975 193.1 892.975 187.71V161.11H895.775C896.685 161.11 897.455 161.25 897.455 160.34C897.455 159.43 896.685 159.5 895.775 159.5H892.975V150.61L886.255 154.11V159.5H883.245C882.335 159.5 881.565 159.36 881.565 160.27C881.565 161.18 882.335 161.11 883.245 161.11H886.255V183.86C886.255 192.33 886.185 198 895.775 198H897.735V196.39C897.315 196.39 896.545 196.39 895.845 196.32ZM904.15 150.61V156.14H910.45V150.61H904.15ZM904.22 198H910.52V159.5H904.22V198ZM934.578 193.59C933.738 195.34 932.198 196.39 929.888 196.39C927.578 196.39 926.038 195.34 925.198 193.59C923.798 190.65 923.798 185.82 923.798 178.75C923.798 171.68 923.798 166.85 925.198 163.91C926.038 162.16 927.578 161.11 929.888 161.11C932.198 161.11 933.738 162.16 934.578 163.91C935.138 165.03 935.418 166.36 935.628 168.04L941.508 166.64C939.968 162.44 936.678 159.5 929.888 159.5C917.358 159.5 916.798 169.58 916.798 178.75C916.798 187.92 917.358 198 929.888 198C936.678 198 939.968 195.06 941.508 190.86L935.628 189.46C935.418 191.14 935.138 192.47 934.578 193.59ZM2.08 225.61V231.14H8.38V225.61H2.08ZM2.15 273H8.45V234.5H2.15V273ZM37.8981 238.21C35.0281 234.85 30.8981 234.5 28.0281 234.5C25.1581 234.5 22.4981 235.69 21.5881 238.14L21.4481 234.5L14.7281 236.46V273H21.4481V254.03C21.4481 244.3 21.0981 236.18 28.0281 236.18C34.9581 236.18 34.3981 243.11 34.3981 253.89L34.3281 273H41.0481L41.1181 253.89C41.0481 244.93 40.8381 241.71 37.8981 238.21ZM57.9039 273C65.6739 273 70.7139 269.36 71.1339 262.99C71.5539 254.52 63.0139 253.26 59.0939 252.21C53.9839 250.95 53.7039 247.24 53.7039 244.3C54.1239 239.26 55.0339 236.11 59.8639 236.11C65.2539 236.11 65.1839 240.8 65.1839 242.9L70.9939 242.83C71.4839 235.34 65.3939 234.64 59.8639 234.5C53.0039 234.43 47.4039 238.42 46.9839 244.58C46.7739 250.04 50.8339 252.7 58.0439 254.45C63.6439 256.27 64.6239 259.56 64.4139 263.41C64.2039 266.91 63.1539 271.39 57.8339 271.39C53.0739 271.39 52.9339 266.56 52.8639 263.83L47.0539 264.18C46.6339 270.83 52.0239 273 57.9039 273ZM85.0896 254.66H100.21V251.37C100.21 239.68 96.4296 234.5 87.2596 234.5C75.7796 234.5 75.2196 242.9 74.8696 250.25C74.7996 251.44 74.7996 252.14 74.7996 253.61C74.7996 262.15 74.7996 273 87.0496 273C93.5596 273 99.2296 270.34 99.2296 264.74L93.4196 263.55C92.9996 267.19 91.5296 271.39 87.3996 271.39C84.0396 271.39 82.3596 267.82 82.0096 265.3C81.6596 262.5 81.5196 260.54 81.5196 254.59C82.6396 254.66 83.8996 254.66 85.0896 254.66ZM87.3996 236.11C92.5096 236.11 93.4896 241.29 93.4896 253.05H81.5896C81.5896 241.29 82.0096 236.11 87.3996 236.11ZM123.563 268.59C122.723 270.34 121.183 271.39 118.873 271.39C116.563 271.39 115.023 270.34 114.183 268.59C112.783 265.65 112.783 260.82 112.783 253.75C112.783 246.68 112.783 241.85 114.183 238.91C115.023 237.16 116.563 236.11 118.873 236.11C121.183 236.11 122.723 237.16 123.563 238.91C124.123 240.03 124.403 241.36 124.613 243.04L130.493 241.64C128.953 237.44 125.663 234.5 118.873 234.5C106.343 234.5 105.783 244.58 105.783 253.75C105.783 262.92 106.343 273 118.873 273C125.663 273 128.953 270.06 130.493 265.86L124.613 264.46C124.403 266.14 124.123 267.47 123.563 268.59ZM147.174 271.32C144.304 271.04 144.304 268.1 144.304 262.71V236.11H147.104C148.014 236.11 148.784 236.25 148.784 235.34C148.784 234.43 148.014 234.5 147.104 234.5H144.304V225.61L137.584 229.11V234.5H134.574C133.664 234.5 132.894 234.36 132.894 235.27C132.894 236.18 133.664 236.11 134.574 236.11H137.584V258.86C137.584 267.33 137.514 273 147.104 273H149.064V271.39C148.644 271.39 147.874 271.39 147.174 271.32ZM156.276 268.73V273H162.016V267.19L156.276 268.73Z" fill="#777"/>
</svg>
