<svg  viewBox="0 0 471 132" fill="none" xmlns="http://www.w3.org/2000/svg">
<path d="M13.8991 48C21.8091 48 26.5691 43.24 26.5691 35.47V22.38C26.5691 18.67 25.4491 15.66 23.5591 13.42C21.3191 10.9 18.0291 9.5 13.8991 9.5C9.06913 9.5 4.58913 11.18 2.76913 16.22L8.71913 17.2C9.27913 13.35 10.5391 11.11 13.8991 11.11C19.3591 11.11 20.0591 16.99 20.0591 25.32C18.8691 23.64 16.6291 22.94 13.8991 22.94C6.89913 22.94 1.36913 28.54 1.36913 35.82C1.36913 42.89 6.47913 48 13.8991 48ZM13.8991 46.46C9.62913 46.46 8.08913 42.75 8.08913 35.47C8.08913 28.47 9.48913 24.55 13.8991 24.55C18.2391 24.55 19.8491 28.75 19.8491 35.47C19.8491 42.05 18.3791 46.46 13.8991 46.46ZM50.9909 9.5C47.8409 9.5 45.6709 10.69 44.2709 12.16V3.41L37.8309 0.609997V28.82C37.8309 37.85 37.8309 48 50.9209 48C63.5909 48 63.5909 37.99 63.5909 28.82C63.5909 19.72 63.5909 9.5 50.9909 9.5ZM55.8209 43.17C54.9809 45.2 53.5109 46.39 50.9909 46.39C48.4709 46.39 46.9309 45.13 46.0909 43.03C44.8309 40.09 44.9009 33.93 44.9009 28.89C44.9009 23.29 44.9009 16.57 46.5109 13.63C47.3509 12.02 48.8209 11.11 50.9909 11.11C53.3009 11.11 54.7709 12.16 55.6109 13.91C57.0109 16.85 56.8709 23.5 56.8709 28.61C56.8709 34.07 57.0109 40.3 55.8209 43.17ZM92.9745 43.59C92.1345 45.34 90.5945 46.39 88.2845 46.39C85.9745 46.39 84.4345 45.34 83.5945 43.59C82.1945 40.65 82.1945 35.82 82.1945 28.75C82.1945 21.68 82.1945 16.85 83.5945 13.91C84.4345 12.16 85.9745 11.11 88.2845 11.11C90.5945 11.11 92.1345 12.16 92.9745 13.91C93.5345 15.03 93.8145 16.36 94.0245 18.04L99.9045 16.64C98.3645 12.44 95.0745 9.5 88.2845 9.5C75.7545 9.5 75.1945 19.58 75.1945 28.75C75.1945 37.92 75.7545 48 88.2845 48C95.0745 48 98.3645 45.06 99.9045 40.86L94.0245 39.46C93.8145 41.14 93.5345 42.47 92.9745 43.59ZM130.496 3.41V12.16C129.096 10.69 126.926 9.5 123.776 9.5C111.176 9.5 111.176 19.72 111.176 28.82C111.176 37.99 111.176 48 123.846 48C136.936 48 136.936 37.85 136.936 28.82V0.609997L130.496 3.41ZM128.676 43.03C127.836 45.13 126.296 46.39 123.776 46.39C121.256 46.39 119.786 45.2 118.946 43.17C117.756 40.3 117.896 34.07 117.896 28.61C117.896 23.5 117.756 16.85 119.156 13.91C119.996 12.16 121.466 11.11 123.776 11.11C125.946 11.11 127.416 12.02 128.256 13.63C129.866 16.57 129.866 23.29 129.866 28.89C129.866 33.93 129.936 40.09 128.676 43.03ZM159.072 29.66H174.192V26.37C174.192 14.68 170.412 9.5 161.242 9.5C149.762 9.5 149.202 17.9 148.852 25.25C148.782 26.44 148.782 27.14 148.782 28.61C148.782 37.15 148.782 48 161.032 48C167.542 48 173.212 45.34 173.212 39.74L167.402 38.55C166.982 42.19 165.512 46.39 161.382 46.39C158.022 46.39 156.342 42.82 155.992 40.3C155.642 37.5 155.502 35.54 155.502 29.59C156.622 29.66 157.882 29.66 159.072 29.66ZM161.382 11.11C166.492 11.11 167.472 16.29 167.472 28.05H155.572C155.572 16.29 155.992 11.11 161.382 11.11ZM185.729 48H192.449V29.66H198.889V28.05H192.449V8.94C192.449 3.69 194.759 2.22 198.819 2.22H201.129V0.609997H198.889C188.879 0.609997 185.729 5.51 185.729 11.32V48ZM223.793 9.5C211.123 9.5 211.123 19.51 211.123 28.68C211.123 37.78 211.123 48 223.723 48C226.873 48 229.043 46.81 230.443 45.34V50.87C230.443 56.82 231.423 59.69 219.943 59.69V61.3C228.833 61.02 232.123 60.53 234.713 57.73C236.113 56.12 236.883 53.95 236.883 51.01V28.68C236.883 19.65 236.883 9.5 223.793 9.5ZM229.813 28.61C229.813 34.21 229.813 40.93 228.203 43.87C227.363 45.48 225.893 46.39 223.723 46.39C221.413 46.39 219.943 45.34 219.103 43.59C217.703 40.65 217.843 34 217.843 28.89C217.843 23.43 217.703 17.2 218.893 14.33C219.733 12.3 221.203 11.11 223.723 11.11C226.243 11.11 227.783 12.37 228.623 14.47C229.883 17.41 229.813 23.57 229.813 28.61ZM272.667 13.21C269.797 9.85 265.667 9.5 262.797 9.5C259.927 9.5 257.407 10.55 256.217 12.16V0.609997L249.497 3.76V33.86V48H256.217V23.85C256.287 14.12 256.847 11.18 262.797 11.18C269.727 11.18 269.167 18.11 269.167 28.89L269.097 48H275.817L275.887 28.89C275.817 19.93 275.607 16.71 272.667 13.21ZM288.417 0.609997V6.14H294.717V0.609997H288.417ZM288.487 48H294.787V9.5H288.487V48ZM306.776 0.609997V6.14H313.076V0.609997H306.776ZM306.706 46.6C306.706 55 306.846 56.12 305.096 58.15C304.256 59.13 302.226 59.69 300.686 59.83L300.756 61.3C304.956 61.3 308.736 60.11 310.836 57.87C312.236 56.26 313.006 54.09 313.006 51.15V46.6L313.076 9.5H306.776L306.706 46.6ZM346.8 48H353.87L337.49 21.75L351.07 9.5H348.48L331.89 24.69V0.609997L325.17 4.11V48H331.89V26.86L333.08 25.81L346.8 48ZM374.233 48H376.193V46.39C375.773 46.39 375.003 46.39 374.303 46.32C371.433 46.04 371.433 43.1 371.433 37.71V0.609997L364.713 4.11V33.86C364.713 42.33 364.643 48 374.233 48ZM419.6 9.5C416.31 9.5 413.86 10.48 412.6 11.95C412.04 12.58 411.76 13.07 411.55 13.77C410.15 10.55 407.28 9.5 402.1 9.5C398.81 9.5 396.78 10.48 395.52 11.95V9.5L388.8 11.46V48H395.52V20.91C395.52 14.4 396.57 11.53 400.77 11.18C405.6 10.76 406.44 12.72 406.44 22.8V48H412.6V20.91C412.6 14.33 414 11.53 418.27 11.18C423.1 10.76 423.94 12.72 423.94 22.8V48H430.66V21.19C430.66 11.95 428.14 9.5 419.6 9.5ZM465.725 13.21C462.855 9.85 458.725 9.5 455.855 9.5C452.985 9.5 450.325 10.69 449.415 13.14L449.275 9.5L442.555 11.46V48H449.275V29.03C449.275 19.3 448.925 11.18 455.855 11.18C462.785 11.18 462.225 18.11 462.225 28.89L462.155 48H468.875L468.945 28.89C468.875 19.93 468.665 16.71 465.725 13.21ZM13.0493 118C25.5093 118 26.2793 107.85 26.2793 98.68C26.2793 89.58 25.5093 79.5 13.0493 79.5C0.589285 79.5 0.0292847 89.58 0.0292847 98.68C0.0292847 107.85 0.589285 118 13.0493 118ZM13.1193 116.46C10.4593 116.46 8.98928 115.27 8.14929 113.24C6.95928 110.37 7.09929 105.47 7.09929 98.61C7.09929 91.61 6.95928 86.85 8.35929 83.91C9.19929 82.16 10.6693 81.11 13.1193 81.11C15.4993 81.11 16.7593 82.23 17.5293 83.63C19.1393 86.57 19.1393 90.14 19.1393 98.68C19.1393 107.08 18.9993 110.58 17.9493 113.1C17.0393 115.27 15.5693 116.46 13.1193 116.46ZM53.3348 79.5C40.2448 79.5 40.2448 89.65 40.2448 98.68V131.3H46.6848V115.34C48.0848 116.81 50.2548 118 53.4048 118C66.4948 118 66.4948 107.78 66.4948 98.68C66.4948 89.51 66.4948 79.5 53.3348 79.5ZM58.0248 113.59C57.1848 115.34 55.7148 116.39 53.4048 116.39C51.2348 116.39 49.7648 115.48 48.9248 113.87C47.3148 110.93 47.3148 104.21 47.3148 98.61C47.3148 93.57 47.2448 87.41 48.5048 84.47C49.3448 82.37 50.8848 81.11 53.4048 81.11C55.9248 81.11 57.3948 82.3 58.2348 84.33C59.4248 87.2 59.2848 93.43 59.2848 98.89C59.2848 104 59.4248 110.65 58.0248 113.59ZM94.2208 79.5C81.0608 79.5 81.0608 89.51 81.0608 98.68C81.0608 107.78 81.0608 118 94.1508 118C97.3008 118 99.4708 116.81 100.871 115.34V131.3H107.311V98.68C107.311 89.65 107.311 79.5 94.2208 79.5ZM100.241 98.61C100.241 104.21 100.241 110.93 98.6308 113.87C97.7908 115.48 96.3208 116.39 94.1508 116.39C91.8408 116.39 90.3708 115.34 89.5308 113.59C88.1308 110.65 88.2708 104 88.2708 98.89C88.2708 93.43 88.1308 87.2 89.3208 84.33C90.1608 82.3 91.6308 81.11 94.1508 81.11C96.6708 81.11 98.2108 82.37 99.0508 84.47C100.311 87.41 100.241 93.57 100.241 98.61ZM128.667 79.5L121.947 81.46V118H128.667V90.91C128.667 85.03 129.577 81.67 133.777 81.11C137.277 80.62 137.487 85.94 137.977 90.91L143.787 88.74C143.997 81.95 141.617 79.5 135.667 79.5C132.587 79.5 130.347 80.13 128.667 81.95V79.5ZM167.931 118C175.701 118 180.741 114.36 181.161 107.99C181.581 99.52 173.041 98.26 169.121 97.21C164.011 95.95 163.731 92.24 163.731 89.3C164.151 84.26 165.061 81.11 169.891 81.11C175.281 81.11 175.211 85.8 175.211 87.9L181.021 87.83C181.511 80.34 175.421 79.64 169.891 79.5C163.031 79.43 157.431 83.42 157.011 89.58C156.801 95.04 160.861 97.7 168.071 99.45C173.671 101.27 174.651 104.56 174.441 108.41C174.231 111.91 173.181 116.39 167.861 116.39C163.101 116.39 162.961 111.56 162.891 108.83L157.081 109.18C156.661 115.83 162.051 118 167.931 118ZM208.056 116.32C205.186 116.04 205.186 113.1 205.186 107.71V81.11H207.986C208.896 81.11 209.666 81.25 209.666 80.34C209.666 79.43 208.896 79.5 207.986 79.5H205.186V70.61L198.466 74.11V79.5H195.456C194.546 79.5 193.776 79.36 193.776 80.27C193.776 81.18 194.546 81.11 195.456 81.11H198.466V103.86C198.466 112.33 198.396 118 207.986 118H209.946V116.39C209.526 116.39 208.756 116.39 208.056 116.32ZM249.929 79.5H243.209L243.279 98.61C243.349 109.39 243.839 116.32 236.909 116.32C229.979 116.32 230.539 109.39 230.539 98.61L230.609 79.5H223.889L223.819 98.61C223.819 107.57 224.099 110.79 227.039 114.29C229.909 117.65 234.039 118 236.909 118C239.779 118 243.909 117.65 246.779 114.29C249.719 110.79 249.929 107.57 249.999 98.61L249.929 79.5ZM290.838 79.5H288.878L278.028 112.54L268.858 79.5H262.488L273.758 116.25C274.318 118.14 277.468 118.63 278.378 116.74L290.838 79.5ZM348.511 80.13L338.291 112.54L328.841 79.5H322.121L326.181 92.1L319.811 112.54L310.361 79.5H303.571L315.401 116.25C316.031 118.14 319.181 118.63 320.161 116.74L327.091 94.97L333.881 116.25C334.511 118.14 337.661 118.63 338.641 116.74L350.261 80.62C350.751 79.71 349.071 78.52 348.511 80.13ZM390.79 118L379.52 97L390.72 79.5H389.04L378.75 95.46L370.14 79.5H363.63L375.04 101.2L364.19 118H366.08L375.81 102.74L383.86 118H390.79ZM424.581 79.5V98.68C424.581 104.28 424.581 110.93 422.971 113.87C422.131 115.48 420.661 116.39 418.491 116.39C416.181 116.39 414.711 115.34 413.871 113.59C412.471 110.65 412.611 103.79 412.611 98.68V79.5H405.891V98.68C405.891 107.78 405.891 118 418.491 118C421.641 118 423.811 116.81 425.211 115.34V120.87C425.211 123.32 425.911 128.5 420.381 129.41C419.891 129.48 417.581 129.69 414.221 129.69V131.3H418.631C423.531 131.3 427.241 130.32 429.481 127.87C430.881 126.26 431.651 124.09 431.651 121.15V79.5H424.581ZM448.526 118H469.946V116.39H452.866L469.736 83.28C470.576 81.67 469.946 79.5 467.566 79.5H446.776V81.11H463.226L446.426 114.22C445.586 115.83 446.216 118 448.526 118Z" fill="currentColor"/>
</svg>
