<svg viewBox="0 0 475 180" fill="none" xmlns="http://www.w3.org/2000/svg">
<path d="M28.748 51H36.444L20.238 2.234C20.09 1.494 19.35 0.901997 18.536 0.901997C17.722 0.901997 16.982 1.494 16.834 2.234L2.03404 51H3.88404L9.87804 31.76H22.68L28.748 51ZM10.396 29.91L16.168 11.336L22.088 29.91H10.396ZM88.5314 25.84C95.1914 24.952 99.7054 20.142 99.7054 14.296C99.7054 6.156 96.0794 2.678 89.4934 1.42C85.4974 0.679999 73.5834 0.901997 67.5154 0.901997V4.01V51C73.5834 51 85.4974 51.148 89.4934 50.408C96.0794 49.15 99.7054 45.746 99.7054 37.606C99.7054 31.538 95.1174 26.432 88.5314 25.84ZM74.6194 2.752C81.7974 2.752 85.2014 2.752 88.0134 3.936C91.2694 5.342 92.6014 8.006 92.6014 13.63C92.6014 16.664 92.2314 20.956 88.6794 23.25C86.2374 24.878 82.1674 25.1 74.6194 25.1V2.752ZM88.0134 47.966C85.2014 49.15 81.7974 49.15 74.6194 49.15V26.58C82.1674 26.58 86.2374 26.802 88.6794 28.43C92.2314 30.724 92.6014 35.016 92.6014 38.272C92.6014 43.896 91.2694 46.56 88.0134 47.966ZM147.183 49.298C138.303 49.298 137.933 41.454 138.007 25.914C137.933 10.448 138.303 2.604 147.183 2.604C153.695 2.604 154.879 5.49 155.767 9.708L162.131 8.82C160.355 4.306 157.321 0.901997 147.183 0.901997C132.531 0.901997 130.533 12.816 130.903 25.914C130.533 39.086 132.531 51 147.183 51C157.321 51 160.355 47.596 162.131 43.082L155.767 42.194C154.879 46.412 153.695 49.298 147.183 49.298ZM225.911 16.22C225.615 8.82 223.469 3.936 217.475 1.938C213.775 0.679999 203.563 0.901997 193.203 0.901997V51C203.563 51 213.775 51.296 217.475 50.038C223.469 48.04 225.615 43.082 225.911 35.682C225.985 34.276 226.133 30.428 226.133 25.988C226.133 21.474 225.985 17.626 225.911 16.22ZM216.809 45.45C213.997 49.668 207.633 49.372 200.307 49.372V2.53C207.633 2.53 213.997 2.234 216.809 6.452C218.807 9.486 219.029 16.812 219.029 25.988C219.029 35.09 218.807 42.416 216.809 45.45ZM287.283 2.604V0.901997H257.313L257.239 51.074L258.423 51H287.209V49.298H264.343V26.21H283.509V24.508H264.417V2.604H287.283ZM348.428 2.604V0.901997H318.384V51H325.488V26.21H344.58V24.508H325.488V2.604H348.428ZM410.239 24.508H397.659V26.21H403.801C403.727 42.638 403.653 49.298 394.921 49.298C386.115 49.298 386.929 41.454 387.003 22.14C386.929 10.448 386.559 2.604 395.365 2.604C401.803 2.604 403.431 7.266 403.579 14.296H410.313C409.795 5.12 404.615 0.901997 395.365 0.901997C381.231 0.901997 379.233 12.816 379.603 22.14C379.233 39.086 381.231 51 395.365 51C408.981 51 410.831 40.048 411.275 26.21V25.322C411.275 24.878 411.275 24.508 410.239 24.508ZM465.869 0.901997V24.508H449.441V0.901997H442.337V51H449.441V26.21H465.869V51H472.973V0.901997H465.869ZM1.95598 115H8.76398V64.902H1.95598V115ZM32.6799 113.298H29.1279V115H32.6799C46.5179 115 47.4799 108.784 47.4799 86.14V64.902H40.3759V86.14C40.3759 108.784 38.8219 113.298 32.6799 113.298ZM92.9222 115H101.284L82.2662 84.512L98.9902 64.902H96.6962L75.7542 89.766V64.902H68.6502V115H75.7542V92.134L77.8262 89.692L92.9222 115ZM128.517 64.902H121.413L121.339 113.298V115H145.833V113.298H128.443L128.517 64.902ZM196.23 64.902L187.128 94.28L174.548 64.902H167.444V115H174.548V79.48L184.464 102.79H186.314L196.23 70.378V115H203.334V64.902H196.23ZM247.985 64.902V109.376L231.927 64.902H224.823V115H231.927V70.23L247.985 115H255.089V64.902H247.985ZM292.474 64.902C276.712 64.902 276.712 76.816 276.712 89.914C276.712 103.086 276.712 115 292.474 115C308.236 115 308.236 103.086 308.236 89.914C308.236 76.816 308.236 64.902 292.474 64.902ZM292.474 113.298C282.706 113.298 284.038 104.64 284.038 89.914C284.038 75.262 282.706 66.604 292.474 66.604C302.242 66.604 300.91 75.262 300.91 89.914C300.91 104.64 302.242 113.298 292.474 113.298ZM356.759 68.084C350.617 64.162 342.255 64.902 331.451 64.902H330.045V94.428L329.897 115H337.075L337.149 95.834C345.807 95.834 351.949 95.686 356.759 92.652C361.939 89.322 362.383 85.252 362.383 79.85C362.383 75.114 361.939 71.414 356.759 68.084ZM351.357 92.356C348.915 93.984 344.771 94.132 337.149 94.132V66.53C344.771 66.53 348.915 66.752 351.357 68.38C354.909 70.674 355.279 74.966 355.279 79.85C355.279 85.4 354.909 90.062 351.357 92.356ZM416.144 110.338L413.258 107.97C415.478 103.308 415.478 96.796 415.478 89.914C415.478 76.816 415.478 64.902 399.716 64.902C383.954 64.902 383.954 76.816 383.954 89.914C383.954 103.086 383.954 115 399.716 115C404.304 115 407.56 113.964 409.854 112.262L412.814 115.148L416.144 110.338ZM399.716 66.604C409.484 66.604 408.152 75.262 408.152 89.914C408.152 95.39 408.374 100.052 408.078 103.752L391.28 90.062V89.914C391.28 75.262 389.948 66.604 399.716 66.604ZM399.716 113.298C390.984 113.298 391.132 106.342 391.28 94.28L406.894 109.376C405.71 111.966 403.564 113.298 399.716 113.298ZM472.984 113.002C471.874 112.854 470.246 112.78 469.876 111.892C469.506 111.004 469.58 109.154 469.58 107.6V105.528C469.58 102.346 469.728 97.684 460.774 94.798C462.698 94.354 464.4 93.688 465.954 92.726C471.134 89.396 471.578 85.326 471.578 79.85C471.578 64.606 459.072 64.902 440.572 64.902H439.166V67.936V94.502L439.018 115H446.196L446.27 95.612H447.898C462.328 95.908 462.698 100.274 462.698 105.528V107.6C462.698 115.444 465.362 115 473.058 115L472.984 113.002ZM446.27 93.91V66.53C453.966 66.53 458.11 66.752 460.552 68.38C464.104 70.674 464.474 74.966 464.474 79.85C464.474 85.474 464.104 90.136 460.552 92.43C458.11 94.058 453.966 93.91 446.27 93.91ZM15.4162 179C26.5902 179.518 32.8802 173.968 33.2502 166.79C34.3602 147.476 7.94217 155.394 8.46018 139.336C8.68217 132.528 11.9382 130.53 17.8582 130.678C23.4822 130.826 26.5162 132.75 25.7022 142.222L32.9542 141.926C33.7682 132.824 28.7362 129.198 18.5242 128.902C7.42417 128.606 1.43017 134.896 1.35617 140.52C0.986174 160.13 26.9602 152.138 26.0722 168.344C25.6282 175.892 22.1502 177.668 15.7862 177.298C11.2722 177.076 8.83017 175.3 9.12617 165.384L1.80017 165.902C0.986174 175.3 7.35017 178.63 15.4162 179ZM90.4048 128.902H61.1008C59.6948 128.902 59.7688 130.604 61.1008 130.604H72.1268V179H79.2308V130.604H90.4048C91.8848 130.604 91.7368 128.902 90.4048 128.902ZM144.785 150.14C144.711 169.972 145.007 177.298 135.831 177.298C126.803 177.298 127.173 169.454 127.247 150.14V128.902H119.625V150.14C119.255 171.896 121.253 179 135.831 179C150.557 179 151.889 171.674 152.259 150.14V128.902H144.785V150.14ZM215.19 128.902L202.758 169.38L188.032 128.902H180.41L198.688 177.668C198.836 178.408 199.576 179 200.39 179C201.204 179 201.944 178.408 202.092 177.668L217.04 128.902H215.19ZM294.9 128.902L283.874 168.566L274.032 128.902H266.336L270.036 142.296L262.71 168.566L252.868 128.902H245.172L258.64 177.668C258.788 178.408 259.528 179 260.342 179C261.156 179 261.896 178.408 262.044 177.668L270.924 145.626L279.804 177.668C279.952 178.408 280.692 179 281.506 179C282.32 179 283.06 178.408 283.208 177.668L296.75 128.902H294.9ZM361.966 179L346.056 151.768L359.968 128.902H358.044L345.094 150.14L332.662 128.902L324.892 128.976L341.172 156.504L327.482 179H329.406L342.134 158.132L354.492 179H361.966ZM417.533 128.902H415.609L402.733 153.396L389.265 128.902H380.755L396.443 156.504V179H403.103V156.43L417.533 128.902ZM446.411 179H472.903V177.298H450.999L473.421 132.898C474.383 131.048 473.643 128.902 471.127 128.902H443.303V130.604H466.539L444.191 175.004C443.303 176.706 443.969 179 446.411 179Z" fill="#5F5F5F"/>
</svg>
